%TF.GenerationSoftware,KiCad,Pcbnew,7.0.1-0*%
%TF.CreationDate,2023-04-19T13:52:22-05:00*%
%TF.ProjectId,ME 433 HW3,4d452034-3333-4204-9857-332e6b696361,rev?*%
%TF.SameCoordinates,Original*%
%TF.FileFunction,Drillmap*%
%TF.FilePolarity,Positive*%
%FSLAX45Y45*%
G04 Gerber Fmt 4.5, Leading zero omitted, Abs format (unit mm)*
G04 Created by KiCad (PCBNEW 7.0.1-0) date 2023-04-19 13:52:22*
%MOMM*%
%LPD*%
G01*
G04 APERTURE LIST*
%ADD10C,0.100000*%
%ADD11C,0.200000*%
%ADD12C,0.040000*%
%ADD13C,0.075000*%
%ADD14C,0.080000*%
%ADD15C,0.090000*%
G04 APERTURE END LIST*
D10*
X10000000Y-10000000D02*
X15000000Y-10000000D01*
X15000000Y-15000000D01*
X10000000Y-15000000D01*
X10000000Y-10000000D01*
D11*
D12*
X10035950Y-10648000D02*
X10075950Y-10688000D01*
X10075950Y-10648000D02*
X10035950Y-10688000D01*
X10394000Y-13442000D02*
X10434000Y-13482000D01*
X10434000Y-13442000D02*
X10394000Y-13482000D01*
X10394000Y-13696000D02*
X10434000Y-13736000D01*
X10434000Y-13696000D02*
X10394000Y-13736000D01*
X10513798Y-12700000D02*
X10553798Y-12740000D01*
X10553798Y-12700000D02*
X10513798Y-12740000D01*
X10648000Y-10829550D02*
X10688000Y-10869550D01*
X10688000Y-10829550D02*
X10648000Y-10869550D01*
X10902000Y-12963317D02*
X10942000Y-13003317D01*
X10942000Y-12963317D02*
X10902000Y-13003317D01*
X11156000Y-13696000D02*
X11196000Y-13736000D01*
X11196000Y-13696000D02*
X11156000Y-13736000D01*
X11664000Y-12934000D02*
X11704000Y-12974000D01*
X11704000Y-12934000D02*
X11664000Y-12974000D01*
X11664000Y-13442000D02*
X11704000Y-13482000D01*
X11704000Y-13442000D02*
X11664000Y-13482000D01*
X11918000Y-12680000D02*
X11958000Y-12720000D01*
X11958000Y-12680000D02*
X11918000Y-12720000D01*
X12172000Y-10648000D02*
X12212000Y-10688000D01*
X12212000Y-10648000D02*
X12172000Y-10688000D01*
X12172000Y-12426000D02*
X12212000Y-12466000D01*
X12212000Y-12426000D02*
X12172000Y-12466000D01*
X12426000Y-10394000D02*
X12466000Y-10434000D01*
X12466000Y-10394000D02*
X12426000Y-10434000D01*
X12426000Y-10902000D02*
X12466000Y-10942000D01*
X12466000Y-10902000D02*
X12426000Y-10942000D01*
X12426000Y-11156000D02*
X12466000Y-11196000D01*
X12466000Y-11156000D02*
X12426000Y-11196000D01*
X12680000Y-13188000D02*
X12720000Y-13228000D01*
X12720000Y-13188000D02*
X12680000Y-13228000D01*
X12934000Y-12680000D02*
X12974000Y-12720000D01*
X12974000Y-12680000D02*
X12934000Y-12720000D01*
X12950676Y-13273283D02*
X12990676Y-13313283D01*
X12990676Y-13273283D02*
X12950676Y-13313283D01*
X13188000Y-12172000D02*
X13228000Y-12212000D01*
X13228000Y-12172000D02*
X13188000Y-12212000D01*
X13188000Y-13442000D02*
X13228000Y-13482000D01*
X13228000Y-13442000D02*
X13188000Y-13482000D01*
X13442000Y-12934000D02*
X13482000Y-12974000D01*
X13482000Y-12934000D02*
X13442000Y-12974000D01*
X13950000Y-13709000D02*
X13990000Y-13749000D01*
X13990000Y-13709000D02*
X13950000Y-13749000D01*
X14924050Y-10648000D02*
X14964050Y-10688000D01*
X14964050Y-10648000D02*
X14924050Y-10688000D01*
D13*
X14261500Y-10668000D02*
G75*
G03*
X14261500Y-10668000I-37500J0D01*
G01*
X14261500Y-10795000D02*
G75*
G03*
X14261500Y-10795000I-37500J0D01*
G01*
X14261500Y-10922000D02*
G75*
G03*
X14261500Y-10922000I-37500J0D01*
G01*
D14*
X10517437Y-10762064D02*
X10517437Y-10842064D01*
X10477437Y-10802064D02*
X10557437Y-10802064D01*
X10517437Y-11524064D02*
X10517437Y-11604064D01*
X10477437Y-11564064D02*
X10557437Y-11564064D01*
X10668000Y-13295000D02*
X10668000Y-13375000D01*
X10628000Y-13335000D02*
X10708000Y-13335000D01*
X10668000Y-14057000D02*
X10668000Y-14137000D01*
X10628000Y-14097000D02*
X10708000Y-14097000D01*
X11025437Y-10762064D02*
X11025437Y-10842064D01*
X10985437Y-10802064D02*
X11065437Y-10802064D01*
X11025437Y-11524064D02*
X11025437Y-11604064D01*
X10985437Y-11564064D02*
X11065437Y-11564064D01*
X11064014Y-13300968D02*
X11064014Y-13380968D01*
X11024014Y-13340968D02*
X11104014Y-13340968D01*
X11064014Y-14062968D02*
X11064014Y-14142968D01*
X11024014Y-14102968D02*
X11104014Y-14102968D01*
X11430000Y-13676000D02*
X11430000Y-13756000D01*
X11390000Y-13716000D02*
X11470000Y-13716000D01*
X11680000Y-13676000D02*
X11680000Y-13756000D01*
X11640000Y-13716000D02*
X11720000Y-13716000D01*
X12066000Y-10753500D02*
X12066000Y-10833500D01*
X12026000Y-10793500D02*
X12106000Y-10793500D01*
X12066000Y-11007500D02*
X12066000Y-11087500D01*
X12026000Y-11047500D02*
X12106000Y-11047500D01*
X12066000Y-11261500D02*
X12066000Y-11341500D01*
X12026000Y-11301500D02*
X12106000Y-11301500D01*
X12066000Y-11515500D02*
X12066000Y-11595500D01*
X12026000Y-11555500D02*
X12106000Y-11555500D01*
X12066000Y-11769500D02*
X12066000Y-11849500D01*
X12026000Y-11809500D02*
X12106000Y-11809500D01*
X12066000Y-12023500D02*
X12066000Y-12103500D01*
X12026000Y-12063500D02*
X12106000Y-12063500D01*
X12066000Y-12277500D02*
X12066000Y-12357500D01*
X12026000Y-12317500D02*
X12106000Y-12317500D01*
X12066000Y-12531500D02*
X12066000Y-12611500D01*
X12026000Y-12571500D02*
X12106000Y-12571500D01*
X12066000Y-12785500D02*
X12066000Y-12865500D01*
X12026000Y-12825500D02*
X12106000Y-12825500D01*
X12066000Y-13039500D02*
X12066000Y-13119500D01*
X12026000Y-13079500D02*
X12106000Y-13079500D01*
X12066000Y-13293500D02*
X12066000Y-13373500D01*
X12026000Y-13333500D02*
X12106000Y-13333500D01*
X12066000Y-13547500D02*
X12066000Y-13627500D01*
X12026000Y-13587500D02*
X12106000Y-13587500D01*
X12066000Y-13801500D02*
X12066000Y-13881500D01*
X12026000Y-13841500D02*
X12106000Y-13841500D01*
X12066000Y-14055500D02*
X12066000Y-14135500D01*
X12026000Y-14095500D02*
X12106000Y-14095500D01*
X12828000Y-10753500D02*
X12828000Y-10833500D01*
X12788000Y-10793500D02*
X12868000Y-10793500D01*
X12828000Y-11007500D02*
X12828000Y-11087500D01*
X12788000Y-11047500D02*
X12868000Y-11047500D01*
X12828000Y-11261500D02*
X12828000Y-11341500D01*
X12788000Y-11301500D02*
X12868000Y-11301500D01*
X12828000Y-11515500D02*
X12828000Y-11595500D01*
X12788000Y-11555500D02*
X12868000Y-11555500D01*
X12828000Y-11769500D02*
X12828000Y-11849500D01*
X12788000Y-11809500D02*
X12868000Y-11809500D01*
X12828000Y-12023500D02*
X12828000Y-12103500D01*
X12788000Y-12063500D02*
X12868000Y-12063500D01*
X12828000Y-12277500D02*
X12828000Y-12357500D01*
X12788000Y-12317500D02*
X12868000Y-12317500D01*
X12828000Y-12531500D02*
X12828000Y-12611500D01*
X12788000Y-12571500D02*
X12868000Y-12571500D01*
X12828000Y-12785500D02*
X12828000Y-12865500D01*
X12788000Y-12825500D02*
X12868000Y-12825500D01*
X12828000Y-13039500D02*
X12828000Y-13119500D01*
X12788000Y-13079500D02*
X12868000Y-13079500D01*
X12828000Y-13293500D02*
X12828000Y-13373500D01*
X12788000Y-13333500D02*
X12868000Y-13333500D01*
X12828000Y-13547500D02*
X12828000Y-13627500D01*
X12788000Y-13587500D02*
X12868000Y-13587500D01*
X12828000Y-13801500D02*
X12828000Y-13881500D01*
X12788000Y-13841500D02*
X12868000Y-13841500D01*
X12828000Y-14055500D02*
X12828000Y-14135500D01*
X12788000Y-14095500D02*
X12868000Y-14095500D01*
X13208000Y-12660000D02*
X13208000Y-12740000D01*
X13168000Y-12700000D02*
X13248000Y-12700000D01*
X13208000Y-12910000D02*
X13208000Y-12990000D01*
X13168000Y-12950000D02*
X13248000Y-12950000D01*
X13212000Y-10632000D02*
X13212000Y-10712000D01*
X13172000Y-10672000D02*
X13252000Y-10672000D01*
X13212000Y-10882000D02*
X13212000Y-10962000D01*
X13172000Y-10922000D02*
X13252000Y-10922000D01*
X13716000Y-10628000D02*
X13716000Y-10708000D01*
X13676000Y-10668000D02*
X13756000Y-10668000D01*
X13716000Y-10878000D02*
X13716000Y-10958000D01*
X13676000Y-10918000D02*
X13756000Y-10918000D01*
X13716000Y-12787000D02*
X13716000Y-12867000D01*
X13676000Y-12827000D02*
X13756000Y-12827000D01*
X13716000Y-13549000D02*
X13716000Y-13629000D01*
X13676000Y-13589000D02*
X13756000Y-13589000D01*
X13852663Y-11174128D02*
X13852663Y-11254128D01*
X13812663Y-11214128D02*
X13892663Y-11214128D01*
X13852663Y-11424128D02*
X13852663Y-11504128D01*
X13812663Y-11464128D02*
X13892663Y-11464128D01*
X14219649Y-11169362D02*
X14219649Y-11249362D01*
X14179649Y-11209362D02*
X14259649Y-11209362D01*
X14219649Y-11419362D02*
X14219649Y-11499362D01*
X14179649Y-11459362D02*
X14259649Y-11459362D01*
D15*
X10549257Y-10452884D02*
X10549257Y-10389244D01*
X10485617Y-10389244D01*
X10485617Y-10452884D01*
X10549257Y-10452884D01*
X10803257Y-10452884D02*
X10803257Y-10389244D01*
X10739617Y-10389244D01*
X10739617Y-10452884D01*
X10803257Y-10452884D01*
X11057257Y-10452884D02*
X11057257Y-10389244D01*
X10993617Y-10389244D01*
X10993617Y-10452884D01*
X11057257Y-10452884D01*
X11311257Y-10452884D02*
X11311257Y-10389244D01*
X11247617Y-10389244D01*
X11247617Y-10452884D01*
X11311257Y-10452884D01*
X13877388Y-12134463D02*
X13877388Y-12070822D01*
X13813748Y-12070822D01*
X13813748Y-12134463D01*
X13877388Y-12134463D01*
X14131388Y-12134463D02*
X14131388Y-12070822D01*
X14067748Y-12070822D01*
X14067748Y-12134463D01*
X14131388Y-12134463D01*
D10*
X10160000Y-11246000D02*
X10210000Y-11196000D01*
X10160000Y-11146000D01*
X10110000Y-11196000D01*
X10160000Y-11246000D01*
X10160000Y-11500000D02*
X10210000Y-11450000D01*
X10160000Y-11400000D01*
X10110000Y-11450000D01*
X10160000Y-11500000D01*
X10160000Y-11754000D02*
X10210000Y-11704000D01*
X10160000Y-11654000D01*
X10110000Y-11704000D01*
X10160000Y-11754000D01*
X10160000Y-12008000D02*
X10210000Y-11958000D01*
X10160000Y-11908000D01*
X10110000Y-11958000D01*
X10160000Y-12008000D01*
X10160000Y-12262000D02*
X10210000Y-12212000D01*
X10160000Y-12162000D01*
X10110000Y-12212000D01*
X10160000Y-12262000D01*
X10160000Y-12516000D02*
X10210000Y-12466000D01*
X10160000Y-12416000D01*
X10110000Y-12466000D01*
X10160000Y-12516000D01*
X10160000Y-12770000D02*
X10210000Y-12720000D01*
X10160000Y-12670000D01*
X10110000Y-12720000D01*
X10160000Y-12770000D01*
X10160000Y-13024000D02*
X10210000Y-12974000D01*
X10160000Y-12924000D01*
X10110000Y-12974000D01*
X10160000Y-13024000D01*
X10160000Y-13278000D02*
X10210000Y-13228000D01*
X10160000Y-13178000D01*
X10110000Y-13228000D01*
X10160000Y-13278000D01*
X10160000Y-13532000D02*
X10210000Y-13482000D01*
X10160000Y-13432000D01*
X10110000Y-13482000D01*
X10160000Y-13532000D01*
X10160000Y-13786000D02*
X10210000Y-13736000D01*
X10160000Y-13686000D01*
X10110000Y-13736000D01*
X10160000Y-13786000D01*
X10160000Y-14040000D02*
X10210000Y-13990000D01*
X10160000Y-13940000D01*
X10110000Y-13990000D01*
X10160000Y-14040000D01*
X10160000Y-14782000D02*
X10210000Y-14732000D01*
X10160000Y-14682000D01*
X10110000Y-14732000D01*
X10160000Y-14782000D01*
X10668000Y-14782000D02*
X10718000Y-14732000D01*
X10668000Y-14682000D01*
X10618000Y-14732000D01*
X10668000Y-14782000D01*
X11176000Y-14782000D02*
X11226000Y-14732000D01*
X11176000Y-14682000D01*
X11126000Y-14732000D01*
X11176000Y-14782000D01*
X11684000Y-14782000D02*
X11734000Y-14732000D01*
X11684000Y-14682000D01*
X11634000Y-14732000D01*
X11684000Y-14782000D01*
X11869285Y-10271382D02*
X11919285Y-10221382D01*
X11869285Y-10171382D01*
X11819285Y-10221382D01*
X11869285Y-10271382D01*
X12119285Y-10271382D02*
X12169285Y-10221382D01*
X12119285Y-10171382D01*
X12069285Y-10221382D01*
X12119285Y-10271382D01*
X12369285Y-10271382D02*
X12419285Y-10221382D01*
X12369285Y-10171382D01*
X12319285Y-10221382D01*
X12369285Y-10271382D01*
X12954000Y-10210000D02*
X13004000Y-10160000D01*
X12954000Y-10110000D01*
X12904000Y-10160000D01*
X12954000Y-10210000D01*
X13208000Y-10210000D02*
X13258000Y-10160000D01*
X13208000Y-10110000D01*
X13158000Y-10160000D01*
X13208000Y-10210000D01*
X13462000Y-10210000D02*
X13512000Y-10160000D01*
X13462000Y-10110000D01*
X13412000Y-10160000D01*
X13462000Y-10210000D01*
X13716000Y-10210000D02*
X13766000Y-10160000D01*
X13716000Y-10110000D01*
X13666000Y-10160000D01*
X13716000Y-10210000D01*
X13970000Y-10210000D02*
X14020000Y-10160000D01*
X13970000Y-10110000D01*
X13920000Y-10160000D01*
X13970000Y-10210000D01*
X14224000Y-10210000D02*
X14274000Y-10160000D01*
X14224000Y-10110000D01*
X14174000Y-10160000D01*
X14224000Y-10210000D01*
X14732000Y-10210000D02*
X14782000Y-10160000D01*
X14732000Y-10110000D01*
X14682000Y-10160000D01*
X14732000Y-10210000D01*
X14732000Y-10464000D02*
X14782000Y-10414000D01*
X14732000Y-10364000D01*
X14682000Y-10414000D01*
X14732000Y-10464000D01*
X14732000Y-11246000D02*
X14782000Y-11196000D01*
X14732000Y-11146000D01*
X14682000Y-11196000D01*
X14732000Y-11246000D01*
X14732000Y-11500000D02*
X14782000Y-11450000D01*
X14732000Y-11400000D01*
X14682000Y-11450000D01*
X14732000Y-11500000D01*
X14732000Y-11754000D02*
X14782000Y-11704000D01*
X14732000Y-11654000D01*
X14682000Y-11704000D01*
X14732000Y-11754000D01*
X14732000Y-12008000D02*
X14782000Y-11958000D01*
X14732000Y-11908000D01*
X14682000Y-11958000D01*
X14732000Y-12008000D01*
X14732000Y-12262000D02*
X14782000Y-12212000D01*
X14732000Y-12162000D01*
X14682000Y-12212000D01*
X14732000Y-12262000D01*
X14732000Y-12516000D02*
X14782000Y-12466000D01*
X14732000Y-12416000D01*
X14682000Y-12466000D01*
X14732000Y-12516000D01*
X14732000Y-12770000D02*
X14782000Y-12720000D01*
X14732000Y-12670000D01*
X14682000Y-12720000D01*
X14732000Y-12770000D01*
X14732000Y-13024000D02*
X14782000Y-12974000D01*
X14732000Y-12924000D01*
X14682000Y-12974000D01*
X14732000Y-13024000D01*
X14732000Y-13278000D02*
X14782000Y-13228000D01*
X14732000Y-13178000D01*
X14682000Y-13228000D01*
X14732000Y-13278000D01*
X14732000Y-13532000D02*
X14782000Y-13482000D01*
X14732000Y-13432000D01*
X14682000Y-13482000D01*
X14732000Y-13532000D01*
X14732000Y-13786000D02*
X14782000Y-13736000D01*
X14732000Y-13686000D01*
X14682000Y-13736000D01*
X14732000Y-13786000D01*
X14732000Y-14040000D02*
X14782000Y-13990000D01*
X14732000Y-13940000D01*
X14682000Y-13990000D01*
X14732000Y-14040000D01*
D11*
X10242619Y-15317524D02*
X10242619Y-15117524D01*
X10242619Y-15117524D02*
X10290238Y-15117524D01*
X10290238Y-15117524D02*
X10318810Y-15127048D01*
X10318810Y-15127048D02*
X10337857Y-15146095D01*
X10337857Y-15146095D02*
X10347381Y-15165143D01*
X10347381Y-15165143D02*
X10356905Y-15203238D01*
X10356905Y-15203238D02*
X10356905Y-15231809D01*
X10356905Y-15231809D02*
X10347381Y-15269905D01*
X10347381Y-15269905D02*
X10337857Y-15288952D01*
X10337857Y-15288952D02*
X10318810Y-15308000D01*
X10318810Y-15308000D02*
X10290238Y-15317524D01*
X10290238Y-15317524D02*
X10242619Y-15317524D01*
X10442619Y-15317524D02*
X10442619Y-15184190D01*
X10442619Y-15222286D02*
X10452143Y-15203238D01*
X10452143Y-15203238D02*
X10461667Y-15193714D01*
X10461667Y-15193714D02*
X10480714Y-15184190D01*
X10480714Y-15184190D02*
X10499762Y-15184190D01*
X10566429Y-15317524D02*
X10566429Y-15184190D01*
X10566429Y-15117524D02*
X10556905Y-15127048D01*
X10556905Y-15127048D02*
X10566429Y-15136571D01*
X10566429Y-15136571D02*
X10575952Y-15127048D01*
X10575952Y-15127048D02*
X10566429Y-15117524D01*
X10566429Y-15117524D02*
X10566429Y-15136571D01*
X10690238Y-15317524D02*
X10671190Y-15308000D01*
X10671190Y-15308000D02*
X10661667Y-15288952D01*
X10661667Y-15288952D02*
X10661667Y-15117524D01*
X10795000Y-15317524D02*
X10775952Y-15308000D01*
X10775952Y-15308000D02*
X10766429Y-15288952D01*
X10766429Y-15288952D02*
X10766429Y-15117524D01*
X11023571Y-15317524D02*
X11023571Y-15117524D01*
X11023571Y-15117524D02*
X11090238Y-15260381D01*
X11090238Y-15260381D02*
X11156905Y-15117524D01*
X11156905Y-15117524D02*
X11156905Y-15317524D01*
X11337857Y-15317524D02*
X11337857Y-15212762D01*
X11337857Y-15212762D02*
X11328333Y-15193714D01*
X11328333Y-15193714D02*
X11309286Y-15184190D01*
X11309286Y-15184190D02*
X11271190Y-15184190D01*
X11271190Y-15184190D02*
X11252143Y-15193714D01*
X11337857Y-15308000D02*
X11318809Y-15317524D01*
X11318809Y-15317524D02*
X11271190Y-15317524D01*
X11271190Y-15317524D02*
X11252143Y-15308000D01*
X11252143Y-15308000D02*
X11242619Y-15288952D01*
X11242619Y-15288952D02*
X11242619Y-15269905D01*
X11242619Y-15269905D02*
X11252143Y-15250857D01*
X11252143Y-15250857D02*
X11271190Y-15241333D01*
X11271190Y-15241333D02*
X11318809Y-15241333D01*
X11318809Y-15241333D02*
X11337857Y-15231809D01*
X11433095Y-15184190D02*
X11433095Y-15384190D01*
X11433095Y-15193714D02*
X11452143Y-15184190D01*
X11452143Y-15184190D02*
X11490238Y-15184190D01*
X11490238Y-15184190D02*
X11509286Y-15193714D01*
X11509286Y-15193714D02*
X11518809Y-15203238D01*
X11518809Y-15203238D02*
X11528333Y-15222286D01*
X11528333Y-15222286D02*
X11528333Y-15279428D01*
X11528333Y-15279428D02*
X11518809Y-15298476D01*
X11518809Y-15298476D02*
X11509286Y-15308000D01*
X11509286Y-15308000D02*
X11490238Y-15317524D01*
X11490238Y-15317524D02*
X11452143Y-15317524D01*
X11452143Y-15317524D02*
X11433095Y-15308000D01*
X11614048Y-15298476D02*
X11623571Y-15308000D01*
X11623571Y-15308000D02*
X11614048Y-15317524D01*
X11614048Y-15317524D02*
X11604524Y-15308000D01*
X11604524Y-15308000D02*
X11614048Y-15298476D01*
X11614048Y-15298476D02*
X11614048Y-15317524D01*
X11614048Y-15193714D02*
X11623571Y-15203238D01*
X11623571Y-15203238D02*
X11614048Y-15212762D01*
X11614048Y-15212762D02*
X11604524Y-15203238D01*
X11604524Y-15203238D02*
X11614048Y-15193714D01*
X11614048Y-15193714D02*
X11614048Y-15212762D01*
D12*
X9955000Y-15625000D02*
X9995000Y-15665000D01*
X9995000Y-15625000D02*
X9955000Y-15665000D01*
D11*
X10280714Y-15537524D02*
X10299762Y-15537524D01*
X10299762Y-15537524D02*
X10318810Y-15547048D01*
X10318810Y-15547048D02*
X10328333Y-15556571D01*
X10328333Y-15556571D02*
X10337857Y-15575619D01*
X10337857Y-15575619D02*
X10347381Y-15613714D01*
X10347381Y-15613714D02*
X10347381Y-15661333D01*
X10347381Y-15661333D02*
X10337857Y-15699428D01*
X10337857Y-15699428D02*
X10328333Y-15718476D01*
X10328333Y-15718476D02*
X10318810Y-15728000D01*
X10318810Y-15728000D02*
X10299762Y-15737524D01*
X10299762Y-15737524D02*
X10280714Y-15737524D01*
X10280714Y-15737524D02*
X10261667Y-15728000D01*
X10261667Y-15728000D02*
X10252143Y-15718476D01*
X10252143Y-15718476D02*
X10242619Y-15699428D01*
X10242619Y-15699428D02*
X10233095Y-15661333D01*
X10233095Y-15661333D02*
X10233095Y-15613714D01*
X10233095Y-15613714D02*
X10242619Y-15575619D01*
X10242619Y-15575619D02*
X10252143Y-15556571D01*
X10252143Y-15556571D02*
X10261667Y-15547048D01*
X10261667Y-15547048D02*
X10280714Y-15537524D01*
X10433095Y-15718476D02*
X10442619Y-15728000D01*
X10442619Y-15728000D02*
X10433095Y-15737524D01*
X10433095Y-15737524D02*
X10423571Y-15728000D01*
X10423571Y-15728000D02*
X10433095Y-15718476D01*
X10433095Y-15718476D02*
X10433095Y-15737524D01*
X10614048Y-15604190D02*
X10614048Y-15737524D01*
X10566429Y-15528000D02*
X10518810Y-15670857D01*
X10518810Y-15670857D02*
X10642619Y-15670857D01*
X10756905Y-15537524D02*
X10775952Y-15537524D01*
X10775952Y-15537524D02*
X10795000Y-15547048D01*
X10795000Y-15547048D02*
X10804524Y-15556571D01*
X10804524Y-15556571D02*
X10814048Y-15575619D01*
X10814048Y-15575619D02*
X10823571Y-15613714D01*
X10823571Y-15613714D02*
X10823571Y-15661333D01*
X10823571Y-15661333D02*
X10814048Y-15699428D01*
X10814048Y-15699428D02*
X10804524Y-15718476D01*
X10804524Y-15718476D02*
X10795000Y-15728000D01*
X10795000Y-15728000D02*
X10775952Y-15737524D01*
X10775952Y-15737524D02*
X10756905Y-15737524D01*
X10756905Y-15737524D02*
X10737857Y-15728000D01*
X10737857Y-15728000D02*
X10728333Y-15718476D01*
X10728333Y-15718476D02*
X10718810Y-15699428D01*
X10718810Y-15699428D02*
X10709286Y-15661333D01*
X10709286Y-15661333D02*
X10709286Y-15613714D01*
X10709286Y-15613714D02*
X10718810Y-15575619D01*
X10718810Y-15575619D02*
X10728333Y-15556571D01*
X10728333Y-15556571D02*
X10737857Y-15547048D01*
X10737857Y-15547048D02*
X10756905Y-15537524D01*
X10947381Y-15537524D02*
X10966429Y-15537524D01*
X10966429Y-15537524D02*
X10985476Y-15547048D01*
X10985476Y-15547048D02*
X10995000Y-15556571D01*
X10995000Y-15556571D02*
X11004524Y-15575619D01*
X11004524Y-15575619D02*
X11014048Y-15613714D01*
X11014048Y-15613714D02*
X11014048Y-15661333D01*
X11014048Y-15661333D02*
X11004524Y-15699428D01*
X11004524Y-15699428D02*
X10995000Y-15718476D01*
X10995000Y-15718476D02*
X10985476Y-15728000D01*
X10985476Y-15728000D02*
X10966429Y-15737524D01*
X10966429Y-15737524D02*
X10947381Y-15737524D01*
X10947381Y-15737524D02*
X10928333Y-15728000D01*
X10928333Y-15728000D02*
X10918810Y-15718476D01*
X10918810Y-15718476D02*
X10909286Y-15699428D01*
X10909286Y-15699428D02*
X10899762Y-15661333D01*
X10899762Y-15661333D02*
X10899762Y-15613714D01*
X10899762Y-15613714D02*
X10909286Y-15575619D01*
X10909286Y-15575619D02*
X10918810Y-15556571D01*
X10918810Y-15556571D02*
X10928333Y-15547048D01*
X10928333Y-15547048D02*
X10947381Y-15537524D01*
X11099762Y-15737524D02*
X11099762Y-15604190D01*
X11099762Y-15623238D02*
X11109286Y-15613714D01*
X11109286Y-15613714D02*
X11128333Y-15604190D01*
X11128333Y-15604190D02*
X11156905Y-15604190D01*
X11156905Y-15604190D02*
X11175952Y-15613714D01*
X11175952Y-15613714D02*
X11185476Y-15632762D01*
X11185476Y-15632762D02*
X11185476Y-15737524D01*
X11185476Y-15632762D02*
X11195000Y-15613714D01*
X11195000Y-15613714D02*
X11214048Y-15604190D01*
X11214048Y-15604190D02*
X11242619Y-15604190D01*
X11242619Y-15604190D02*
X11261667Y-15613714D01*
X11261667Y-15613714D02*
X11271190Y-15632762D01*
X11271190Y-15632762D02*
X11271190Y-15737524D01*
X11366429Y-15737524D02*
X11366429Y-15604190D01*
X11366429Y-15623238D02*
X11375952Y-15613714D01*
X11375952Y-15613714D02*
X11395000Y-15604190D01*
X11395000Y-15604190D02*
X11423571Y-15604190D01*
X11423571Y-15604190D02*
X11442619Y-15613714D01*
X11442619Y-15613714D02*
X11452143Y-15632762D01*
X11452143Y-15632762D02*
X11452143Y-15737524D01*
X11452143Y-15632762D02*
X11461667Y-15613714D01*
X11461667Y-15613714D02*
X11480714Y-15604190D01*
X11480714Y-15604190D02*
X11509286Y-15604190D01*
X11509286Y-15604190D02*
X11528333Y-15613714D01*
X11528333Y-15613714D02*
X11537857Y-15632762D01*
X11537857Y-15632762D02*
X11537857Y-15737524D01*
X11928333Y-15528000D02*
X11756905Y-15785143D01*
X12185476Y-15537524D02*
X12204524Y-15537524D01*
X12204524Y-15537524D02*
X12223572Y-15547048D01*
X12223572Y-15547048D02*
X12233095Y-15556571D01*
X12233095Y-15556571D02*
X12242619Y-15575619D01*
X12242619Y-15575619D02*
X12252143Y-15613714D01*
X12252143Y-15613714D02*
X12252143Y-15661333D01*
X12252143Y-15661333D02*
X12242619Y-15699428D01*
X12242619Y-15699428D02*
X12233095Y-15718476D01*
X12233095Y-15718476D02*
X12223572Y-15728000D01*
X12223572Y-15728000D02*
X12204524Y-15737524D01*
X12204524Y-15737524D02*
X12185476Y-15737524D01*
X12185476Y-15737524D02*
X12166429Y-15728000D01*
X12166429Y-15728000D02*
X12156905Y-15718476D01*
X12156905Y-15718476D02*
X12147381Y-15699428D01*
X12147381Y-15699428D02*
X12137857Y-15661333D01*
X12137857Y-15661333D02*
X12137857Y-15613714D01*
X12137857Y-15613714D02*
X12147381Y-15575619D01*
X12147381Y-15575619D02*
X12156905Y-15556571D01*
X12156905Y-15556571D02*
X12166429Y-15547048D01*
X12166429Y-15547048D02*
X12185476Y-15537524D01*
X12337857Y-15718476D02*
X12347381Y-15728000D01*
X12347381Y-15728000D02*
X12337857Y-15737524D01*
X12337857Y-15737524D02*
X12328333Y-15728000D01*
X12328333Y-15728000D02*
X12337857Y-15718476D01*
X12337857Y-15718476D02*
X12337857Y-15737524D01*
X12471191Y-15537524D02*
X12490238Y-15537524D01*
X12490238Y-15537524D02*
X12509286Y-15547048D01*
X12509286Y-15547048D02*
X12518810Y-15556571D01*
X12518810Y-15556571D02*
X12528333Y-15575619D01*
X12528333Y-15575619D02*
X12537857Y-15613714D01*
X12537857Y-15613714D02*
X12537857Y-15661333D01*
X12537857Y-15661333D02*
X12528333Y-15699428D01*
X12528333Y-15699428D02*
X12518810Y-15718476D01*
X12518810Y-15718476D02*
X12509286Y-15728000D01*
X12509286Y-15728000D02*
X12490238Y-15737524D01*
X12490238Y-15737524D02*
X12471191Y-15737524D01*
X12471191Y-15737524D02*
X12452143Y-15728000D01*
X12452143Y-15728000D02*
X12442619Y-15718476D01*
X12442619Y-15718476D02*
X12433095Y-15699428D01*
X12433095Y-15699428D02*
X12423572Y-15661333D01*
X12423572Y-15661333D02*
X12423572Y-15613714D01*
X12423572Y-15613714D02*
X12433095Y-15575619D01*
X12433095Y-15575619D02*
X12442619Y-15556571D01*
X12442619Y-15556571D02*
X12452143Y-15547048D01*
X12452143Y-15547048D02*
X12471191Y-15537524D01*
X12728333Y-15737524D02*
X12614048Y-15737524D01*
X12671191Y-15737524D02*
X12671191Y-15537524D01*
X12671191Y-15537524D02*
X12652143Y-15566095D01*
X12652143Y-15566095D02*
X12633095Y-15585143D01*
X12633095Y-15585143D02*
X12614048Y-15594667D01*
X12909286Y-15537524D02*
X12814048Y-15537524D01*
X12814048Y-15537524D02*
X12804524Y-15632762D01*
X12804524Y-15632762D02*
X12814048Y-15623238D01*
X12814048Y-15623238D02*
X12833095Y-15613714D01*
X12833095Y-15613714D02*
X12880714Y-15613714D01*
X12880714Y-15613714D02*
X12899762Y-15623238D01*
X12899762Y-15623238D02*
X12909286Y-15632762D01*
X12909286Y-15632762D02*
X12918810Y-15651809D01*
X12918810Y-15651809D02*
X12918810Y-15699428D01*
X12918810Y-15699428D02*
X12909286Y-15718476D01*
X12909286Y-15718476D02*
X12899762Y-15728000D01*
X12899762Y-15728000D02*
X12880714Y-15737524D01*
X12880714Y-15737524D02*
X12833095Y-15737524D01*
X12833095Y-15737524D02*
X12814048Y-15728000D01*
X12814048Y-15728000D02*
X12804524Y-15718476D01*
X12985476Y-15537524D02*
X13118810Y-15537524D01*
X13118810Y-15537524D02*
X13033095Y-15737524D01*
X13185476Y-15537524D02*
X13185476Y-15575619D01*
X13261667Y-15537524D02*
X13261667Y-15575619D01*
X13556905Y-15813714D02*
X13547381Y-15804190D01*
X13547381Y-15804190D02*
X13528334Y-15775619D01*
X13528334Y-15775619D02*
X13518810Y-15756571D01*
X13518810Y-15756571D02*
X13509286Y-15728000D01*
X13509286Y-15728000D02*
X13499762Y-15680381D01*
X13499762Y-15680381D02*
X13499762Y-15642286D01*
X13499762Y-15642286D02*
X13509286Y-15594667D01*
X13509286Y-15594667D02*
X13518810Y-15566095D01*
X13518810Y-15566095D02*
X13528334Y-15547048D01*
X13528334Y-15547048D02*
X13547381Y-15518476D01*
X13547381Y-15518476D02*
X13556905Y-15508952D01*
X13623572Y-15556571D02*
X13633095Y-15547048D01*
X13633095Y-15547048D02*
X13652143Y-15537524D01*
X13652143Y-15537524D02*
X13699762Y-15537524D01*
X13699762Y-15537524D02*
X13718810Y-15547048D01*
X13718810Y-15547048D02*
X13728334Y-15556571D01*
X13728334Y-15556571D02*
X13737857Y-15575619D01*
X13737857Y-15575619D02*
X13737857Y-15594667D01*
X13737857Y-15594667D02*
X13728334Y-15623238D01*
X13728334Y-15623238D02*
X13614048Y-15737524D01*
X13614048Y-15737524D02*
X13737857Y-15737524D01*
X13804524Y-15537524D02*
X13928334Y-15537524D01*
X13928334Y-15537524D02*
X13861667Y-15613714D01*
X13861667Y-15613714D02*
X13890238Y-15613714D01*
X13890238Y-15613714D02*
X13909286Y-15623238D01*
X13909286Y-15623238D02*
X13918810Y-15632762D01*
X13918810Y-15632762D02*
X13928334Y-15651809D01*
X13928334Y-15651809D02*
X13928334Y-15699428D01*
X13928334Y-15699428D02*
X13918810Y-15718476D01*
X13918810Y-15718476D02*
X13909286Y-15728000D01*
X13909286Y-15728000D02*
X13890238Y-15737524D01*
X13890238Y-15737524D02*
X13833095Y-15737524D01*
X13833095Y-15737524D02*
X13814048Y-15728000D01*
X13814048Y-15728000D02*
X13804524Y-15718476D01*
X14166429Y-15737524D02*
X14166429Y-15537524D01*
X14252143Y-15737524D02*
X14252143Y-15632762D01*
X14252143Y-15632762D02*
X14242619Y-15613714D01*
X14242619Y-15613714D02*
X14223572Y-15604190D01*
X14223572Y-15604190D02*
X14195000Y-15604190D01*
X14195000Y-15604190D02*
X14175953Y-15613714D01*
X14175953Y-15613714D02*
X14166429Y-15623238D01*
X14375953Y-15737524D02*
X14356905Y-15728000D01*
X14356905Y-15728000D02*
X14347381Y-15718476D01*
X14347381Y-15718476D02*
X14337857Y-15699428D01*
X14337857Y-15699428D02*
X14337857Y-15642286D01*
X14337857Y-15642286D02*
X14347381Y-15623238D01*
X14347381Y-15623238D02*
X14356905Y-15613714D01*
X14356905Y-15613714D02*
X14375953Y-15604190D01*
X14375953Y-15604190D02*
X14404524Y-15604190D01*
X14404524Y-15604190D02*
X14423572Y-15613714D01*
X14423572Y-15613714D02*
X14433096Y-15623238D01*
X14433096Y-15623238D02*
X14442619Y-15642286D01*
X14442619Y-15642286D02*
X14442619Y-15699428D01*
X14442619Y-15699428D02*
X14433096Y-15718476D01*
X14433096Y-15718476D02*
X14423572Y-15728000D01*
X14423572Y-15728000D02*
X14404524Y-15737524D01*
X14404524Y-15737524D02*
X14375953Y-15737524D01*
X14556905Y-15737524D02*
X14537857Y-15728000D01*
X14537857Y-15728000D02*
X14528334Y-15708952D01*
X14528334Y-15708952D02*
X14528334Y-15537524D01*
X14709286Y-15728000D02*
X14690238Y-15737524D01*
X14690238Y-15737524D02*
X14652143Y-15737524D01*
X14652143Y-15737524D02*
X14633096Y-15728000D01*
X14633096Y-15728000D02*
X14623572Y-15708952D01*
X14623572Y-15708952D02*
X14623572Y-15632762D01*
X14623572Y-15632762D02*
X14633096Y-15613714D01*
X14633096Y-15613714D02*
X14652143Y-15604190D01*
X14652143Y-15604190D02*
X14690238Y-15604190D01*
X14690238Y-15604190D02*
X14709286Y-15613714D01*
X14709286Y-15613714D02*
X14718810Y-15632762D01*
X14718810Y-15632762D02*
X14718810Y-15651809D01*
X14718810Y-15651809D02*
X14623572Y-15670857D01*
X14795000Y-15728000D02*
X14814048Y-15737524D01*
X14814048Y-15737524D02*
X14852143Y-15737524D01*
X14852143Y-15737524D02*
X14871191Y-15728000D01*
X14871191Y-15728000D02*
X14880715Y-15708952D01*
X14880715Y-15708952D02*
X14880715Y-15699428D01*
X14880715Y-15699428D02*
X14871191Y-15680381D01*
X14871191Y-15680381D02*
X14852143Y-15670857D01*
X14852143Y-15670857D02*
X14823572Y-15670857D01*
X14823572Y-15670857D02*
X14804524Y-15661333D01*
X14804524Y-15661333D02*
X14795000Y-15642286D01*
X14795000Y-15642286D02*
X14795000Y-15632762D01*
X14795000Y-15632762D02*
X14804524Y-15613714D01*
X14804524Y-15613714D02*
X14823572Y-15604190D01*
X14823572Y-15604190D02*
X14852143Y-15604190D01*
X14852143Y-15604190D02*
X14871191Y-15613714D01*
X14947381Y-15813714D02*
X14956905Y-15804190D01*
X14956905Y-15804190D02*
X14975953Y-15775619D01*
X14975953Y-15775619D02*
X14985477Y-15756571D01*
X14985477Y-15756571D02*
X14995000Y-15728000D01*
X14995000Y-15728000D02*
X15004524Y-15680381D01*
X15004524Y-15680381D02*
X15004524Y-15642286D01*
X15004524Y-15642286D02*
X14995000Y-15594667D01*
X14995000Y-15594667D02*
X14985477Y-15566095D01*
X14985477Y-15566095D02*
X14975953Y-15547048D01*
X14975953Y-15547048D02*
X14956905Y-15518476D01*
X14956905Y-15518476D02*
X14947381Y-15508952D01*
D13*
X9995000Y-15909000D02*
G75*
G03*
X9995000Y-15909000I-37500J0D01*
G01*
D11*
X10280714Y-15801524D02*
X10299762Y-15801524D01*
X10299762Y-15801524D02*
X10318810Y-15811048D01*
X10318810Y-15811048D02*
X10328333Y-15820571D01*
X10328333Y-15820571D02*
X10337857Y-15839619D01*
X10337857Y-15839619D02*
X10347381Y-15877714D01*
X10347381Y-15877714D02*
X10347381Y-15925333D01*
X10347381Y-15925333D02*
X10337857Y-15963428D01*
X10337857Y-15963428D02*
X10328333Y-15982476D01*
X10328333Y-15982476D02*
X10318810Y-15992000D01*
X10318810Y-15992000D02*
X10299762Y-16001524D01*
X10299762Y-16001524D02*
X10280714Y-16001524D01*
X10280714Y-16001524D02*
X10261667Y-15992000D01*
X10261667Y-15992000D02*
X10252143Y-15982476D01*
X10252143Y-15982476D02*
X10242619Y-15963428D01*
X10242619Y-15963428D02*
X10233095Y-15925333D01*
X10233095Y-15925333D02*
X10233095Y-15877714D01*
X10233095Y-15877714D02*
X10242619Y-15839619D01*
X10242619Y-15839619D02*
X10252143Y-15820571D01*
X10252143Y-15820571D02*
X10261667Y-15811048D01*
X10261667Y-15811048D02*
X10280714Y-15801524D01*
X10433095Y-15982476D02*
X10442619Y-15992000D01*
X10442619Y-15992000D02*
X10433095Y-16001524D01*
X10433095Y-16001524D02*
X10423571Y-15992000D01*
X10423571Y-15992000D02*
X10433095Y-15982476D01*
X10433095Y-15982476D02*
X10433095Y-16001524D01*
X10509286Y-15801524D02*
X10642619Y-15801524D01*
X10642619Y-15801524D02*
X10556905Y-16001524D01*
X10814048Y-15801524D02*
X10718810Y-15801524D01*
X10718810Y-15801524D02*
X10709286Y-15896762D01*
X10709286Y-15896762D02*
X10718810Y-15887238D01*
X10718810Y-15887238D02*
X10737857Y-15877714D01*
X10737857Y-15877714D02*
X10785476Y-15877714D01*
X10785476Y-15877714D02*
X10804524Y-15887238D01*
X10804524Y-15887238D02*
X10814048Y-15896762D01*
X10814048Y-15896762D02*
X10823571Y-15915809D01*
X10823571Y-15915809D02*
X10823571Y-15963428D01*
X10823571Y-15963428D02*
X10814048Y-15982476D01*
X10814048Y-15982476D02*
X10804524Y-15992000D01*
X10804524Y-15992000D02*
X10785476Y-16001524D01*
X10785476Y-16001524D02*
X10737857Y-16001524D01*
X10737857Y-16001524D02*
X10718810Y-15992000D01*
X10718810Y-15992000D02*
X10709286Y-15982476D01*
X10947381Y-15801524D02*
X10966429Y-15801524D01*
X10966429Y-15801524D02*
X10985476Y-15811048D01*
X10985476Y-15811048D02*
X10995000Y-15820571D01*
X10995000Y-15820571D02*
X11004524Y-15839619D01*
X11004524Y-15839619D02*
X11014048Y-15877714D01*
X11014048Y-15877714D02*
X11014048Y-15925333D01*
X11014048Y-15925333D02*
X11004524Y-15963428D01*
X11004524Y-15963428D02*
X10995000Y-15982476D01*
X10995000Y-15982476D02*
X10985476Y-15992000D01*
X10985476Y-15992000D02*
X10966429Y-16001524D01*
X10966429Y-16001524D02*
X10947381Y-16001524D01*
X10947381Y-16001524D02*
X10928333Y-15992000D01*
X10928333Y-15992000D02*
X10918810Y-15982476D01*
X10918810Y-15982476D02*
X10909286Y-15963428D01*
X10909286Y-15963428D02*
X10899762Y-15925333D01*
X10899762Y-15925333D02*
X10899762Y-15877714D01*
X10899762Y-15877714D02*
X10909286Y-15839619D01*
X10909286Y-15839619D02*
X10918810Y-15820571D01*
X10918810Y-15820571D02*
X10928333Y-15811048D01*
X10928333Y-15811048D02*
X10947381Y-15801524D01*
X11099762Y-16001524D02*
X11099762Y-15868190D01*
X11099762Y-15887238D02*
X11109286Y-15877714D01*
X11109286Y-15877714D02*
X11128333Y-15868190D01*
X11128333Y-15868190D02*
X11156905Y-15868190D01*
X11156905Y-15868190D02*
X11175952Y-15877714D01*
X11175952Y-15877714D02*
X11185476Y-15896762D01*
X11185476Y-15896762D02*
X11185476Y-16001524D01*
X11185476Y-15896762D02*
X11195000Y-15877714D01*
X11195000Y-15877714D02*
X11214048Y-15868190D01*
X11214048Y-15868190D02*
X11242619Y-15868190D01*
X11242619Y-15868190D02*
X11261667Y-15877714D01*
X11261667Y-15877714D02*
X11271190Y-15896762D01*
X11271190Y-15896762D02*
X11271190Y-16001524D01*
X11366429Y-16001524D02*
X11366429Y-15868190D01*
X11366429Y-15887238D02*
X11375952Y-15877714D01*
X11375952Y-15877714D02*
X11395000Y-15868190D01*
X11395000Y-15868190D02*
X11423571Y-15868190D01*
X11423571Y-15868190D02*
X11442619Y-15877714D01*
X11442619Y-15877714D02*
X11452143Y-15896762D01*
X11452143Y-15896762D02*
X11452143Y-16001524D01*
X11452143Y-15896762D02*
X11461667Y-15877714D01*
X11461667Y-15877714D02*
X11480714Y-15868190D01*
X11480714Y-15868190D02*
X11509286Y-15868190D01*
X11509286Y-15868190D02*
X11528333Y-15877714D01*
X11528333Y-15877714D02*
X11537857Y-15896762D01*
X11537857Y-15896762D02*
X11537857Y-16001524D01*
X11928333Y-15792000D02*
X11756905Y-16049143D01*
X12185476Y-15801524D02*
X12204524Y-15801524D01*
X12204524Y-15801524D02*
X12223572Y-15811048D01*
X12223572Y-15811048D02*
X12233095Y-15820571D01*
X12233095Y-15820571D02*
X12242619Y-15839619D01*
X12242619Y-15839619D02*
X12252143Y-15877714D01*
X12252143Y-15877714D02*
X12252143Y-15925333D01*
X12252143Y-15925333D02*
X12242619Y-15963428D01*
X12242619Y-15963428D02*
X12233095Y-15982476D01*
X12233095Y-15982476D02*
X12223572Y-15992000D01*
X12223572Y-15992000D02*
X12204524Y-16001524D01*
X12204524Y-16001524D02*
X12185476Y-16001524D01*
X12185476Y-16001524D02*
X12166429Y-15992000D01*
X12166429Y-15992000D02*
X12156905Y-15982476D01*
X12156905Y-15982476D02*
X12147381Y-15963428D01*
X12147381Y-15963428D02*
X12137857Y-15925333D01*
X12137857Y-15925333D02*
X12137857Y-15877714D01*
X12137857Y-15877714D02*
X12147381Y-15839619D01*
X12147381Y-15839619D02*
X12156905Y-15820571D01*
X12156905Y-15820571D02*
X12166429Y-15811048D01*
X12166429Y-15811048D02*
X12185476Y-15801524D01*
X12337857Y-15982476D02*
X12347381Y-15992000D01*
X12347381Y-15992000D02*
X12337857Y-16001524D01*
X12337857Y-16001524D02*
X12328333Y-15992000D01*
X12328333Y-15992000D02*
X12337857Y-15982476D01*
X12337857Y-15982476D02*
X12337857Y-16001524D01*
X12471191Y-15801524D02*
X12490238Y-15801524D01*
X12490238Y-15801524D02*
X12509286Y-15811048D01*
X12509286Y-15811048D02*
X12518810Y-15820571D01*
X12518810Y-15820571D02*
X12528333Y-15839619D01*
X12528333Y-15839619D02*
X12537857Y-15877714D01*
X12537857Y-15877714D02*
X12537857Y-15925333D01*
X12537857Y-15925333D02*
X12528333Y-15963428D01*
X12528333Y-15963428D02*
X12518810Y-15982476D01*
X12518810Y-15982476D02*
X12509286Y-15992000D01*
X12509286Y-15992000D02*
X12490238Y-16001524D01*
X12490238Y-16001524D02*
X12471191Y-16001524D01*
X12471191Y-16001524D02*
X12452143Y-15992000D01*
X12452143Y-15992000D02*
X12442619Y-15982476D01*
X12442619Y-15982476D02*
X12433095Y-15963428D01*
X12433095Y-15963428D02*
X12423572Y-15925333D01*
X12423572Y-15925333D02*
X12423572Y-15877714D01*
X12423572Y-15877714D02*
X12433095Y-15839619D01*
X12433095Y-15839619D02*
X12442619Y-15820571D01*
X12442619Y-15820571D02*
X12452143Y-15811048D01*
X12452143Y-15811048D02*
X12471191Y-15801524D01*
X12614048Y-15820571D02*
X12623572Y-15811048D01*
X12623572Y-15811048D02*
X12642619Y-15801524D01*
X12642619Y-15801524D02*
X12690238Y-15801524D01*
X12690238Y-15801524D02*
X12709286Y-15811048D01*
X12709286Y-15811048D02*
X12718810Y-15820571D01*
X12718810Y-15820571D02*
X12728333Y-15839619D01*
X12728333Y-15839619D02*
X12728333Y-15858667D01*
X12728333Y-15858667D02*
X12718810Y-15887238D01*
X12718810Y-15887238D02*
X12604524Y-16001524D01*
X12604524Y-16001524D02*
X12728333Y-16001524D01*
X12823572Y-16001524D02*
X12861667Y-16001524D01*
X12861667Y-16001524D02*
X12880714Y-15992000D01*
X12880714Y-15992000D02*
X12890238Y-15982476D01*
X12890238Y-15982476D02*
X12909286Y-15953905D01*
X12909286Y-15953905D02*
X12918810Y-15915809D01*
X12918810Y-15915809D02*
X12918810Y-15839619D01*
X12918810Y-15839619D02*
X12909286Y-15820571D01*
X12909286Y-15820571D02*
X12899762Y-15811048D01*
X12899762Y-15811048D02*
X12880714Y-15801524D01*
X12880714Y-15801524D02*
X12842619Y-15801524D01*
X12842619Y-15801524D02*
X12823572Y-15811048D01*
X12823572Y-15811048D02*
X12814048Y-15820571D01*
X12814048Y-15820571D02*
X12804524Y-15839619D01*
X12804524Y-15839619D02*
X12804524Y-15887238D01*
X12804524Y-15887238D02*
X12814048Y-15906286D01*
X12814048Y-15906286D02*
X12823572Y-15915809D01*
X12823572Y-15915809D02*
X12842619Y-15925333D01*
X12842619Y-15925333D02*
X12880714Y-15925333D01*
X12880714Y-15925333D02*
X12899762Y-15915809D01*
X12899762Y-15915809D02*
X12909286Y-15906286D01*
X12909286Y-15906286D02*
X12918810Y-15887238D01*
X13099762Y-15801524D02*
X13004524Y-15801524D01*
X13004524Y-15801524D02*
X12995000Y-15896762D01*
X12995000Y-15896762D02*
X13004524Y-15887238D01*
X13004524Y-15887238D02*
X13023572Y-15877714D01*
X13023572Y-15877714D02*
X13071191Y-15877714D01*
X13071191Y-15877714D02*
X13090238Y-15887238D01*
X13090238Y-15887238D02*
X13099762Y-15896762D01*
X13099762Y-15896762D02*
X13109286Y-15915809D01*
X13109286Y-15915809D02*
X13109286Y-15963428D01*
X13109286Y-15963428D02*
X13099762Y-15982476D01*
X13099762Y-15982476D02*
X13090238Y-15992000D01*
X13090238Y-15992000D02*
X13071191Y-16001524D01*
X13071191Y-16001524D02*
X13023572Y-16001524D01*
X13023572Y-16001524D02*
X13004524Y-15992000D01*
X13004524Y-15992000D02*
X12995000Y-15982476D01*
X13185476Y-15801524D02*
X13185476Y-15839619D01*
X13261667Y-15801524D02*
X13261667Y-15839619D01*
X13556905Y-16077714D02*
X13547381Y-16068190D01*
X13547381Y-16068190D02*
X13528334Y-16039619D01*
X13528334Y-16039619D02*
X13518810Y-16020571D01*
X13518810Y-16020571D02*
X13509286Y-15992000D01*
X13509286Y-15992000D02*
X13499762Y-15944381D01*
X13499762Y-15944381D02*
X13499762Y-15906286D01*
X13499762Y-15906286D02*
X13509286Y-15858667D01*
X13509286Y-15858667D02*
X13518810Y-15830095D01*
X13518810Y-15830095D02*
X13528334Y-15811048D01*
X13528334Y-15811048D02*
X13547381Y-15782476D01*
X13547381Y-15782476D02*
X13556905Y-15772952D01*
X13614048Y-15801524D02*
X13737857Y-15801524D01*
X13737857Y-15801524D02*
X13671191Y-15877714D01*
X13671191Y-15877714D02*
X13699762Y-15877714D01*
X13699762Y-15877714D02*
X13718810Y-15887238D01*
X13718810Y-15887238D02*
X13728334Y-15896762D01*
X13728334Y-15896762D02*
X13737857Y-15915809D01*
X13737857Y-15915809D02*
X13737857Y-15963428D01*
X13737857Y-15963428D02*
X13728334Y-15982476D01*
X13728334Y-15982476D02*
X13718810Y-15992000D01*
X13718810Y-15992000D02*
X13699762Y-16001524D01*
X13699762Y-16001524D02*
X13642619Y-16001524D01*
X13642619Y-16001524D02*
X13623572Y-15992000D01*
X13623572Y-15992000D02*
X13614048Y-15982476D01*
X13975953Y-16001524D02*
X13975953Y-15801524D01*
X14061667Y-16001524D02*
X14061667Y-15896762D01*
X14061667Y-15896762D02*
X14052143Y-15877714D01*
X14052143Y-15877714D02*
X14033096Y-15868190D01*
X14033096Y-15868190D02*
X14004524Y-15868190D01*
X14004524Y-15868190D02*
X13985476Y-15877714D01*
X13985476Y-15877714D02*
X13975953Y-15887238D01*
X14185476Y-16001524D02*
X14166429Y-15992000D01*
X14166429Y-15992000D02*
X14156905Y-15982476D01*
X14156905Y-15982476D02*
X14147381Y-15963428D01*
X14147381Y-15963428D02*
X14147381Y-15906286D01*
X14147381Y-15906286D02*
X14156905Y-15887238D01*
X14156905Y-15887238D02*
X14166429Y-15877714D01*
X14166429Y-15877714D02*
X14185476Y-15868190D01*
X14185476Y-15868190D02*
X14214048Y-15868190D01*
X14214048Y-15868190D02*
X14233096Y-15877714D01*
X14233096Y-15877714D02*
X14242619Y-15887238D01*
X14242619Y-15887238D02*
X14252143Y-15906286D01*
X14252143Y-15906286D02*
X14252143Y-15963428D01*
X14252143Y-15963428D02*
X14242619Y-15982476D01*
X14242619Y-15982476D02*
X14233096Y-15992000D01*
X14233096Y-15992000D02*
X14214048Y-16001524D01*
X14214048Y-16001524D02*
X14185476Y-16001524D01*
X14366429Y-16001524D02*
X14347381Y-15992000D01*
X14347381Y-15992000D02*
X14337857Y-15972952D01*
X14337857Y-15972952D02*
X14337857Y-15801524D01*
X14518810Y-15992000D02*
X14499762Y-16001524D01*
X14499762Y-16001524D02*
X14461667Y-16001524D01*
X14461667Y-16001524D02*
X14442619Y-15992000D01*
X14442619Y-15992000D02*
X14433096Y-15972952D01*
X14433096Y-15972952D02*
X14433096Y-15896762D01*
X14433096Y-15896762D02*
X14442619Y-15877714D01*
X14442619Y-15877714D02*
X14461667Y-15868190D01*
X14461667Y-15868190D02*
X14499762Y-15868190D01*
X14499762Y-15868190D02*
X14518810Y-15877714D01*
X14518810Y-15877714D02*
X14528334Y-15896762D01*
X14528334Y-15896762D02*
X14528334Y-15915809D01*
X14528334Y-15915809D02*
X14433096Y-15934857D01*
X14604524Y-15992000D02*
X14623572Y-16001524D01*
X14623572Y-16001524D02*
X14661667Y-16001524D01*
X14661667Y-16001524D02*
X14680715Y-15992000D01*
X14680715Y-15992000D02*
X14690238Y-15972952D01*
X14690238Y-15972952D02*
X14690238Y-15963428D01*
X14690238Y-15963428D02*
X14680715Y-15944381D01*
X14680715Y-15944381D02*
X14661667Y-15934857D01*
X14661667Y-15934857D02*
X14633096Y-15934857D01*
X14633096Y-15934857D02*
X14614048Y-15925333D01*
X14614048Y-15925333D02*
X14604524Y-15906286D01*
X14604524Y-15906286D02*
X14604524Y-15896762D01*
X14604524Y-15896762D02*
X14614048Y-15877714D01*
X14614048Y-15877714D02*
X14633096Y-15868190D01*
X14633096Y-15868190D02*
X14661667Y-15868190D01*
X14661667Y-15868190D02*
X14680715Y-15877714D01*
X14756905Y-16077714D02*
X14766429Y-16068190D01*
X14766429Y-16068190D02*
X14785477Y-16039619D01*
X14785477Y-16039619D02*
X14795000Y-16020571D01*
X14795000Y-16020571D02*
X14804524Y-15992000D01*
X14804524Y-15992000D02*
X14814048Y-15944381D01*
X14814048Y-15944381D02*
X14814048Y-15906286D01*
X14814048Y-15906286D02*
X14804524Y-15858667D01*
X14804524Y-15858667D02*
X14795000Y-15830095D01*
X14795000Y-15830095D02*
X14785477Y-15811048D01*
X14785477Y-15811048D02*
X14766429Y-15782476D01*
X14766429Y-15782476D02*
X14756905Y-15772952D01*
D14*
X9955000Y-16133000D02*
X9955000Y-16213000D01*
X9915000Y-16173000D02*
X9995000Y-16173000D01*
D11*
X10280714Y-16065524D02*
X10299762Y-16065524D01*
X10299762Y-16065524D02*
X10318810Y-16075048D01*
X10318810Y-16075048D02*
X10328333Y-16084571D01*
X10328333Y-16084571D02*
X10337857Y-16103619D01*
X10337857Y-16103619D02*
X10347381Y-16141714D01*
X10347381Y-16141714D02*
X10347381Y-16189333D01*
X10347381Y-16189333D02*
X10337857Y-16227428D01*
X10337857Y-16227428D02*
X10328333Y-16246476D01*
X10328333Y-16246476D02*
X10318810Y-16256000D01*
X10318810Y-16256000D02*
X10299762Y-16265524D01*
X10299762Y-16265524D02*
X10280714Y-16265524D01*
X10280714Y-16265524D02*
X10261667Y-16256000D01*
X10261667Y-16256000D02*
X10252143Y-16246476D01*
X10252143Y-16246476D02*
X10242619Y-16227428D01*
X10242619Y-16227428D02*
X10233095Y-16189333D01*
X10233095Y-16189333D02*
X10233095Y-16141714D01*
X10233095Y-16141714D02*
X10242619Y-16103619D01*
X10242619Y-16103619D02*
X10252143Y-16084571D01*
X10252143Y-16084571D02*
X10261667Y-16075048D01*
X10261667Y-16075048D02*
X10280714Y-16065524D01*
X10433095Y-16246476D02*
X10442619Y-16256000D01*
X10442619Y-16256000D02*
X10433095Y-16265524D01*
X10433095Y-16265524D02*
X10423571Y-16256000D01*
X10423571Y-16256000D02*
X10433095Y-16246476D01*
X10433095Y-16246476D02*
X10433095Y-16265524D01*
X10556905Y-16151238D02*
X10537857Y-16141714D01*
X10537857Y-16141714D02*
X10528333Y-16132190D01*
X10528333Y-16132190D02*
X10518810Y-16113143D01*
X10518810Y-16113143D02*
X10518810Y-16103619D01*
X10518810Y-16103619D02*
X10528333Y-16084571D01*
X10528333Y-16084571D02*
X10537857Y-16075048D01*
X10537857Y-16075048D02*
X10556905Y-16065524D01*
X10556905Y-16065524D02*
X10595000Y-16065524D01*
X10595000Y-16065524D02*
X10614048Y-16075048D01*
X10614048Y-16075048D02*
X10623571Y-16084571D01*
X10623571Y-16084571D02*
X10633095Y-16103619D01*
X10633095Y-16103619D02*
X10633095Y-16113143D01*
X10633095Y-16113143D02*
X10623571Y-16132190D01*
X10623571Y-16132190D02*
X10614048Y-16141714D01*
X10614048Y-16141714D02*
X10595000Y-16151238D01*
X10595000Y-16151238D02*
X10556905Y-16151238D01*
X10556905Y-16151238D02*
X10537857Y-16160762D01*
X10537857Y-16160762D02*
X10528333Y-16170286D01*
X10528333Y-16170286D02*
X10518810Y-16189333D01*
X10518810Y-16189333D02*
X10518810Y-16227428D01*
X10518810Y-16227428D02*
X10528333Y-16246476D01*
X10528333Y-16246476D02*
X10537857Y-16256000D01*
X10537857Y-16256000D02*
X10556905Y-16265524D01*
X10556905Y-16265524D02*
X10595000Y-16265524D01*
X10595000Y-16265524D02*
X10614048Y-16256000D01*
X10614048Y-16256000D02*
X10623571Y-16246476D01*
X10623571Y-16246476D02*
X10633095Y-16227428D01*
X10633095Y-16227428D02*
X10633095Y-16189333D01*
X10633095Y-16189333D02*
X10623571Y-16170286D01*
X10623571Y-16170286D02*
X10614048Y-16160762D01*
X10614048Y-16160762D02*
X10595000Y-16151238D01*
X10756905Y-16065524D02*
X10775952Y-16065524D01*
X10775952Y-16065524D02*
X10795000Y-16075048D01*
X10795000Y-16075048D02*
X10804524Y-16084571D01*
X10804524Y-16084571D02*
X10814048Y-16103619D01*
X10814048Y-16103619D02*
X10823571Y-16141714D01*
X10823571Y-16141714D02*
X10823571Y-16189333D01*
X10823571Y-16189333D02*
X10814048Y-16227428D01*
X10814048Y-16227428D02*
X10804524Y-16246476D01*
X10804524Y-16246476D02*
X10795000Y-16256000D01*
X10795000Y-16256000D02*
X10775952Y-16265524D01*
X10775952Y-16265524D02*
X10756905Y-16265524D01*
X10756905Y-16265524D02*
X10737857Y-16256000D01*
X10737857Y-16256000D02*
X10728333Y-16246476D01*
X10728333Y-16246476D02*
X10718810Y-16227428D01*
X10718810Y-16227428D02*
X10709286Y-16189333D01*
X10709286Y-16189333D02*
X10709286Y-16141714D01*
X10709286Y-16141714D02*
X10718810Y-16103619D01*
X10718810Y-16103619D02*
X10728333Y-16084571D01*
X10728333Y-16084571D02*
X10737857Y-16075048D01*
X10737857Y-16075048D02*
X10756905Y-16065524D01*
X10947381Y-16065524D02*
X10966429Y-16065524D01*
X10966429Y-16065524D02*
X10985476Y-16075048D01*
X10985476Y-16075048D02*
X10995000Y-16084571D01*
X10995000Y-16084571D02*
X11004524Y-16103619D01*
X11004524Y-16103619D02*
X11014048Y-16141714D01*
X11014048Y-16141714D02*
X11014048Y-16189333D01*
X11014048Y-16189333D02*
X11004524Y-16227428D01*
X11004524Y-16227428D02*
X10995000Y-16246476D01*
X10995000Y-16246476D02*
X10985476Y-16256000D01*
X10985476Y-16256000D02*
X10966429Y-16265524D01*
X10966429Y-16265524D02*
X10947381Y-16265524D01*
X10947381Y-16265524D02*
X10928333Y-16256000D01*
X10928333Y-16256000D02*
X10918810Y-16246476D01*
X10918810Y-16246476D02*
X10909286Y-16227428D01*
X10909286Y-16227428D02*
X10899762Y-16189333D01*
X10899762Y-16189333D02*
X10899762Y-16141714D01*
X10899762Y-16141714D02*
X10909286Y-16103619D01*
X10909286Y-16103619D02*
X10918810Y-16084571D01*
X10918810Y-16084571D02*
X10928333Y-16075048D01*
X10928333Y-16075048D02*
X10947381Y-16065524D01*
X11099762Y-16265524D02*
X11099762Y-16132190D01*
X11099762Y-16151238D02*
X11109286Y-16141714D01*
X11109286Y-16141714D02*
X11128333Y-16132190D01*
X11128333Y-16132190D02*
X11156905Y-16132190D01*
X11156905Y-16132190D02*
X11175952Y-16141714D01*
X11175952Y-16141714D02*
X11185476Y-16160762D01*
X11185476Y-16160762D02*
X11185476Y-16265524D01*
X11185476Y-16160762D02*
X11195000Y-16141714D01*
X11195000Y-16141714D02*
X11214048Y-16132190D01*
X11214048Y-16132190D02*
X11242619Y-16132190D01*
X11242619Y-16132190D02*
X11261667Y-16141714D01*
X11261667Y-16141714D02*
X11271190Y-16160762D01*
X11271190Y-16160762D02*
X11271190Y-16265524D01*
X11366429Y-16265524D02*
X11366429Y-16132190D01*
X11366429Y-16151238D02*
X11375952Y-16141714D01*
X11375952Y-16141714D02*
X11395000Y-16132190D01*
X11395000Y-16132190D02*
X11423571Y-16132190D01*
X11423571Y-16132190D02*
X11442619Y-16141714D01*
X11442619Y-16141714D02*
X11452143Y-16160762D01*
X11452143Y-16160762D02*
X11452143Y-16265524D01*
X11452143Y-16160762D02*
X11461667Y-16141714D01*
X11461667Y-16141714D02*
X11480714Y-16132190D01*
X11480714Y-16132190D02*
X11509286Y-16132190D01*
X11509286Y-16132190D02*
X11528333Y-16141714D01*
X11528333Y-16141714D02*
X11537857Y-16160762D01*
X11537857Y-16160762D02*
X11537857Y-16265524D01*
X11928333Y-16056000D02*
X11756905Y-16313143D01*
X12185476Y-16065524D02*
X12204524Y-16065524D01*
X12204524Y-16065524D02*
X12223572Y-16075048D01*
X12223572Y-16075048D02*
X12233095Y-16084571D01*
X12233095Y-16084571D02*
X12242619Y-16103619D01*
X12242619Y-16103619D02*
X12252143Y-16141714D01*
X12252143Y-16141714D02*
X12252143Y-16189333D01*
X12252143Y-16189333D02*
X12242619Y-16227428D01*
X12242619Y-16227428D02*
X12233095Y-16246476D01*
X12233095Y-16246476D02*
X12223572Y-16256000D01*
X12223572Y-16256000D02*
X12204524Y-16265524D01*
X12204524Y-16265524D02*
X12185476Y-16265524D01*
X12185476Y-16265524D02*
X12166429Y-16256000D01*
X12166429Y-16256000D02*
X12156905Y-16246476D01*
X12156905Y-16246476D02*
X12147381Y-16227428D01*
X12147381Y-16227428D02*
X12137857Y-16189333D01*
X12137857Y-16189333D02*
X12137857Y-16141714D01*
X12137857Y-16141714D02*
X12147381Y-16103619D01*
X12147381Y-16103619D02*
X12156905Y-16084571D01*
X12156905Y-16084571D02*
X12166429Y-16075048D01*
X12166429Y-16075048D02*
X12185476Y-16065524D01*
X12337857Y-16246476D02*
X12347381Y-16256000D01*
X12347381Y-16256000D02*
X12337857Y-16265524D01*
X12337857Y-16265524D02*
X12328333Y-16256000D01*
X12328333Y-16256000D02*
X12337857Y-16246476D01*
X12337857Y-16246476D02*
X12337857Y-16265524D01*
X12471191Y-16065524D02*
X12490238Y-16065524D01*
X12490238Y-16065524D02*
X12509286Y-16075048D01*
X12509286Y-16075048D02*
X12518810Y-16084571D01*
X12518810Y-16084571D02*
X12528333Y-16103619D01*
X12528333Y-16103619D02*
X12537857Y-16141714D01*
X12537857Y-16141714D02*
X12537857Y-16189333D01*
X12537857Y-16189333D02*
X12528333Y-16227428D01*
X12528333Y-16227428D02*
X12518810Y-16246476D01*
X12518810Y-16246476D02*
X12509286Y-16256000D01*
X12509286Y-16256000D02*
X12490238Y-16265524D01*
X12490238Y-16265524D02*
X12471191Y-16265524D01*
X12471191Y-16265524D02*
X12452143Y-16256000D01*
X12452143Y-16256000D02*
X12442619Y-16246476D01*
X12442619Y-16246476D02*
X12433095Y-16227428D01*
X12433095Y-16227428D02*
X12423572Y-16189333D01*
X12423572Y-16189333D02*
X12423572Y-16141714D01*
X12423572Y-16141714D02*
X12433095Y-16103619D01*
X12433095Y-16103619D02*
X12442619Y-16084571D01*
X12442619Y-16084571D02*
X12452143Y-16075048D01*
X12452143Y-16075048D02*
X12471191Y-16065524D01*
X12604524Y-16065524D02*
X12728333Y-16065524D01*
X12728333Y-16065524D02*
X12661667Y-16141714D01*
X12661667Y-16141714D02*
X12690238Y-16141714D01*
X12690238Y-16141714D02*
X12709286Y-16151238D01*
X12709286Y-16151238D02*
X12718810Y-16160762D01*
X12718810Y-16160762D02*
X12728333Y-16179809D01*
X12728333Y-16179809D02*
X12728333Y-16227428D01*
X12728333Y-16227428D02*
X12718810Y-16246476D01*
X12718810Y-16246476D02*
X12709286Y-16256000D01*
X12709286Y-16256000D02*
X12690238Y-16265524D01*
X12690238Y-16265524D02*
X12633095Y-16265524D01*
X12633095Y-16265524D02*
X12614048Y-16256000D01*
X12614048Y-16256000D02*
X12604524Y-16246476D01*
X12918810Y-16265524D02*
X12804524Y-16265524D01*
X12861667Y-16265524D02*
X12861667Y-16065524D01*
X12861667Y-16065524D02*
X12842619Y-16094095D01*
X12842619Y-16094095D02*
X12823572Y-16113143D01*
X12823572Y-16113143D02*
X12804524Y-16122667D01*
X13099762Y-16065524D02*
X13004524Y-16065524D01*
X13004524Y-16065524D02*
X12995000Y-16160762D01*
X12995000Y-16160762D02*
X13004524Y-16151238D01*
X13004524Y-16151238D02*
X13023572Y-16141714D01*
X13023572Y-16141714D02*
X13071191Y-16141714D01*
X13071191Y-16141714D02*
X13090238Y-16151238D01*
X13090238Y-16151238D02*
X13099762Y-16160762D01*
X13099762Y-16160762D02*
X13109286Y-16179809D01*
X13109286Y-16179809D02*
X13109286Y-16227428D01*
X13109286Y-16227428D02*
X13099762Y-16246476D01*
X13099762Y-16246476D02*
X13090238Y-16256000D01*
X13090238Y-16256000D02*
X13071191Y-16265524D01*
X13071191Y-16265524D02*
X13023572Y-16265524D01*
X13023572Y-16265524D02*
X13004524Y-16256000D01*
X13004524Y-16256000D02*
X12995000Y-16246476D01*
X13185476Y-16065524D02*
X13185476Y-16103619D01*
X13261667Y-16065524D02*
X13261667Y-16103619D01*
X13556905Y-16341714D02*
X13547381Y-16332190D01*
X13547381Y-16332190D02*
X13528334Y-16303619D01*
X13528334Y-16303619D02*
X13518810Y-16284571D01*
X13518810Y-16284571D02*
X13509286Y-16256000D01*
X13509286Y-16256000D02*
X13499762Y-16208381D01*
X13499762Y-16208381D02*
X13499762Y-16170286D01*
X13499762Y-16170286D02*
X13509286Y-16122667D01*
X13509286Y-16122667D02*
X13518810Y-16094095D01*
X13518810Y-16094095D02*
X13528334Y-16075048D01*
X13528334Y-16075048D02*
X13547381Y-16046476D01*
X13547381Y-16046476D02*
X13556905Y-16036952D01*
X13728334Y-16065524D02*
X13633095Y-16065524D01*
X13633095Y-16065524D02*
X13623572Y-16160762D01*
X13623572Y-16160762D02*
X13633095Y-16151238D01*
X13633095Y-16151238D02*
X13652143Y-16141714D01*
X13652143Y-16141714D02*
X13699762Y-16141714D01*
X13699762Y-16141714D02*
X13718810Y-16151238D01*
X13718810Y-16151238D02*
X13728334Y-16160762D01*
X13728334Y-16160762D02*
X13737857Y-16179809D01*
X13737857Y-16179809D02*
X13737857Y-16227428D01*
X13737857Y-16227428D02*
X13728334Y-16246476D01*
X13728334Y-16246476D02*
X13718810Y-16256000D01*
X13718810Y-16256000D02*
X13699762Y-16265524D01*
X13699762Y-16265524D02*
X13652143Y-16265524D01*
X13652143Y-16265524D02*
X13633095Y-16256000D01*
X13633095Y-16256000D02*
X13623572Y-16246476D01*
X13861667Y-16065524D02*
X13880715Y-16065524D01*
X13880715Y-16065524D02*
X13899762Y-16075048D01*
X13899762Y-16075048D02*
X13909286Y-16084571D01*
X13909286Y-16084571D02*
X13918810Y-16103619D01*
X13918810Y-16103619D02*
X13928334Y-16141714D01*
X13928334Y-16141714D02*
X13928334Y-16189333D01*
X13928334Y-16189333D02*
X13918810Y-16227428D01*
X13918810Y-16227428D02*
X13909286Y-16246476D01*
X13909286Y-16246476D02*
X13899762Y-16256000D01*
X13899762Y-16256000D02*
X13880715Y-16265524D01*
X13880715Y-16265524D02*
X13861667Y-16265524D01*
X13861667Y-16265524D02*
X13842619Y-16256000D01*
X13842619Y-16256000D02*
X13833095Y-16246476D01*
X13833095Y-16246476D02*
X13823572Y-16227428D01*
X13823572Y-16227428D02*
X13814048Y-16189333D01*
X13814048Y-16189333D02*
X13814048Y-16141714D01*
X13814048Y-16141714D02*
X13823572Y-16103619D01*
X13823572Y-16103619D02*
X13833095Y-16084571D01*
X13833095Y-16084571D02*
X13842619Y-16075048D01*
X13842619Y-16075048D02*
X13861667Y-16065524D01*
X14166429Y-16265524D02*
X14166429Y-16065524D01*
X14252143Y-16265524D02*
X14252143Y-16160762D01*
X14252143Y-16160762D02*
X14242619Y-16141714D01*
X14242619Y-16141714D02*
X14223572Y-16132190D01*
X14223572Y-16132190D02*
X14195000Y-16132190D01*
X14195000Y-16132190D02*
X14175953Y-16141714D01*
X14175953Y-16141714D02*
X14166429Y-16151238D01*
X14375953Y-16265524D02*
X14356905Y-16256000D01*
X14356905Y-16256000D02*
X14347381Y-16246476D01*
X14347381Y-16246476D02*
X14337857Y-16227428D01*
X14337857Y-16227428D02*
X14337857Y-16170286D01*
X14337857Y-16170286D02*
X14347381Y-16151238D01*
X14347381Y-16151238D02*
X14356905Y-16141714D01*
X14356905Y-16141714D02*
X14375953Y-16132190D01*
X14375953Y-16132190D02*
X14404524Y-16132190D01*
X14404524Y-16132190D02*
X14423572Y-16141714D01*
X14423572Y-16141714D02*
X14433096Y-16151238D01*
X14433096Y-16151238D02*
X14442619Y-16170286D01*
X14442619Y-16170286D02*
X14442619Y-16227428D01*
X14442619Y-16227428D02*
X14433096Y-16246476D01*
X14433096Y-16246476D02*
X14423572Y-16256000D01*
X14423572Y-16256000D02*
X14404524Y-16265524D01*
X14404524Y-16265524D02*
X14375953Y-16265524D01*
X14556905Y-16265524D02*
X14537857Y-16256000D01*
X14537857Y-16256000D02*
X14528334Y-16236952D01*
X14528334Y-16236952D02*
X14528334Y-16065524D01*
X14709286Y-16256000D02*
X14690238Y-16265524D01*
X14690238Y-16265524D02*
X14652143Y-16265524D01*
X14652143Y-16265524D02*
X14633096Y-16256000D01*
X14633096Y-16256000D02*
X14623572Y-16236952D01*
X14623572Y-16236952D02*
X14623572Y-16160762D01*
X14623572Y-16160762D02*
X14633096Y-16141714D01*
X14633096Y-16141714D02*
X14652143Y-16132190D01*
X14652143Y-16132190D02*
X14690238Y-16132190D01*
X14690238Y-16132190D02*
X14709286Y-16141714D01*
X14709286Y-16141714D02*
X14718810Y-16160762D01*
X14718810Y-16160762D02*
X14718810Y-16179809D01*
X14718810Y-16179809D02*
X14623572Y-16198857D01*
X14795000Y-16256000D02*
X14814048Y-16265524D01*
X14814048Y-16265524D02*
X14852143Y-16265524D01*
X14852143Y-16265524D02*
X14871191Y-16256000D01*
X14871191Y-16256000D02*
X14880715Y-16236952D01*
X14880715Y-16236952D02*
X14880715Y-16227428D01*
X14880715Y-16227428D02*
X14871191Y-16208381D01*
X14871191Y-16208381D02*
X14852143Y-16198857D01*
X14852143Y-16198857D02*
X14823572Y-16198857D01*
X14823572Y-16198857D02*
X14804524Y-16189333D01*
X14804524Y-16189333D02*
X14795000Y-16170286D01*
X14795000Y-16170286D02*
X14795000Y-16160762D01*
X14795000Y-16160762D02*
X14804524Y-16141714D01*
X14804524Y-16141714D02*
X14823572Y-16132190D01*
X14823572Y-16132190D02*
X14852143Y-16132190D01*
X14852143Y-16132190D02*
X14871191Y-16141714D01*
X14947381Y-16341714D02*
X14956905Y-16332190D01*
X14956905Y-16332190D02*
X14975953Y-16303619D01*
X14975953Y-16303619D02*
X14985477Y-16284571D01*
X14985477Y-16284571D02*
X14995000Y-16256000D01*
X14995000Y-16256000D02*
X15004524Y-16208381D01*
X15004524Y-16208381D02*
X15004524Y-16170286D01*
X15004524Y-16170286D02*
X14995000Y-16122667D01*
X14995000Y-16122667D02*
X14985477Y-16094095D01*
X14985477Y-16094095D02*
X14975953Y-16075048D01*
X14975953Y-16075048D02*
X14956905Y-16046476D01*
X14956905Y-16046476D02*
X14947381Y-16036952D01*
D15*
X9981820Y-16468820D02*
X9981820Y-16405180D01*
X9918180Y-16405180D01*
X9918180Y-16468820D01*
X9981820Y-16468820D01*
D11*
X10280714Y-16329524D02*
X10299762Y-16329524D01*
X10299762Y-16329524D02*
X10318810Y-16339048D01*
X10318810Y-16339048D02*
X10328333Y-16348571D01*
X10328333Y-16348571D02*
X10337857Y-16367619D01*
X10337857Y-16367619D02*
X10347381Y-16405714D01*
X10347381Y-16405714D02*
X10347381Y-16453333D01*
X10347381Y-16453333D02*
X10337857Y-16491428D01*
X10337857Y-16491428D02*
X10328333Y-16510476D01*
X10328333Y-16510476D02*
X10318810Y-16520000D01*
X10318810Y-16520000D02*
X10299762Y-16529524D01*
X10299762Y-16529524D02*
X10280714Y-16529524D01*
X10280714Y-16529524D02*
X10261667Y-16520000D01*
X10261667Y-16520000D02*
X10252143Y-16510476D01*
X10252143Y-16510476D02*
X10242619Y-16491428D01*
X10242619Y-16491428D02*
X10233095Y-16453333D01*
X10233095Y-16453333D02*
X10233095Y-16405714D01*
X10233095Y-16405714D02*
X10242619Y-16367619D01*
X10242619Y-16367619D02*
X10252143Y-16348571D01*
X10252143Y-16348571D02*
X10261667Y-16339048D01*
X10261667Y-16339048D02*
X10280714Y-16329524D01*
X10433095Y-16510476D02*
X10442619Y-16520000D01*
X10442619Y-16520000D02*
X10433095Y-16529524D01*
X10433095Y-16529524D02*
X10423571Y-16520000D01*
X10423571Y-16520000D02*
X10433095Y-16510476D01*
X10433095Y-16510476D02*
X10433095Y-16529524D01*
X10537857Y-16529524D02*
X10575952Y-16529524D01*
X10575952Y-16529524D02*
X10595000Y-16520000D01*
X10595000Y-16520000D02*
X10604524Y-16510476D01*
X10604524Y-16510476D02*
X10623571Y-16481905D01*
X10623571Y-16481905D02*
X10633095Y-16443809D01*
X10633095Y-16443809D02*
X10633095Y-16367619D01*
X10633095Y-16367619D02*
X10623571Y-16348571D01*
X10623571Y-16348571D02*
X10614048Y-16339048D01*
X10614048Y-16339048D02*
X10595000Y-16329524D01*
X10595000Y-16329524D02*
X10556905Y-16329524D01*
X10556905Y-16329524D02*
X10537857Y-16339048D01*
X10537857Y-16339048D02*
X10528333Y-16348571D01*
X10528333Y-16348571D02*
X10518810Y-16367619D01*
X10518810Y-16367619D02*
X10518810Y-16415238D01*
X10518810Y-16415238D02*
X10528333Y-16434286D01*
X10528333Y-16434286D02*
X10537857Y-16443809D01*
X10537857Y-16443809D02*
X10556905Y-16453333D01*
X10556905Y-16453333D02*
X10595000Y-16453333D01*
X10595000Y-16453333D02*
X10614048Y-16443809D01*
X10614048Y-16443809D02*
X10623571Y-16434286D01*
X10623571Y-16434286D02*
X10633095Y-16415238D01*
X10756905Y-16329524D02*
X10775952Y-16329524D01*
X10775952Y-16329524D02*
X10795000Y-16339048D01*
X10795000Y-16339048D02*
X10804524Y-16348571D01*
X10804524Y-16348571D02*
X10814048Y-16367619D01*
X10814048Y-16367619D02*
X10823571Y-16405714D01*
X10823571Y-16405714D02*
X10823571Y-16453333D01*
X10823571Y-16453333D02*
X10814048Y-16491428D01*
X10814048Y-16491428D02*
X10804524Y-16510476D01*
X10804524Y-16510476D02*
X10795000Y-16520000D01*
X10795000Y-16520000D02*
X10775952Y-16529524D01*
X10775952Y-16529524D02*
X10756905Y-16529524D01*
X10756905Y-16529524D02*
X10737857Y-16520000D01*
X10737857Y-16520000D02*
X10728333Y-16510476D01*
X10728333Y-16510476D02*
X10718810Y-16491428D01*
X10718810Y-16491428D02*
X10709286Y-16453333D01*
X10709286Y-16453333D02*
X10709286Y-16405714D01*
X10709286Y-16405714D02*
X10718810Y-16367619D01*
X10718810Y-16367619D02*
X10728333Y-16348571D01*
X10728333Y-16348571D02*
X10737857Y-16339048D01*
X10737857Y-16339048D02*
X10756905Y-16329524D01*
X10947381Y-16329524D02*
X10966429Y-16329524D01*
X10966429Y-16329524D02*
X10985476Y-16339048D01*
X10985476Y-16339048D02*
X10995000Y-16348571D01*
X10995000Y-16348571D02*
X11004524Y-16367619D01*
X11004524Y-16367619D02*
X11014048Y-16405714D01*
X11014048Y-16405714D02*
X11014048Y-16453333D01*
X11014048Y-16453333D02*
X11004524Y-16491428D01*
X11004524Y-16491428D02*
X10995000Y-16510476D01*
X10995000Y-16510476D02*
X10985476Y-16520000D01*
X10985476Y-16520000D02*
X10966429Y-16529524D01*
X10966429Y-16529524D02*
X10947381Y-16529524D01*
X10947381Y-16529524D02*
X10928333Y-16520000D01*
X10928333Y-16520000D02*
X10918810Y-16510476D01*
X10918810Y-16510476D02*
X10909286Y-16491428D01*
X10909286Y-16491428D02*
X10899762Y-16453333D01*
X10899762Y-16453333D02*
X10899762Y-16405714D01*
X10899762Y-16405714D02*
X10909286Y-16367619D01*
X10909286Y-16367619D02*
X10918810Y-16348571D01*
X10918810Y-16348571D02*
X10928333Y-16339048D01*
X10928333Y-16339048D02*
X10947381Y-16329524D01*
X11099762Y-16529524D02*
X11099762Y-16396190D01*
X11099762Y-16415238D02*
X11109286Y-16405714D01*
X11109286Y-16405714D02*
X11128333Y-16396190D01*
X11128333Y-16396190D02*
X11156905Y-16396190D01*
X11156905Y-16396190D02*
X11175952Y-16405714D01*
X11175952Y-16405714D02*
X11185476Y-16424762D01*
X11185476Y-16424762D02*
X11185476Y-16529524D01*
X11185476Y-16424762D02*
X11195000Y-16405714D01*
X11195000Y-16405714D02*
X11214048Y-16396190D01*
X11214048Y-16396190D02*
X11242619Y-16396190D01*
X11242619Y-16396190D02*
X11261667Y-16405714D01*
X11261667Y-16405714D02*
X11271190Y-16424762D01*
X11271190Y-16424762D02*
X11271190Y-16529524D01*
X11366429Y-16529524D02*
X11366429Y-16396190D01*
X11366429Y-16415238D02*
X11375952Y-16405714D01*
X11375952Y-16405714D02*
X11395000Y-16396190D01*
X11395000Y-16396190D02*
X11423571Y-16396190D01*
X11423571Y-16396190D02*
X11442619Y-16405714D01*
X11442619Y-16405714D02*
X11452143Y-16424762D01*
X11452143Y-16424762D02*
X11452143Y-16529524D01*
X11452143Y-16424762D02*
X11461667Y-16405714D01*
X11461667Y-16405714D02*
X11480714Y-16396190D01*
X11480714Y-16396190D02*
X11509286Y-16396190D01*
X11509286Y-16396190D02*
X11528333Y-16405714D01*
X11528333Y-16405714D02*
X11537857Y-16424762D01*
X11537857Y-16424762D02*
X11537857Y-16529524D01*
X11928333Y-16320000D02*
X11756905Y-16577143D01*
X12185476Y-16329524D02*
X12204524Y-16329524D01*
X12204524Y-16329524D02*
X12223572Y-16339048D01*
X12223572Y-16339048D02*
X12233095Y-16348571D01*
X12233095Y-16348571D02*
X12242619Y-16367619D01*
X12242619Y-16367619D02*
X12252143Y-16405714D01*
X12252143Y-16405714D02*
X12252143Y-16453333D01*
X12252143Y-16453333D02*
X12242619Y-16491428D01*
X12242619Y-16491428D02*
X12233095Y-16510476D01*
X12233095Y-16510476D02*
X12223572Y-16520000D01*
X12223572Y-16520000D02*
X12204524Y-16529524D01*
X12204524Y-16529524D02*
X12185476Y-16529524D01*
X12185476Y-16529524D02*
X12166429Y-16520000D01*
X12166429Y-16520000D02*
X12156905Y-16510476D01*
X12156905Y-16510476D02*
X12147381Y-16491428D01*
X12147381Y-16491428D02*
X12137857Y-16453333D01*
X12137857Y-16453333D02*
X12137857Y-16405714D01*
X12137857Y-16405714D02*
X12147381Y-16367619D01*
X12147381Y-16367619D02*
X12156905Y-16348571D01*
X12156905Y-16348571D02*
X12166429Y-16339048D01*
X12166429Y-16339048D02*
X12185476Y-16329524D01*
X12337857Y-16510476D02*
X12347381Y-16520000D01*
X12347381Y-16520000D02*
X12337857Y-16529524D01*
X12337857Y-16529524D02*
X12328333Y-16520000D01*
X12328333Y-16520000D02*
X12337857Y-16510476D01*
X12337857Y-16510476D02*
X12337857Y-16529524D01*
X12471191Y-16329524D02*
X12490238Y-16329524D01*
X12490238Y-16329524D02*
X12509286Y-16339048D01*
X12509286Y-16339048D02*
X12518810Y-16348571D01*
X12518810Y-16348571D02*
X12528333Y-16367619D01*
X12528333Y-16367619D02*
X12537857Y-16405714D01*
X12537857Y-16405714D02*
X12537857Y-16453333D01*
X12537857Y-16453333D02*
X12528333Y-16491428D01*
X12528333Y-16491428D02*
X12518810Y-16510476D01*
X12518810Y-16510476D02*
X12509286Y-16520000D01*
X12509286Y-16520000D02*
X12490238Y-16529524D01*
X12490238Y-16529524D02*
X12471191Y-16529524D01*
X12471191Y-16529524D02*
X12452143Y-16520000D01*
X12452143Y-16520000D02*
X12442619Y-16510476D01*
X12442619Y-16510476D02*
X12433095Y-16491428D01*
X12433095Y-16491428D02*
X12423572Y-16453333D01*
X12423572Y-16453333D02*
X12423572Y-16405714D01*
X12423572Y-16405714D02*
X12433095Y-16367619D01*
X12433095Y-16367619D02*
X12442619Y-16348571D01*
X12442619Y-16348571D02*
X12452143Y-16339048D01*
X12452143Y-16339048D02*
X12471191Y-16329524D01*
X12604524Y-16329524D02*
X12728333Y-16329524D01*
X12728333Y-16329524D02*
X12661667Y-16405714D01*
X12661667Y-16405714D02*
X12690238Y-16405714D01*
X12690238Y-16405714D02*
X12709286Y-16415238D01*
X12709286Y-16415238D02*
X12718810Y-16424762D01*
X12718810Y-16424762D02*
X12728333Y-16443809D01*
X12728333Y-16443809D02*
X12728333Y-16491428D01*
X12728333Y-16491428D02*
X12718810Y-16510476D01*
X12718810Y-16510476D02*
X12709286Y-16520000D01*
X12709286Y-16520000D02*
X12690238Y-16529524D01*
X12690238Y-16529524D02*
X12633095Y-16529524D01*
X12633095Y-16529524D02*
X12614048Y-16520000D01*
X12614048Y-16520000D02*
X12604524Y-16510476D01*
X12909286Y-16329524D02*
X12814048Y-16329524D01*
X12814048Y-16329524D02*
X12804524Y-16424762D01*
X12804524Y-16424762D02*
X12814048Y-16415238D01*
X12814048Y-16415238D02*
X12833095Y-16405714D01*
X12833095Y-16405714D02*
X12880714Y-16405714D01*
X12880714Y-16405714D02*
X12899762Y-16415238D01*
X12899762Y-16415238D02*
X12909286Y-16424762D01*
X12909286Y-16424762D02*
X12918810Y-16443809D01*
X12918810Y-16443809D02*
X12918810Y-16491428D01*
X12918810Y-16491428D02*
X12909286Y-16510476D01*
X12909286Y-16510476D02*
X12899762Y-16520000D01*
X12899762Y-16520000D02*
X12880714Y-16529524D01*
X12880714Y-16529524D02*
X12833095Y-16529524D01*
X12833095Y-16529524D02*
X12814048Y-16520000D01*
X12814048Y-16520000D02*
X12804524Y-16510476D01*
X13090238Y-16396190D02*
X13090238Y-16529524D01*
X13042619Y-16320000D02*
X12995000Y-16462857D01*
X12995000Y-16462857D02*
X13118810Y-16462857D01*
X13185476Y-16329524D02*
X13185476Y-16367619D01*
X13261667Y-16329524D02*
X13261667Y-16367619D01*
X13556905Y-16605714D02*
X13547381Y-16596190D01*
X13547381Y-16596190D02*
X13528334Y-16567619D01*
X13528334Y-16567619D02*
X13518810Y-16548571D01*
X13518810Y-16548571D02*
X13509286Y-16520000D01*
X13509286Y-16520000D02*
X13499762Y-16472381D01*
X13499762Y-16472381D02*
X13499762Y-16434286D01*
X13499762Y-16434286D02*
X13509286Y-16386667D01*
X13509286Y-16386667D02*
X13518810Y-16358095D01*
X13518810Y-16358095D02*
X13528334Y-16339048D01*
X13528334Y-16339048D02*
X13547381Y-16310476D01*
X13547381Y-16310476D02*
X13556905Y-16300952D01*
X13718810Y-16329524D02*
X13680714Y-16329524D01*
X13680714Y-16329524D02*
X13661667Y-16339048D01*
X13661667Y-16339048D02*
X13652143Y-16348571D01*
X13652143Y-16348571D02*
X13633095Y-16377143D01*
X13633095Y-16377143D02*
X13623572Y-16415238D01*
X13623572Y-16415238D02*
X13623572Y-16491428D01*
X13623572Y-16491428D02*
X13633095Y-16510476D01*
X13633095Y-16510476D02*
X13642619Y-16520000D01*
X13642619Y-16520000D02*
X13661667Y-16529524D01*
X13661667Y-16529524D02*
X13699762Y-16529524D01*
X13699762Y-16529524D02*
X13718810Y-16520000D01*
X13718810Y-16520000D02*
X13728334Y-16510476D01*
X13728334Y-16510476D02*
X13737857Y-16491428D01*
X13737857Y-16491428D02*
X13737857Y-16443809D01*
X13737857Y-16443809D02*
X13728334Y-16424762D01*
X13728334Y-16424762D02*
X13718810Y-16415238D01*
X13718810Y-16415238D02*
X13699762Y-16405714D01*
X13699762Y-16405714D02*
X13661667Y-16405714D01*
X13661667Y-16405714D02*
X13642619Y-16415238D01*
X13642619Y-16415238D02*
X13633095Y-16424762D01*
X13633095Y-16424762D02*
X13623572Y-16443809D01*
X13975953Y-16529524D02*
X13975953Y-16329524D01*
X14061667Y-16529524D02*
X14061667Y-16424762D01*
X14061667Y-16424762D02*
X14052143Y-16405714D01*
X14052143Y-16405714D02*
X14033096Y-16396190D01*
X14033096Y-16396190D02*
X14004524Y-16396190D01*
X14004524Y-16396190D02*
X13985476Y-16405714D01*
X13985476Y-16405714D02*
X13975953Y-16415238D01*
X14185476Y-16529524D02*
X14166429Y-16520000D01*
X14166429Y-16520000D02*
X14156905Y-16510476D01*
X14156905Y-16510476D02*
X14147381Y-16491428D01*
X14147381Y-16491428D02*
X14147381Y-16434286D01*
X14147381Y-16434286D02*
X14156905Y-16415238D01*
X14156905Y-16415238D02*
X14166429Y-16405714D01*
X14166429Y-16405714D02*
X14185476Y-16396190D01*
X14185476Y-16396190D02*
X14214048Y-16396190D01*
X14214048Y-16396190D02*
X14233096Y-16405714D01*
X14233096Y-16405714D02*
X14242619Y-16415238D01*
X14242619Y-16415238D02*
X14252143Y-16434286D01*
X14252143Y-16434286D02*
X14252143Y-16491428D01*
X14252143Y-16491428D02*
X14242619Y-16510476D01*
X14242619Y-16510476D02*
X14233096Y-16520000D01*
X14233096Y-16520000D02*
X14214048Y-16529524D01*
X14214048Y-16529524D02*
X14185476Y-16529524D01*
X14366429Y-16529524D02*
X14347381Y-16520000D01*
X14347381Y-16520000D02*
X14337857Y-16500952D01*
X14337857Y-16500952D02*
X14337857Y-16329524D01*
X14518810Y-16520000D02*
X14499762Y-16529524D01*
X14499762Y-16529524D02*
X14461667Y-16529524D01*
X14461667Y-16529524D02*
X14442619Y-16520000D01*
X14442619Y-16520000D02*
X14433096Y-16500952D01*
X14433096Y-16500952D02*
X14433096Y-16424762D01*
X14433096Y-16424762D02*
X14442619Y-16405714D01*
X14442619Y-16405714D02*
X14461667Y-16396190D01*
X14461667Y-16396190D02*
X14499762Y-16396190D01*
X14499762Y-16396190D02*
X14518810Y-16405714D01*
X14518810Y-16405714D02*
X14528334Y-16424762D01*
X14528334Y-16424762D02*
X14528334Y-16443809D01*
X14528334Y-16443809D02*
X14433096Y-16462857D01*
X14604524Y-16520000D02*
X14623572Y-16529524D01*
X14623572Y-16529524D02*
X14661667Y-16529524D01*
X14661667Y-16529524D02*
X14680715Y-16520000D01*
X14680715Y-16520000D02*
X14690238Y-16500952D01*
X14690238Y-16500952D02*
X14690238Y-16491428D01*
X14690238Y-16491428D02*
X14680715Y-16472381D01*
X14680715Y-16472381D02*
X14661667Y-16462857D01*
X14661667Y-16462857D02*
X14633096Y-16462857D01*
X14633096Y-16462857D02*
X14614048Y-16453333D01*
X14614048Y-16453333D02*
X14604524Y-16434286D01*
X14604524Y-16434286D02*
X14604524Y-16424762D01*
X14604524Y-16424762D02*
X14614048Y-16405714D01*
X14614048Y-16405714D02*
X14633096Y-16396190D01*
X14633096Y-16396190D02*
X14661667Y-16396190D01*
X14661667Y-16396190D02*
X14680715Y-16405714D01*
X14756905Y-16605714D02*
X14766429Y-16596190D01*
X14766429Y-16596190D02*
X14785477Y-16567619D01*
X14785477Y-16567619D02*
X14795000Y-16548571D01*
X14795000Y-16548571D02*
X14804524Y-16520000D01*
X14804524Y-16520000D02*
X14814048Y-16472381D01*
X14814048Y-16472381D02*
X14814048Y-16434286D01*
X14814048Y-16434286D02*
X14804524Y-16386667D01*
X14804524Y-16386667D02*
X14795000Y-16358095D01*
X14795000Y-16358095D02*
X14785477Y-16339048D01*
X14785477Y-16339048D02*
X14766429Y-16310476D01*
X14766429Y-16310476D02*
X14756905Y-16300952D01*
D10*
X9945000Y-16751000D02*
X9995000Y-16701000D01*
X9945000Y-16651000D01*
X9895000Y-16701000D01*
X9945000Y-16751000D01*
D11*
X10347381Y-16793524D02*
X10233095Y-16793524D01*
X10290238Y-16793524D02*
X10290238Y-16593524D01*
X10290238Y-16593524D02*
X10271190Y-16622095D01*
X10271190Y-16622095D02*
X10252143Y-16641143D01*
X10252143Y-16641143D02*
X10233095Y-16650667D01*
X10433095Y-16774476D02*
X10442619Y-16784000D01*
X10442619Y-16784000D02*
X10433095Y-16793524D01*
X10433095Y-16793524D02*
X10423571Y-16784000D01*
X10423571Y-16784000D02*
X10433095Y-16774476D01*
X10433095Y-16774476D02*
X10433095Y-16793524D01*
X10566429Y-16593524D02*
X10585476Y-16593524D01*
X10585476Y-16593524D02*
X10604524Y-16603048D01*
X10604524Y-16603048D02*
X10614048Y-16612571D01*
X10614048Y-16612571D02*
X10623571Y-16631619D01*
X10623571Y-16631619D02*
X10633095Y-16669714D01*
X10633095Y-16669714D02*
X10633095Y-16717333D01*
X10633095Y-16717333D02*
X10623571Y-16755428D01*
X10623571Y-16755428D02*
X10614048Y-16774476D01*
X10614048Y-16774476D02*
X10604524Y-16784000D01*
X10604524Y-16784000D02*
X10585476Y-16793524D01*
X10585476Y-16793524D02*
X10566429Y-16793524D01*
X10566429Y-16793524D02*
X10547381Y-16784000D01*
X10547381Y-16784000D02*
X10537857Y-16774476D01*
X10537857Y-16774476D02*
X10528333Y-16755428D01*
X10528333Y-16755428D02*
X10518810Y-16717333D01*
X10518810Y-16717333D02*
X10518810Y-16669714D01*
X10518810Y-16669714D02*
X10528333Y-16631619D01*
X10528333Y-16631619D02*
X10537857Y-16612571D01*
X10537857Y-16612571D02*
X10547381Y-16603048D01*
X10547381Y-16603048D02*
X10566429Y-16593524D01*
X10756905Y-16593524D02*
X10775952Y-16593524D01*
X10775952Y-16593524D02*
X10795000Y-16603048D01*
X10795000Y-16603048D02*
X10804524Y-16612571D01*
X10804524Y-16612571D02*
X10814048Y-16631619D01*
X10814048Y-16631619D02*
X10823571Y-16669714D01*
X10823571Y-16669714D02*
X10823571Y-16717333D01*
X10823571Y-16717333D02*
X10814048Y-16755428D01*
X10814048Y-16755428D02*
X10804524Y-16774476D01*
X10804524Y-16774476D02*
X10795000Y-16784000D01*
X10795000Y-16784000D02*
X10775952Y-16793524D01*
X10775952Y-16793524D02*
X10756905Y-16793524D01*
X10756905Y-16793524D02*
X10737857Y-16784000D01*
X10737857Y-16784000D02*
X10728333Y-16774476D01*
X10728333Y-16774476D02*
X10718810Y-16755428D01*
X10718810Y-16755428D02*
X10709286Y-16717333D01*
X10709286Y-16717333D02*
X10709286Y-16669714D01*
X10709286Y-16669714D02*
X10718810Y-16631619D01*
X10718810Y-16631619D02*
X10728333Y-16612571D01*
X10728333Y-16612571D02*
X10737857Y-16603048D01*
X10737857Y-16603048D02*
X10756905Y-16593524D01*
X10947381Y-16593524D02*
X10966429Y-16593524D01*
X10966429Y-16593524D02*
X10985476Y-16603048D01*
X10985476Y-16603048D02*
X10995000Y-16612571D01*
X10995000Y-16612571D02*
X11004524Y-16631619D01*
X11004524Y-16631619D02*
X11014048Y-16669714D01*
X11014048Y-16669714D02*
X11014048Y-16717333D01*
X11014048Y-16717333D02*
X11004524Y-16755428D01*
X11004524Y-16755428D02*
X10995000Y-16774476D01*
X10995000Y-16774476D02*
X10985476Y-16784000D01*
X10985476Y-16784000D02*
X10966429Y-16793524D01*
X10966429Y-16793524D02*
X10947381Y-16793524D01*
X10947381Y-16793524D02*
X10928333Y-16784000D01*
X10928333Y-16784000D02*
X10918810Y-16774476D01*
X10918810Y-16774476D02*
X10909286Y-16755428D01*
X10909286Y-16755428D02*
X10899762Y-16717333D01*
X10899762Y-16717333D02*
X10899762Y-16669714D01*
X10899762Y-16669714D02*
X10909286Y-16631619D01*
X10909286Y-16631619D02*
X10918810Y-16612571D01*
X10918810Y-16612571D02*
X10928333Y-16603048D01*
X10928333Y-16603048D02*
X10947381Y-16593524D01*
X11099762Y-16793524D02*
X11099762Y-16660190D01*
X11099762Y-16679238D02*
X11109286Y-16669714D01*
X11109286Y-16669714D02*
X11128333Y-16660190D01*
X11128333Y-16660190D02*
X11156905Y-16660190D01*
X11156905Y-16660190D02*
X11175952Y-16669714D01*
X11175952Y-16669714D02*
X11185476Y-16688762D01*
X11185476Y-16688762D02*
X11185476Y-16793524D01*
X11185476Y-16688762D02*
X11195000Y-16669714D01*
X11195000Y-16669714D02*
X11214048Y-16660190D01*
X11214048Y-16660190D02*
X11242619Y-16660190D01*
X11242619Y-16660190D02*
X11261667Y-16669714D01*
X11261667Y-16669714D02*
X11271190Y-16688762D01*
X11271190Y-16688762D02*
X11271190Y-16793524D01*
X11366429Y-16793524D02*
X11366429Y-16660190D01*
X11366429Y-16679238D02*
X11375952Y-16669714D01*
X11375952Y-16669714D02*
X11395000Y-16660190D01*
X11395000Y-16660190D02*
X11423571Y-16660190D01*
X11423571Y-16660190D02*
X11442619Y-16669714D01*
X11442619Y-16669714D02*
X11452143Y-16688762D01*
X11452143Y-16688762D02*
X11452143Y-16793524D01*
X11452143Y-16688762D02*
X11461667Y-16669714D01*
X11461667Y-16669714D02*
X11480714Y-16660190D01*
X11480714Y-16660190D02*
X11509286Y-16660190D01*
X11509286Y-16660190D02*
X11528333Y-16669714D01*
X11528333Y-16669714D02*
X11537857Y-16688762D01*
X11537857Y-16688762D02*
X11537857Y-16793524D01*
X11928333Y-16584000D02*
X11756905Y-16841143D01*
X12185476Y-16593524D02*
X12204524Y-16593524D01*
X12204524Y-16593524D02*
X12223572Y-16603048D01*
X12223572Y-16603048D02*
X12233095Y-16612571D01*
X12233095Y-16612571D02*
X12242619Y-16631619D01*
X12242619Y-16631619D02*
X12252143Y-16669714D01*
X12252143Y-16669714D02*
X12252143Y-16717333D01*
X12252143Y-16717333D02*
X12242619Y-16755428D01*
X12242619Y-16755428D02*
X12233095Y-16774476D01*
X12233095Y-16774476D02*
X12223572Y-16784000D01*
X12223572Y-16784000D02*
X12204524Y-16793524D01*
X12204524Y-16793524D02*
X12185476Y-16793524D01*
X12185476Y-16793524D02*
X12166429Y-16784000D01*
X12166429Y-16784000D02*
X12156905Y-16774476D01*
X12156905Y-16774476D02*
X12147381Y-16755428D01*
X12147381Y-16755428D02*
X12137857Y-16717333D01*
X12137857Y-16717333D02*
X12137857Y-16669714D01*
X12137857Y-16669714D02*
X12147381Y-16631619D01*
X12147381Y-16631619D02*
X12156905Y-16612571D01*
X12156905Y-16612571D02*
X12166429Y-16603048D01*
X12166429Y-16603048D02*
X12185476Y-16593524D01*
X12337857Y-16774476D02*
X12347381Y-16784000D01*
X12347381Y-16784000D02*
X12337857Y-16793524D01*
X12337857Y-16793524D02*
X12328333Y-16784000D01*
X12328333Y-16784000D02*
X12337857Y-16774476D01*
X12337857Y-16774476D02*
X12337857Y-16793524D01*
X12471191Y-16593524D02*
X12490238Y-16593524D01*
X12490238Y-16593524D02*
X12509286Y-16603048D01*
X12509286Y-16603048D02*
X12518810Y-16612571D01*
X12518810Y-16612571D02*
X12528333Y-16631619D01*
X12528333Y-16631619D02*
X12537857Y-16669714D01*
X12537857Y-16669714D02*
X12537857Y-16717333D01*
X12537857Y-16717333D02*
X12528333Y-16755428D01*
X12528333Y-16755428D02*
X12518810Y-16774476D01*
X12518810Y-16774476D02*
X12509286Y-16784000D01*
X12509286Y-16784000D02*
X12490238Y-16793524D01*
X12490238Y-16793524D02*
X12471191Y-16793524D01*
X12471191Y-16793524D02*
X12452143Y-16784000D01*
X12452143Y-16784000D02*
X12442619Y-16774476D01*
X12442619Y-16774476D02*
X12433095Y-16755428D01*
X12433095Y-16755428D02*
X12423572Y-16717333D01*
X12423572Y-16717333D02*
X12423572Y-16669714D01*
X12423572Y-16669714D02*
X12433095Y-16631619D01*
X12433095Y-16631619D02*
X12442619Y-16612571D01*
X12442619Y-16612571D02*
X12452143Y-16603048D01*
X12452143Y-16603048D02*
X12471191Y-16593524D01*
X12604524Y-16593524D02*
X12728333Y-16593524D01*
X12728333Y-16593524D02*
X12661667Y-16669714D01*
X12661667Y-16669714D02*
X12690238Y-16669714D01*
X12690238Y-16669714D02*
X12709286Y-16679238D01*
X12709286Y-16679238D02*
X12718810Y-16688762D01*
X12718810Y-16688762D02*
X12728333Y-16707809D01*
X12728333Y-16707809D02*
X12728333Y-16755428D01*
X12728333Y-16755428D02*
X12718810Y-16774476D01*
X12718810Y-16774476D02*
X12709286Y-16784000D01*
X12709286Y-16784000D02*
X12690238Y-16793524D01*
X12690238Y-16793524D02*
X12633095Y-16793524D01*
X12633095Y-16793524D02*
X12614048Y-16784000D01*
X12614048Y-16784000D02*
X12604524Y-16774476D01*
X12823572Y-16793524D02*
X12861667Y-16793524D01*
X12861667Y-16793524D02*
X12880714Y-16784000D01*
X12880714Y-16784000D02*
X12890238Y-16774476D01*
X12890238Y-16774476D02*
X12909286Y-16745905D01*
X12909286Y-16745905D02*
X12918810Y-16707809D01*
X12918810Y-16707809D02*
X12918810Y-16631619D01*
X12918810Y-16631619D02*
X12909286Y-16612571D01*
X12909286Y-16612571D02*
X12899762Y-16603048D01*
X12899762Y-16603048D02*
X12880714Y-16593524D01*
X12880714Y-16593524D02*
X12842619Y-16593524D01*
X12842619Y-16593524D02*
X12823572Y-16603048D01*
X12823572Y-16603048D02*
X12814048Y-16612571D01*
X12814048Y-16612571D02*
X12804524Y-16631619D01*
X12804524Y-16631619D02*
X12804524Y-16679238D01*
X12804524Y-16679238D02*
X12814048Y-16698286D01*
X12814048Y-16698286D02*
X12823572Y-16707809D01*
X12823572Y-16707809D02*
X12842619Y-16717333D01*
X12842619Y-16717333D02*
X12880714Y-16717333D01*
X12880714Y-16717333D02*
X12899762Y-16707809D01*
X12899762Y-16707809D02*
X12909286Y-16698286D01*
X12909286Y-16698286D02*
X12918810Y-16679238D01*
X13090238Y-16660190D02*
X13090238Y-16793524D01*
X13042619Y-16584000D02*
X12995000Y-16726857D01*
X12995000Y-16726857D02*
X13118810Y-16726857D01*
X13185476Y-16593524D02*
X13185476Y-16631619D01*
X13261667Y-16593524D02*
X13261667Y-16631619D01*
X13556905Y-16869714D02*
X13547381Y-16860190D01*
X13547381Y-16860190D02*
X13528334Y-16831619D01*
X13528334Y-16831619D02*
X13518810Y-16812571D01*
X13518810Y-16812571D02*
X13509286Y-16784000D01*
X13509286Y-16784000D02*
X13499762Y-16736381D01*
X13499762Y-16736381D02*
X13499762Y-16698286D01*
X13499762Y-16698286D02*
X13509286Y-16650667D01*
X13509286Y-16650667D02*
X13518810Y-16622095D01*
X13518810Y-16622095D02*
X13528334Y-16603048D01*
X13528334Y-16603048D02*
X13547381Y-16574476D01*
X13547381Y-16574476D02*
X13556905Y-16564952D01*
X13614048Y-16593524D02*
X13737857Y-16593524D01*
X13737857Y-16593524D02*
X13671191Y-16669714D01*
X13671191Y-16669714D02*
X13699762Y-16669714D01*
X13699762Y-16669714D02*
X13718810Y-16679238D01*
X13718810Y-16679238D02*
X13728334Y-16688762D01*
X13728334Y-16688762D02*
X13737857Y-16707809D01*
X13737857Y-16707809D02*
X13737857Y-16755428D01*
X13737857Y-16755428D02*
X13728334Y-16774476D01*
X13728334Y-16774476D02*
X13718810Y-16784000D01*
X13718810Y-16784000D02*
X13699762Y-16793524D01*
X13699762Y-16793524D02*
X13642619Y-16793524D01*
X13642619Y-16793524D02*
X13623572Y-16784000D01*
X13623572Y-16784000D02*
X13614048Y-16774476D01*
X13833095Y-16793524D02*
X13871191Y-16793524D01*
X13871191Y-16793524D02*
X13890238Y-16784000D01*
X13890238Y-16784000D02*
X13899762Y-16774476D01*
X13899762Y-16774476D02*
X13918810Y-16745905D01*
X13918810Y-16745905D02*
X13928334Y-16707809D01*
X13928334Y-16707809D02*
X13928334Y-16631619D01*
X13928334Y-16631619D02*
X13918810Y-16612571D01*
X13918810Y-16612571D02*
X13909286Y-16603048D01*
X13909286Y-16603048D02*
X13890238Y-16593524D01*
X13890238Y-16593524D02*
X13852143Y-16593524D01*
X13852143Y-16593524D02*
X13833095Y-16603048D01*
X13833095Y-16603048D02*
X13823572Y-16612571D01*
X13823572Y-16612571D02*
X13814048Y-16631619D01*
X13814048Y-16631619D02*
X13814048Y-16679238D01*
X13814048Y-16679238D02*
X13823572Y-16698286D01*
X13823572Y-16698286D02*
X13833095Y-16707809D01*
X13833095Y-16707809D02*
X13852143Y-16717333D01*
X13852143Y-16717333D02*
X13890238Y-16717333D01*
X13890238Y-16717333D02*
X13909286Y-16707809D01*
X13909286Y-16707809D02*
X13918810Y-16698286D01*
X13918810Y-16698286D02*
X13928334Y-16679238D01*
X14166429Y-16793524D02*
X14166429Y-16593524D01*
X14252143Y-16793524D02*
X14252143Y-16688762D01*
X14252143Y-16688762D02*
X14242619Y-16669714D01*
X14242619Y-16669714D02*
X14223572Y-16660190D01*
X14223572Y-16660190D02*
X14195000Y-16660190D01*
X14195000Y-16660190D02*
X14175953Y-16669714D01*
X14175953Y-16669714D02*
X14166429Y-16679238D01*
X14375953Y-16793524D02*
X14356905Y-16784000D01*
X14356905Y-16784000D02*
X14347381Y-16774476D01*
X14347381Y-16774476D02*
X14337857Y-16755428D01*
X14337857Y-16755428D02*
X14337857Y-16698286D01*
X14337857Y-16698286D02*
X14347381Y-16679238D01*
X14347381Y-16679238D02*
X14356905Y-16669714D01*
X14356905Y-16669714D02*
X14375953Y-16660190D01*
X14375953Y-16660190D02*
X14404524Y-16660190D01*
X14404524Y-16660190D02*
X14423572Y-16669714D01*
X14423572Y-16669714D02*
X14433096Y-16679238D01*
X14433096Y-16679238D02*
X14442619Y-16698286D01*
X14442619Y-16698286D02*
X14442619Y-16755428D01*
X14442619Y-16755428D02*
X14433096Y-16774476D01*
X14433096Y-16774476D02*
X14423572Y-16784000D01*
X14423572Y-16784000D02*
X14404524Y-16793524D01*
X14404524Y-16793524D02*
X14375953Y-16793524D01*
X14556905Y-16793524D02*
X14537857Y-16784000D01*
X14537857Y-16784000D02*
X14528334Y-16764952D01*
X14528334Y-16764952D02*
X14528334Y-16593524D01*
X14709286Y-16784000D02*
X14690238Y-16793524D01*
X14690238Y-16793524D02*
X14652143Y-16793524D01*
X14652143Y-16793524D02*
X14633096Y-16784000D01*
X14633096Y-16784000D02*
X14623572Y-16764952D01*
X14623572Y-16764952D02*
X14623572Y-16688762D01*
X14623572Y-16688762D02*
X14633096Y-16669714D01*
X14633096Y-16669714D02*
X14652143Y-16660190D01*
X14652143Y-16660190D02*
X14690238Y-16660190D01*
X14690238Y-16660190D02*
X14709286Y-16669714D01*
X14709286Y-16669714D02*
X14718810Y-16688762D01*
X14718810Y-16688762D02*
X14718810Y-16707809D01*
X14718810Y-16707809D02*
X14623572Y-16726857D01*
X14795000Y-16784000D02*
X14814048Y-16793524D01*
X14814048Y-16793524D02*
X14852143Y-16793524D01*
X14852143Y-16793524D02*
X14871191Y-16784000D01*
X14871191Y-16784000D02*
X14880715Y-16764952D01*
X14880715Y-16764952D02*
X14880715Y-16755428D01*
X14880715Y-16755428D02*
X14871191Y-16736381D01*
X14871191Y-16736381D02*
X14852143Y-16726857D01*
X14852143Y-16726857D02*
X14823572Y-16726857D01*
X14823572Y-16726857D02*
X14804524Y-16717333D01*
X14804524Y-16717333D02*
X14795000Y-16698286D01*
X14795000Y-16698286D02*
X14795000Y-16688762D01*
X14795000Y-16688762D02*
X14804524Y-16669714D01*
X14804524Y-16669714D02*
X14823572Y-16660190D01*
X14823572Y-16660190D02*
X14852143Y-16660190D01*
X14852143Y-16660190D02*
X14871191Y-16669714D01*
X14947381Y-16869714D02*
X14956905Y-16860190D01*
X14956905Y-16860190D02*
X14975953Y-16831619D01*
X14975953Y-16831619D02*
X14985477Y-16812571D01*
X14985477Y-16812571D02*
X14995000Y-16784000D01*
X14995000Y-16784000D02*
X15004524Y-16736381D01*
X15004524Y-16736381D02*
X15004524Y-16698286D01*
X15004524Y-16698286D02*
X14995000Y-16650667D01*
X14995000Y-16650667D02*
X14985477Y-16622095D01*
X14985477Y-16622095D02*
X14975953Y-16603048D01*
X14975953Y-16603048D02*
X14956905Y-16574476D01*
X14956905Y-16574476D02*
X14947381Y-16564952D01*
M02*
