%TF.GenerationSoftware,KiCad,Pcbnew,7.0.1-0*%
%TF.CreationDate,2023-04-19T13:51:38-05:00*%
%TF.ProjectId,ME 433 HW3,4d452034-3333-4204-9857-332e6b696361,rev?*%
%TF.SameCoordinates,Original*%
%TF.FileFunction,Copper,L2,Bot*%
%TF.FilePolarity,Positive*%
%FSLAX46Y46*%
G04 Gerber Fmt 4.6, Leading zero omitted, Abs format (unit mm)*
G04 Created by KiCad (PCBNEW 7.0.1-0) date 2023-04-19 13:51:38*
%MOMM*%
%LPD*%
G01*
G04 APERTURE LIST*
%TA.AperFunction,ComponentPad*%
%ADD10C,1.600000*%
%TD*%
%TA.AperFunction,ComponentPad*%
%ADD11O,1.600000X1.600000*%
%TD*%
%TA.AperFunction,ComponentPad*%
%ADD12R,1.700000X1.700000*%
%TD*%
%TA.AperFunction,ComponentPad*%
%ADD13O,1.700000X1.700000*%
%TD*%
%TA.AperFunction,ComponentPad*%
%ADD14R,1.500000X1.050000*%
%TD*%
%TA.AperFunction,ComponentPad*%
%ADD15O,1.500000X1.050000*%
%TD*%
%TA.AperFunction,ComponentPad*%
%ADD16R,1.800000X1.800000*%
%TD*%
%TA.AperFunction,ComponentPad*%
%ADD17C,1.800000*%
%TD*%
%TA.AperFunction,ComponentPad*%
%ADD18R,1.600000X1.600000*%
%TD*%
%TA.AperFunction,ComponentPad*%
%ADD19C,1.700000*%
%TD*%
%TA.AperFunction,ViaPad*%
%ADD20C,0.800000*%
%TD*%
%TA.AperFunction,Conductor*%
%ADD21C,0.250000*%
%TD*%
%TA.AperFunction,Profile*%
%ADD22C,0.100000*%
%TD*%
G04 APERTURE END LIST*
D10*
%TO.P,R4,1*%
%TO.N,Net-(D2-K)*%
X105174367Y-108020640D03*
D11*
%TO.P,R4,2*%
%TO.N,/GREEN*%
X105174367Y-115640640D03*
%TD*%
D10*
%TO.P,C4,1*%
%TO.N,/VIN*%
X137160000Y-106680000D03*
%TO.P,C4,2*%
%TO.N,GND*%
X137160000Y-109180000D03*
%TD*%
D12*
%TO.P,J1,1,Pin_1*%
%TO.N,Net-(J1-Pin_1)*%
X147320000Y-101600000D03*
D13*
%TO.P,J1,2,Pin_2*%
%TO.N,GND*%
X147320000Y-104140000D03*
%TD*%
D14*
%TO.P,U2,1,VO*%
%TO.N,+3.3V*%
X142240000Y-109220000D03*
D15*
%TO.P,U2,2,GND*%
%TO.N,GND*%
X142240000Y-107950000D03*
%TO.P,U2,3,VI*%
%TO.N,/VIN*%
X142240000Y-106680000D03*
%TD*%
D16*
%TO.P,D1,1,K*%
%TO.N,Net-(D1-K)*%
X138455683Y-121026425D03*
D17*
%TO.P,D1,2,A*%
%TO.N,+3.3V*%
X140995683Y-121026425D03*
%TD*%
D10*
%TO.P,C5,1*%
%TO.N,+3.3V*%
X142196489Y-112093623D03*
%TO.P,C5,2*%
%TO.N,GND*%
X142196489Y-114593623D03*
%TD*%
%TO.P,C1,1*%
%TO.N,+3.3V*%
X116800000Y-137160000D03*
%TO.P,C1,2*%
%TO.N,GND*%
X114300000Y-137160000D03*
%TD*%
D16*
%TO.P,D3,1,K*%
%TO.N,Net-(D3-K)*%
X110254367Y-104210640D03*
D17*
%TO.P,D3,2,A*%
%TO.N,+3.3V*%
X112794367Y-104210640D03*
%TD*%
D12*
%TO.P,J3,1,Pin_1*%
%TO.N,/B15*%
X147320000Y-111960000D03*
D13*
%TO.P,J3,2,Pin_2*%
%TO.N,/B14*%
X147320000Y-114500000D03*
%TO.P,J3,3,Pin_3*%
%TO.N,/B13*%
X147320000Y-117040000D03*
%TO.P,J3,4,Pin_4*%
%TO.N,/B12*%
X147320000Y-119580000D03*
%TO.P,J3,5,Pin_5*%
%TO.N,/B11*%
X147320000Y-122120000D03*
%TO.P,J3,6,Pin_6*%
%TO.N,/B10*%
X147320000Y-124660000D03*
%TO.P,J3,7,Pin_7*%
%TO.N,/B9*%
X147320000Y-127200000D03*
%TO.P,J3,8,Pin_8*%
%TO.N,/B8*%
X147320000Y-129740000D03*
%TO.P,J3,9,Pin_9*%
%TO.N,/B7*%
X147320000Y-132280000D03*
%TO.P,J3,10,Pin_10*%
%TO.N,/VIN*%
X147320000Y-134820000D03*
%TO.P,J3,11,Pin_11*%
%TO.N,+3.3V*%
X147320000Y-137360000D03*
%TO.P,J3,12,Pin_12*%
%TO.N,GND*%
X147320000Y-139900000D03*
%TD*%
D10*
%TO.P,C3,1*%
%TO.N,Net-(U1-VCAP)*%
X132080000Y-127000000D03*
%TO.P,C3,2*%
%TO.N,GND*%
X132080000Y-129500000D03*
%TD*%
%TO.P,R5,1*%
%TO.N,Net-(D3-K)*%
X110254367Y-108020640D03*
D11*
%TO.P,R5,2*%
%TO.N,/YELLOW*%
X110254367Y-115640640D03*
%TD*%
D10*
%TO.P,R2,1*%
%TO.N,+3.3V*%
X106680000Y-133350000D03*
D11*
%TO.P,R2,2*%
%TO.N,/MCLR*%
X106680000Y-140970000D03*
%TD*%
D12*
%TO.P,SW2,1,1*%
%TO.N,GND*%
X101600000Y-147320000D03*
D13*
%TO.P,SW2,2,2*%
%TO.N,/MCLR*%
X106680000Y-147320000D03*
%TD*%
D16*
%TO.P,D2,1,K*%
%TO.N,Net-(D2-K)*%
X105174367Y-104210640D03*
D17*
%TO.P,D2,2,A*%
%TO.N,+3.3V*%
X107714367Y-104210640D03*
%TD*%
D10*
%TO.P,C2,1*%
%TO.N,+3.3V*%
X132120000Y-106720000D03*
%TO.P,C2,2*%
%TO.N,GND*%
X132120000Y-109220000D03*
%TD*%
D12*
%TO.P,SW3,1,1*%
%TO.N,GND*%
X116840000Y-147320000D03*
D13*
%TO.P,SW3,2,2*%
%TO.N,/USER*%
X111760000Y-147320000D03*
%TD*%
D12*
%TO.P,J4,1,Pin_1*%
%TO.N,unconnected-(J4-Pin_1-Pad1)*%
X129540000Y-101600000D03*
D13*
%TO.P,J4,2,Pin_2*%
%TO.N,/U1TX*%
X132080000Y-101600000D03*
%TO.P,J4,3,Pin_3*%
%TO.N,/U1RX*%
X134620000Y-101600000D03*
%TO.P,J4,4,Pin_4*%
%TO.N,+5V*%
X137160000Y-101600000D03*
%TO.P,J4,5,Pin_5*%
%TO.N,unconnected-(J4-Pin_5-Pad5)*%
X139700000Y-101600000D03*
%TO.P,J4,6,Pin_6*%
%TO.N,GND*%
X142240000Y-101600000D03*
%TD*%
D10*
%TO.P,R3,1*%
%TO.N,+3.3V*%
X110640135Y-133409684D03*
D11*
%TO.P,R3,2*%
%TO.N,/USER*%
X110640135Y-141029684D03*
%TD*%
D18*
%TO.P,U1,1,~{MCLR}*%
%TO.N,/MCLR*%
X120660000Y-107935000D03*
D11*
%TO.P,U1,2,A0*%
%TO.N,/A0*%
X120660000Y-110475000D03*
%TO.P,U1,3,A1*%
%TO.N,/A1*%
X120660000Y-113015000D03*
%TO.P,U1,4,B0*%
%TO.N,/B0*%
X120660000Y-115555000D03*
%TO.P,U1,5,B1*%
%TO.N,/B1*%
X120660000Y-118095000D03*
%TO.P,U1,6,B2*%
%TO.N,/B2*%
X120660000Y-120635000D03*
%TO.P,U1,7,B3*%
%TO.N,/U1TX*%
X120660000Y-123175000D03*
%TO.P,U1,8,VSS*%
%TO.N,GND*%
X120660000Y-125715000D03*
%TO.P,U1,9,A2*%
%TO.N,/U1RX*%
X120660000Y-128255000D03*
%TO.P,U1,10,A3*%
%TO.N,/A3*%
X120660000Y-130795000D03*
%TO.P,U1,11,B4*%
%TO.N,/GREEN*%
X120660000Y-133335000D03*
%TO.P,U1,12,A4*%
%TO.N,/USER*%
X120660000Y-135875000D03*
%TO.P,U1,13,VDD*%
%TO.N,+3.3V*%
X120660000Y-138415000D03*
%TO.P,U1,14,B5*%
%TO.N,/YELLOW*%
X120660000Y-140955000D03*
%TO.P,U1,15,B6*%
%TO.N,/B6*%
X128280000Y-140955000D03*
%TO.P,U1,16,B7*%
%TO.N,/B7*%
X128280000Y-138415000D03*
%TO.P,U1,17,B8*%
%TO.N,/B8*%
X128280000Y-135875000D03*
%TO.P,U1,18,B9*%
%TO.N,/B9*%
X128280000Y-133335000D03*
%TO.P,U1,19,VSS*%
%TO.N,GND*%
X128280000Y-130795000D03*
%TO.P,U1,20,VCAP*%
%TO.N,Net-(U1-VCAP)*%
X128280000Y-128255000D03*
%TO.P,U1,21,B10*%
%TO.N,/B10*%
X128280000Y-125715000D03*
%TO.P,U1,22,B11*%
%TO.N,/B11*%
X128280000Y-123175000D03*
%TO.P,U1,23,B12*%
%TO.N,/B12*%
X128280000Y-120635000D03*
%TO.P,U1,24,B13*%
%TO.N,/B13*%
X128280000Y-118095000D03*
%TO.P,U1,25,B14*%
%TO.N,/B14*%
X128280000Y-115555000D03*
%TO.P,U1,26,B15*%
%TO.N,/B15*%
X128280000Y-113015000D03*
%TO.P,U1,27,AVSS*%
%TO.N,GND*%
X128280000Y-110475000D03*
%TO.P,U1,28,AVDD*%
%TO.N,+3.3V*%
X128280000Y-107935000D03*
%TD*%
D10*
%TO.P,C6,1*%
%TO.N,+3.3V*%
X138526626Y-112141284D03*
%TO.P,C6,2*%
%TO.N,GND*%
X138526626Y-114641284D03*
%TD*%
D19*
%TO.P,SW1,1,A*%
%TO.N,+5V*%
X118692852Y-102213822D03*
%TO.P,SW1,2,B*%
%TO.N,/VIN*%
X121192852Y-102213822D03*
%TO.P,SW1,3,C*%
%TO.N,Net-(J1-Pin_1)*%
X123692852Y-102213822D03*
%TD*%
D10*
%TO.P,R1,1*%
%TO.N,Net-(D1-K)*%
X137160000Y-128270000D03*
D11*
%TO.P,R1,2*%
%TO.N,GND*%
X137160000Y-135890000D03*
%TD*%
D12*
%TO.P,J2,1,Pin_1*%
%TO.N,/A0*%
X101600000Y-111960000D03*
D13*
%TO.P,J2,2,Pin_2*%
%TO.N,/A1*%
X101600000Y-114500000D03*
%TO.P,J2,3,Pin_3*%
%TO.N,/B0*%
X101600000Y-117040000D03*
%TO.P,J2,4,Pin_4*%
%TO.N,/B1*%
X101600000Y-119580000D03*
%TO.P,J2,5,Pin_5*%
%TO.N,/B2*%
X101600000Y-122120000D03*
%TO.P,J2,6,Pin_6*%
%TO.N,/A3*%
X101600000Y-124660000D03*
%TO.P,J2,7,Pin_7*%
%TO.N,/GREEN*%
X101600000Y-127200000D03*
%TO.P,J2,8,Pin_8*%
%TO.N,/YELLOW*%
X101600000Y-129740000D03*
%TO.P,J2,9,Pin_9*%
%TO.N,/B6*%
X101600000Y-132280000D03*
%TO.P,J2,10,Pin_10*%
%TO.N,/VIN*%
X101600000Y-134820000D03*
%TO.P,J2,11,Pin_11*%
%TO.N,+3.3V*%
X101600000Y-137360000D03*
%TO.P,J2,12,Pin_12*%
%TO.N,GND*%
X101600000Y-139900000D03*
%TD*%
D20*
%TO.N,+3.3V*%
X139700000Y-137290000D03*
X104140000Y-134620000D03*
X116840000Y-134620000D03*
X124460000Y-109220000D03*
X124460000Y-104140000D03*
X124460000Y-111760000D03*
X104140000Y-137160000D03*
%TO.N,/VIN*%
X121920000Y-106680000D03*
X149440500Y-106680000D03*
X100559500Y-106680000D03*
%TO.N,/A3*%
X121920000Y-124460000D03*
%TO.N,/GREEN*%
X119380000Y-127000000D03*
X105337979Y-127200000D03*
%TO.N,/YELLOW*%
X109220000Y-129833175D03*
X116840000Y-129540000D03*
%TO.N,/B6*%
X127000000Y-132080000D03*
%TO.N,/B9*%
X129540000Y-127000000D03*
%TO.N,/B8*%
X129706765Y-132932834D03*
%TO.N,/B7*%
X132080000Y-134620000D03*
%TO.N,/U1TX*%
X132080000Y-121920000D03*
%TO.N,/U1RX*%
X134620000Y-129540000D03*
%TO.N,/MCLR*%
X106680000Y-108495500D03*
%TO.N,/USER*%
X111760000Y-137160000D03*
%TD*%
D21*
%TO.N,+3.3V*%
X116840000Y-134620000D02*
X116800000Y-134660000D01*
X139700000Y-119380000D02*
X139700000Y-119730742D01*
X139700000Y-113314658D02*
X139700000Y-119380000D01*
X142240000Y-112050112D02*
X142196489Y-112093623D01*
X139700000Y-119730742D02*
X140995683Y-121026425D01*
X124460000Y-111760000D02*
X124460000Y-109220000D01*
X138526626Y-112141284D02*
X139700000Y-113314658D01*
X104140000Y-137160000D02*
X104140000Y-134620000D01*
X116800000Y-134660000D02*
X116800000Y-137160000D01*
X142240000Y-109220000D02*
X142240000Y-112050112D01*
X124460000Y-104140000D02*
X124460000Y-109220000D01*
X139700000Y-119380000D02*
X139700000Y-137290000D01*
%TO.N,/VIN*%
X100425000Y-106814500D02*
X100425000Y-133445000D01*
X149440500Y-106680000D02*
X149440500Y-132699500D01*
X121192852Y-105952852D02*
X121192852Y-102213822D01*
X121920000Y-106680000D02*
X121192852Y-105952852D01*
X149440500Y-132699500D02*
X147320000Y-134820000D01*
X100425000Y-133445000D02*
X101600000Y-134620000D01*
X100559500Y-106680000D02*
X100425000Y-106814500D01*
X101600000Y-134620000D02*
X101600000Y-134820000D01*
%TO.N,Net-(D1-K)*%
X137160000Y-124460000D02*
X137160000Y-128270000D01*
X138455683Y-123164317D02*
X137160000Y-124460000D01*
X138455683Y-121026425D02*
X138455683Y-123164317D01*
%TO.N,Net-(D2-K)*%
X105174367Y-104210640D02*
X105174367Y-108020640D01*
%TO.N,Net-(D3-K)*%
X110254367Y-104210640D02*
X110254367Y-108020640D01*
%TO.N,/A3*%
X121920000Y-124460000D02*
X121920000Y-129535000D01*
X121920000Y-129535000D02*
X120660000Y-130795000D01*
%TO.N,/GREEN*%
X119380000Y-127000000D02*
X119380000Y-132055000D01*
X119380000Y-132055000D02*
X120660000Y-133335000D01*
X105174367Y-127036388D02*
X105337979Y-127200000D01*
X105174367Y-115640640D02*
X105174367Y-127036388D01*
%TO.N,/YELLOW*%
X110254367Y-128798808D02*
X109220000Y-129833175D01*
X116840000Y-129540000D02*
X117925000Y-130625000D01*
X117925000Y-130625000D02*
X117925000Y-138220000D01*
X110254367Y-115640640D02*
X110254367Y-128798808D01*
X117925000Y-138220000D02*
X120660000Y-140955000D01*
%TO.N,/B6*%
X127000000Y-139675000D02*
X128280000Y-140955000D01*
X127000000Y-132080000D02*
X127000000Y-139675000D01*
%TO.N,/B9*%
X129540000Y-127000000D02*
X129540000Y-132075000D01*
X129540000Y-132075000D02*
X128280000Y-133335000D01*
%TO.N,/B8*%
X129706765Y-132932834D02*
X129706765Y-134448235D01*
X129706765Y-134448235D02*
X128280000Y-135875000D01*
%TO.N,/B7*%
X132080000Y-134620000D02*
X132075000Y-134620000D01*
X132075000Y-134620000D02*
X128280000Y-138415000D01*
%TO.N,/U1TX*%
X130995000Y-102685000D02*
X132080000Y-101600000D01*
X132080000Y-121920000D02*
X130995000Y-120835000D01*
X130995000Y-120835000D02*
X130995000Y-102685000D01*
%TO.N,/U1RX*%
X134620000Y-129540000D02*
X134620000Y-101600000D01*
%TO.N,/MCLR*%
X107805000Y-109620500D02*
X107805000Y-139845000D01*
X106680000Y-140970000D02*
X106680000Y-147320000D01*
X106680000Y-108495500D02*
X107805000Y-109620500D01*
X107805000Y-139845000D02*
X106680000Y-140970000D01*
%TO.N,/USER*%
X110640135Y-138279865D02*
X110640135Y-141029684D01*
X111760000Y-137160000D02*
X110640135Y-138279865D01*
X110640135Y-146200135D02*
X111760000Y-147320000D01*
X110640135Y-141029684D02*
X110640135Y-146200135D01*
%TD*%
%TA.AperFunction,Conductor*%
%TO.N,GND*%
G36*
X132080000Y-100014276D02*
G01*
X132132954Y-100000500D01*
X134567046Y-100000500D01*
X134620000Y-100014276D01*
X134672954Y-100000500D01*
X137107046Y-100000500D01*
X137160000Y-100014276D01*
X137212954Y-100000500D01*
X139647046Y-100000500D01*
X139700000Y-100014276D01*
X139752954Y-100000500D01*
X149875500Y-100000500D01*
X149937500Y-100017113D01*
X149982887Y-100062500D01*
X149999500Y-100124500D01*
X149999500Y-105752219D01*
X149984473Y-105811387D01*
X149943035Y-105856214D01*
X149885229Y-105875837D01*
X149825065Y-105865499D01*
X149720300Y-105818854D01*
X149535148Y-105779500D01*
X149535146Y-105779500D01*
X149345854Y-105779500D01*
X149345852Y-105779500D01*
X149160697Y-105818855D01*
X148987769Y-105895848D01*
X148834629Y-106007110D01*
X148707966Y-106147783D01*
X148613320Y-106311715D01*
X148554826Y-106491742D01*
X148535040Y-106680000D01*
X148554826Y-106868257D01*
X148613320Y-107048284D01*
X148707964Y-107212213D01*
X148707967Y-107212216D01*
X148783152Y-107295717D01*
X148806764Y-107334249D01*
X148815000Y-107378687D01*
X148815000Y-110763886D01*
X148799832Y-110823313D01*
X148758040Y-110868201D01*
X148699846Y-110887570D01*
X148639489Y-110876681D01*
X148591733Y-110838197D01*
X148527546Y-110752454D01*
X148412331Y-110666204D01*
X148277483Y-110615909D01*
X148277482Y-110615908D01*
X148217873Y-110609500D01*
X148217869Y-110609500D01*
X146422130Y-110609500D01*
X146362515Y-110615909D01*
X146227669Y-110666204D01*
X146112454Y-110752454D01*
X146026204Y-110867668D01*
X145975909Y-111002516D01*
X145969500Y-111062130D01*
X145969500Y-112857869D01*
X145975909Y-112917484D01*
X145981608Y-112932763D01*
X146026204Y-113052331D01*
X146112454Y-113167546D01*
X146227669Y-113253796D01*
X146339907Y-113295658D01*
X146359082Y-113302810D01*
X146409462Y-113337789D01*
X146436915Y-113392634D01*
X146434726Y-113453926D01*
X146403431Y-113506673D01*
X146281503Y-113628601D01*
X146145965Y-113822170D01*
X146046097Y-114036336D01*
X145984936Y-114264592D01*
X145964340Y-114500000D01*
X145984936Y-114735407D01*
X146002646Y-114801501D01*
X146046097Y-114963663D01*
X146145965Y-115177830D01*
X146281505Y-115371401D01*
X146448599Y-115538495D01*
X146634160Y-115668426D01*
X146673024Y-115712743D01*
X146687035Y-115770000D01*
X146673024Y-115827257D01*
X146634160Y-115871574D01*
X146448611Y-116001497D01*
X146448595Y-116001508D01*
X146281505Y-116168598D01*
X146145965Y-116362170D01*
X146046097Y-116576336D01*
X145984936Y-116804592D01*
X145964340Y-117039999D01*
X145984936Y-117275407D01*
X146029645Y-117442264D01*
X146046097Y-117503663D01*
X146145965Y-117717830D01*
X146281505Y-117911401D01*
X146448599Y-118078495D01*
X146634160Y-118208426D01*
X146673024Y-118252743D01*
X146687035Y-118310000D01*
X146673024Y-118367257D01*
X146634160Y-118411574D01*
X146448611Y-118541497D01*
X146448595Y-118541508D01*
X146281505Y-118708598D01*
X146145965Y-118902170D01*
X146046097Y-119116336D01*
X145984936Y-119344592D01*
X145964340Y-119580000D01*
X145984936Y-119815407D01*
X146003341Y-119884094D01*
X146046097Y-120043663D01*
X146145965Y-120257830D01*
X146281505Y-120451401D01*
X146448599Y-120618495D01*
X146634160Y-120748426D01*
X146673024Y-120792743D01*
X146687035Y-120850000D01*
X146673024Y-120907257D01*
X146634160Y-120951574D01*
X146448611Y-121081497D01*
X146448595Y-121081508D01*
X146281505Y-121248598D01*
X146145965Y-121442170D01*
X146046097Y-121656336D01*
X145984936Y-121884592D01*
X145964340Y-122120000D01*
X145984936Y-122355407D01*
X146010876Y-122452216D01*
X146046097Y-122583663D01*
X146145965Y-122797830D01*
X146281505Y-122991401D01*
X146448599Y-123158495D01*
X146634160Y-123288426D01*
X146673024Y-123332743D01*
X146687035Y-123390000D01*
X146673024Y-123447257D01*
X146634158Y-123491575D01*
X146448611Y-123621497D01*
X146448595Y-123621508D01*
X146281505Y-123788598D01*
X146145965Y-123982170D01*
X146046097Y-124196336D01*
X145984936Y-124424592D01*
X145964340Y-124659999D01*
X145984936Y-124895407D01*
X146010876Y-124992216D01*
X146046097Y-125123663D01*
X146145965Y-125337830D01*
X146281505Y-125531401D01*
X146448599Y-125698495D01*
X146634160Y-125828426D01*
X146673024Y-125872743D01*
X146687035Y-125930000D01*
X146673024Y-125987257D01*
X146634158Y-126031575D01*
X146448611Y-126161497D01*
X146448595Y-126161508D01*
X146281505Y-126328598D01*
X146145965Y-126522170D01*
X146046097Y-126736336D01*
X145984936Y-126964592D01*
X145964340Y-127200000D01*
X145984936Y-127435407D01*
X146029645Y-127602264D01*
X146046097Y-127663663D01*
X146145965Y-127877830D01*
X146281505Y-128071401D01*
X146448599Y-128238495D01*
X146634160Y-128368426D01*
X146673024Y-128412743D01*
X146687035Y-128470000D01*
X146673024Y-128527257D01*
X146634158Y-128571575D01*
X146448611Y-128701497D01*
X146448595Y-128701508D01*
X146281505Y-128868598D01*
X146145965Y-129062170D01*
X146046097Y-129276336D01*
X145984936Y-129504592D01*
X145964340Y-129739999D01*
X145984936Y-129975407D01*
X145998525Y-130026121D01*
X146046097Y-130203663D01*
X146145965Y-130417830D01*
X146281505Y-130611401D01*
X146448599Y-130778495D01*
X146634160Y-130908426D01*
X146673024Y-130952743D01*
X146687035Y-131010000D01*
X146673024Y-131067257D01*
X146634158Y-131111575D01*
X146448611Y-131241497D01*
X146448595Y-131241508D01*
X146281505Y-131408598D01*
X146145965Y-131602170D01*
X146046097Y-131816336D01*
X145984936Y-132044592D01*
X145964340Y-132280000D01*
X145984936Y-132515407D01*
X146010876Y-132612216D01*
X146046097Y-132743663D01*
X146145965Y-132957830D01*
X146281505Y-133151401D01*
X146448599Y-133318495D01*
X146634160Y-133448426D01*
X146673024Y-133492743D01*
X146687035Y-133550000D01*
X146673024Y-133607257D01*
X146634158Y-133651575D01*
X146448611Y-133781497D01*
X146448595Y-133781508D01*
X146281505Y-133948598D01*
X146145965Y-134142170D01*
X146046097Y-134356336D01*
X145984936Y-134584592D01*
X145964340Y-134819999D01*
X145984936Y-135055407D01*
X146010876Y-135152216D01*
X146046097Y-135283663D01*
X146145965Y-135497830D01*
X146281505Y-135691401D01*
X146448599Y-135858495D01*
X146634160Y-135988426D01*
X146673024Y-136032743D01*
X146687035Y-136090000D01*
X146673024Y-136147257D01*
X146634158Y-136191575D01*
X146448611Y-136321497D01*
X146448595Y-136321508D01*
X146281505Y-136488598D01*
X146145965Y-136682170D01*
X146046097Y-136896336D01*
X145984936Y-137124592D01*
X145964340Y-137360000D01*
X145984936Y-137595407D01*
X146024979Y-137744849D01*
X146046097Y-137823663D01*
X146145965Y-138037830D01*
X146281505Y-138231401D01*
X146448599Y-138398495D01*
X146634597Y-138528732D01*
X146673460Y-138573048D01*
X146687471Y-138630305D01*
X146673461Y-138687561D01*
X146634595Y-138731880D01*
X146448919Y-138861892D01*
X146281890Y-139028921D01*
X146146400Y-139222421D01*
X146046569Y-139436507D01*
X145989364Y-139649999D01*
X145989364Y-139650000D01*
X148650636Y-139650000D01*
X148650635Y-139649999D01*
X148593430Y-139436507D01*
X148493599Y-139222421D01*
X148358109Y-139028921D01*
X148191081Y-138861893D01*
X148005404Y-138731880D01*
X147966539Y-138687562D01*
X147952528Y-138630305D01*
X147966539Y-138573048D01*
X148005402Y-138528732D01*
X148191401Y-138398495D01*
X148358495Y-138231401D01*
X148494035Y-138037830D01*
X148593903Y-137823663D01*
X148655063Y-137595408D01*
X148675659Y-137360000D01*
X148655063Y-137124592D01*
X148593903Y-136896337D01*
X148494035Y-136682171D01*
X148358495Y-136488599D01*
X148191401Y-136321505D01*
X148005839Y-136191573D01*
X147966975Y-136147257D01*
X147952964Y-136090000D01*
X147966975Y-136032743D01*
X148005839Y-135988426D01*
X148191401Y-135858495D01*
X148358495Y-135691401D01*
X148494035Y-135497830D01*
X148593903Y-135283663D01*
X148655063Y-135055408D01*
X148675659Y-134820000D01*
X148675555Y-134818817D01*
X148663439Y-134680327D01*
X148655063Y-134584592D01*
X148628143Y-134484126D01*
X148628143Y-134419939D01*
X148660235Y-134364353D01*
X149787818Y-133236771D01*
X149837182Y-133206521D01*
X149894898Y-133201979D01*
X149948385Y-133224134D01*
X149985985Y-133268157D01*
X149999500Y-133324452D01*
X149999500Y-149875500D01*
X149982887Y-149937500D01*
X149937500Y-149982887D01*
X149875500Y-149999500D01*
X100124500Y-149999500D01*
X100062500Y-149982887D01*
X100017113Y-149937500D01*
X100000500Y-149875500D01*
X100000500Y-147570000D01*
X100250000Y-147570000D01*
X100250000Y-148217824D01*
X100256402Y-148277375D01*
X100306647Y-148412089D01*
X100392811Y-148527188D01*
X100507910Y-148613352D01*
X100642624Y-148663597D01*
X100702176Y-148670000D01*
X101350000Y-148670000D01*
X101350000Y-147570000D01*
X101850000Y-147570000D01*
X101850000Y-148670000D01*
X102497824Y-148670000D01*
X102557375Y-148663597D01*
X102692089Y-148613352D01*
X102807188Y-148527188D01*
X102893352Y-148412089D01*
X102943597Y-148277375D01*
X102950000Y-148217824D01*
X102950000Y-147570000D01*
X101850000Y-147570000D01*
X101350000Y-147570000D01*
X100250000Y-147570000D01*
X100000500Y-147570000D01*
X100000500Y-147070000D01*
X100250000Y-147070000D01*
X101350000Y-147070000D01*
X101350000Y-145970000D01*
X101850000Y-145970000D01*
X101850000Y-147070000D01*
X102950000Y-147070000D01*
X102950000Y-146422176D01*
X102943597Y-146362624D01*
X102893352Y-146227910D01*
X102807188Y-146112811D01*
X102692089Y-146026647D01*
X102557375Y-145976402D01*
X102497824Y-145970000D01*
X101850000Y-145970000D01*
X101350000Y-145970000D01*
X100702176Y-145970000D01*
X100642624Y-145976402D01*
X100507910Y-146026647D01*
X100392811Y-146112811D01*
X100306647Y-146227910D01*
X100256402Y-146362624D01*
X100250000Y-146422176D01*
X100250000Y-147070000D01*
X100000500Y-147070000D01*
X100000500Y-140150000D01*
X100269364Y-140150000D01*
X100326569Y-140363492D01*
X100426399Y-140577576D01*
X100561893Y-140771081D01*
X100728918Y-140938106D01*
X100922423Y-141073600D01*
X101136507Y-141173430D01*
X101349999Y-141230635D01*
X101350000Y-141230636D01*
X101350000Y-140150000D01*
X101850000Y-140150000D01*
X101850000Y-141230635D01*
X102063492Y-141173430D01*
X102277576Y-141073600D01*
X102471081Y-140938106D01*
X102638106Y-140771081D01*
X102773600Y-140577576D01*
X102873430Y-140363492D01*
X102930636Y-140150000D01*
X101850000Y-140150000D01*
X101350000Y-140150000D01*
X100269364Y-140150000D01*
X100000500Y-140150000D01*
X100000500Y-137412954D01*
X100014276Y-137360000D01*
X100000500Y-137307046D01*
X100000500Y-134872954D01*
X100014276Y-134820000D01*
X100000500Y-134767046D01*
X100000500Y-134204453D01*
X100014015Y-134148158D01*
X100051615Y-134104135D01*
X100105102Y-134081980D01*
X100162818Y-134086522D01*
X100212181Y-134116772D01*
X100304660Y-134209251D01*
X100332218Y-134251150D01*
X100340927Y-134300537D01*
X100329362Y-134349335D01*
X100326097Y-134356336D01*
X100264936Y-134584592D01*
X100248028Y-134777853D01*
X100233033Y-134820000D01*
X100248028Y-134862147D01*
X100264936Y-135055407D01*
X100290876Y-135152216D01*
X100326097Y-135283663D01*
X100425965Y-135497830D01*
X100561505Y-135691401D01*
X100728599Y-135858495D01*
X100914160Y-135988426D01*
X100953024Y-136032743D01*
X100967035Y-136090000D01*
X100953024Y-136147257D01*
X100914158Y-136191575D01*
X100728611Y-136321497D01*
X100728595Y-136321508D01*
X100561505Y-136488598D01*
X100425965Y-136682170D01*
X100326097Y-136896336D01*
X100264936Y-137124592D01*
X100248028Y-137317853D01*
X100233033Y-137360000D01*
X100248028Y-137402147D01*
X100264936Y-137595407D01*
X100304979Y-137744849D01*
X100326097Y-137823663D01*
X100425965Y-138037830D01*
X100561505Y-138231401D01*
X100728599Y-138398495D01*
X100914597Y-138528732D01*
X100953460Y-138573048D01*
X100967471Y-138630305D01*
X100953461Y-138687561D01*
X100914595Y-138731880D01*
X100728919Y-138861892D01*
X100561890Y-139028921D01*
X100426400Y-139222421D01*
X100326569Y-139436507D01*
X100269364Y-139649999D01*
X100269364Y-139650000D01*
X102930636Y-139650000D01*
X102930635Y-139649999D01*
X102873430Y-139436507D01*
X102773599Y-139222421D01*
X102638109Y-139028921D01*
X102471081Y-138861893D01*
X102285404Y-138731880D01*
X102246539Y-138687562D01*
X102232528Y-138630305D01*
X102246539Y-138573048D01*
X102285402Y-138528732D01*
X102471401Y-138398495D01*
X102638495Y-138231401D01*
X102774035Y-138037830D01*
X102873903Y-137823663D01*
X102935063Y-137595408D01*
X102955659Y-137360000D01*
X102938161Y-137160000D01*
X103234540Y-137160000D01*
X103236525Y-137178884D01*
X103254326Y-137348257D01*
X103312820Y-137528284D01*
X103407466Y-137692216D01*
X103534129Y-137832889D01*
X103687269Y-137944151D01*
X103860197Y-138021144D01*
X104045352Y-138060500D01*
X104045354Y-138060500D01*
X104234646Y-138060500D01*
X104234648Y-138060500D01*
X104358083Y-138034262D01*
X104419803Y-138021144D01*
X104592730Y-137944151D01*
X104673495Y-137885472D01*
X104745870Y-137832889D01*
X104809460Y-137762266D01*
X104872533Y-137692216D01*
X104967179Y-137528284D01*
X105025674Y-137348256D01*
X105045460Y-137160000D01*
X105025674Y-136971744D01*
X104967179Y-136791716D01*
X104967179Y-136791715D01*
X104872535Y-136627786D01*
X104839694Y-136591313D01*
X104797347Y-136544282D01*
X104773736Y-136505751D01*
X104765500Y-136461313D01*
X104765500Y-135318687D01*
X104773736Y-135274249D01*
X104797347Y-135235717D01*
X104872533Y-135152216D01*
X104939711Y-135035861D01*
X104967179Y-134988284D01*
X104984810Y-134934021D01*
X105025674Y-134808256D01*
X105045460Y-134620000D01*
X105025674Y-134431744D01*
X104967179Y-134251716D01*
X104967179Y-134251715D01*
X104872533Y-134087783D01*
X104745870Y-133947110D01*
X104592730Y-133835848D01*
X104419802Y-133758855D01*
X104234648Y-133719500D01*
X104234646Y-133719500D01*
X104045354Y-133719500D01*
X104045352Y-133719500D01*
X103860197Y-133758855D01*
X103687269Y-133835848D01*
X103534129Y-133947110D01*
X103407466Y-134087783D01*
X103312820Y-134251715D01*
X103254326Y-134431742D01*
X103234540Y-134620000D01*
X103254326Y-134808257D01*
X103312820Y-134988284D01*
X103407464Y-135152213D01*
X103407467Y-135152216D01*
X103482652Y-135235717D01*
X103506264Y-135274249D01*
X103514500Y-135318687D01*
X103514500Y-136461313D01*
X103506264Y-136505751D01*
X103482652Y-136544282D01*
X103454859Y-136575150D01*
X103407464Y-136627786D01*
X103312820Y-136791715D01*
X103254326Y-136971742D01*
X103234540Y-137159999D01*
X103234540Y-137160000D01*
X102938161Y-137160000D01*
X102935063Y-137124592D01*
X102873903Y-136896337D01*
X102774035Y-136682171D01*
X102638495Y-136488599D01*
X102471401Y-136321505D01*
X102285839Y-136191573D01*
X102246975Y-136147257D01*
X102232964Y-136090000D01*
X102246975Y-136032743D01*
X102285839Y-135988426D01*
X102471401Y-135858495D01*
X102638495Y-135691401D01*
X102774035Y-135497830D01*
X102873903Y-135283663D01*
X102935063Y-135055408D01*
X102955659Y-134820000D01*
X102935063Y-134584592D01*
X102873903Y-134356337D01*
X102774035Y-134142171D01*
X102638495Y-133948599D01*
X102471401Y-133781505D01*
X102285839Y-133651573D01*
X102246975Y-133607257D01*
X102232964Y-133550000D01*
X102246975Y-133492743D01*
X102285839Y-133448426D01*
X102471401Y-133318495D01*
X102638495Y-133151401D01*
X102774035Y-132957830D01*
X102873903Y-132743663D01*
X102935063Y-132515408D01*
X102955659Y-132280000D01*
X102953904Y-132259946D01*
X102935063Y-132044592D01*
X102894107Y-131891742D01*
X102873903Y-131816337D01*
X102774035Y-131602171D01*
X102638495Y-131408599D01*
X102471401Y-131241505D01*
X102285839Y-131111573D01*
X102246976Y-131067257D01*
X102232965Y-131010000D01*
X102246976Y-130952743D01*
X102285839Y-130908426D01*
X102471401Y-130778495D01*
X102638495Y-130611401D01*
X102774035Y-130417830D01*
X102873903Y-130203663D01*
X102935063Y-129975408D01*
X102955659Y-129740000D01*
X102935063Y-129504592D01*
X102873903Y-129276337D01*
X102774035Y-129062171D01*
X102638495Y-128868599D01*
X102471401Y-128701505D01*
X102285839Y-128571573D01*
X102246976Y-128527257D01*
X102232965Y-128470000D01*
X102246976Y-128412743D01*
X102285839Y-128368426D01*
X102471401Y-128238495D01*
X102638495Y-128071401D01*
X102774035Y-127877830D01*
X102873903Y-127663663D01*
X102935063Y-127435408D01*
X102955659Y-127200000D01*
X102935063Y-126964592D01*
X102873903Y-126736337D01*
X102774035Y-126522171D01*
X102638495Y-126328599D01*
X102471401Y-126161505D01*
X102285839Y-126031573D01*
X102246975Y-125987257D01*
X102232964Y-125930000D01*
X102246975Y-125872743D01*
X102285839Y-125828426D01*
X102471401Y-125698495D01*
X102638495Y-125531401D01*
X102774035Y-125337830D01*
X102873903Y-125123663D01*
X102935063Y-124895408D01*
X102955659Y-124660000D01*
X102935063Y-124424592D01*
X102873903Y-124196337D01*
X102774035Y-123982171D01*
X102638495Y-123788599D01*
X102471401Y-123621505D01*
X102285839Y-123491573D01*
X102246975Y-123447257D01*
X102232964Y-123390000D01*
X102246975Y-123332743D01*
X102285839Y-123288426D01*
X102471401Y-123158495D01*
X102638495Y-122991401D01*
X102774035Y-122797830D01*
X102873903Y-122583663D01*
X102935063Y-122355408D01*
X102955659Y-122120000D01*
X102935063Y-121884592D01*
X102873903Y-121656337D01*
X102774035Y-121442171D01*
X102638495Y-121248599D01*
X102471401Y-121081505D01*
X102285839Y-120951573D01*
X102246974Y-120907255D01*
X102232964Y-120849999D01*
X102246975Y-120792742D01*
X102285837Y-120748428D01*
X102471401Y-120618495D01*
X102638495Y-120451401D01*
X102774035Y-120257830D01*
X102873903Y-120043663D01*
X102935063Y-119815408D01*
X102955659Y-119580000D01*
X102935063Y-119344592D01*
X102873903Y-119116337D01*
X102774035Y-118902171D01*
X102638495Y-118708599D01*
X102471401Y-118541505D01*
X102285839Y-118411573D01*
X102246974Y-118367255D01*
X102232964Y-118309999D01*
X102246975Y-118252742D01*
X102285837Y-118208428D01*
X102471401Y-118078495D01*
X102638495Y-117911401D01*
X102774035Y-117717830D01*
X102873903Y-117503663D01*
X102935063Y-117275408D01*
X102955659Y-117040000D01*
X102935063Y-116804592D01*
X102873903Y-116576337D01*
X102774035Y-116362171D01*
X102638495Y-116168599D01*
X102471401Y-116001505D01*
X102285839Y-115871573D01*
X102246975Y-115827257D01*
X102232964Y-115770000D01*
X102246975Y-115712743D01*
X102285839Y-115668426D01*
X102325522Y-115640640D01*
X103868898Y-115640640D01*
X103888731Y-115867329D01*
X103947628Y-116087137D01*
X104043799Y-116293375D01*
X104174320Y-116479780D01*
X104335226Y-116640686D01*
X104495990Y-116753253D01*
X104534856Y-116797571D01*
X104548867Y-116854828D01*
X104548867Y-126732556D01*
X104532254Y-126794556D01*
X104510799Y-126831715D01*
X104452305Y-127011742D01*
X104432519Y-127199999D01*
X104452305Y-127388257D01*
X104510799Y-127568284D01*
X104605445Y-127732216D01*
X104732108Y-127872889D01*
X104885248Y-127984151D01*
X105058176Y-128061144D01*
X105243331Y-128100500D01*
X105243333Y-128100500D01*
X105432625Y-128100500D01*
X105432627Y-128100500D01*
X105569526Y-128071401D01*
X105617782Y-128061144D01*
X105790709Y-127984151D01*
X105943850Y-127872888D01*
X106070512Y-127732216D01*
X106165158Y-127568284D01*
X106223653Y-127388256D01*
X106243439Y-127200000D01*
X106223653Y-127011744D01*
X106165158Y-126831716D01*
X106165158Y-126831715D01*
X106070512Y-126667783D01*
X105943852Y-126527114D01*
X105943851Y-126527113D01*
X105943850Y-126527112D01*
X105850979Y-126459638D01*
X105813382Y-126415617D01*
X105799867Y-126359322D01*
X105799867Y-116854828D01*
X105813878Y-116797571D01*
X105852744Y-116753253D01*
X105949409Y-116685568D01*
X106013506Y-116640687D01*
X106174414Y-116479779D01*
X106304935Y-116293374D01*
X106401106Y-116087136D01*
X106460002Y-115867332D01*
X106479835Y-115640640D01*
X106460002Y-115413948D01*
X106401106Y-115194144D01*
X106304935Y-114987906D01*
X106287959Y-114963662D01*
X106174413Y-114801499D01*
X106013507Y-114640593D01*
X105827102Y-114510072D01*
X105620864Y-114413901D01*
X105401056Y-114355004D01*
X105174367Y-114335171D01*
X104947677Y-114355004D01*
X104727869Y-114413901D01*
X104521631Y-114510072D01*
X104335226Y-114640593D01*
X104174320Y-114801499D01*
X104043799Y-114987904D01*
X103947628Y-115194142D01*
X103888731Y-115413950D01*
X103868898Y-115640640D01*
X102325522Y-115640640D01*
X102471401Y-115538495D01*
X102638495Y-115371401D01*
X102774035Y-115177830D01*
X102873903Y-114963663D01*
X102935063Y-114735408D01*
X102955659Y-114500000D01*
X102935063Y-114264592D01*
X102873903Y-114036337D01*
X102774035Y-113822171D01*
X102638495Y-113628599D01*
X102516569Y-113506673D01*
X102485273Y-113453927D01*
X102483084Y-113392634D01*
X102510537Y-113337789D01*
X102560916Y-113302810D01*
X102692331Y-113253796D01*
X102807546Y-113167546D01*
X102893796Y-113052331D01*
X102944091Y-112917483D01*
X102950500Y-112857873D01*
X102950499Y-111062128D01*
X102944091Y-111002517D01*
X102893796Y-110867669D01*
X102807546Y-110752454D01*
X102692331Y-110666204D01*
X102557483Y-110615909D01*
X102497873Y-110609500D01*
X102497869Y-110609500D01*
X102497826Y-110609500D01*
X101174499Y-110609500D01*
X101112500Y-110592888D01*
X101067113Y-110547501D01*
X101050500Y-110485501D01*
X101050500Y-107499527D01*
X101064015Y-107443232D01*
X101101616Y-107399208D01*
X101129861Y-107378687D01*
X101165371Y-107352888D01*
X101292033Y-107212216D01*
X101386679Y-107048284D01*
X101445174Y-106868256D01*
X101464960Y-106680000D01*
X101445174Y-106491744D01*
X101386679Y-106311716D01*
X101386679Y-106311715D01*
X101292033Y-106147783D01*
X101165370Y-106007110D01*
X101012230Y-105895848D01*
X100839302Y-105818855D01*
X100654148Y-105779500D01*
X100654146Y-105779500D01*
X100464854Y-105779500D01*
X100464852Y-105779500D01*
X100279699Y-105818854D01*
X100174935Y-105865499D01*
X100114771Y-105875837D01*
X100056965Y-105856214D01*
X100015527Y-105811387D01*
X100000500Y-105752219D01*
X100000500Y-105158509D01*
X103773867Y-105158509D01*
X103780276Y-105218124D01*
X103790133Y-105244551D01*
X103830571Y-105352971D01*
X103916821Y-105468186D01*
X104032036Y-105554436D01*
X104166884Y-105604731D01*
X104226494Y-105611140D01*
X104424867Y-105611140D01*
X104486867Y-105627753D01*
X104532254Y-105673140D01*
X104548867Y-105735140D01*
X104548867Y-106806452D01*
X104534856Y-106863709D01*
X104495990Y-106908027D01*
X104335226Y-107020593D01*
X104174320Y-107181499D01*
X104043799Y-107367904D01*
X103947628Y-107574142D01*
X103888731Y-107793950D01*
X103868898Y-108020640D01*
X103888731Y-108247329D01*
X103947628Y-108467137D01*
X104043799Y-108673375D01*
X104174320Y-108859780D01*
X104335226Y-109020686D01*
X104521631Y-109151207D01*
X104521632Y-109151207D01*
X104521633Y-109151208D01*
X104727871Y-109247379D01*
X104947675Y-109306275D01*
X105174367Y-109326108D01*
X105401059Y-109306275D01*
X105620863Y-109247379D01*
X105827101Y-109151208D01*
X105879257Y-109114687D01*
X105934550Y-109093278D01*
X105993465Y-109099991D01*
X106042528Y-109133292D01*
X106074129Y-109168389D01*
X106227269Y-109279651D01*
X106400197Y-109356644D01*
X106585352Y-109396000D01*
X106585354Y-109396000D01*
X106644548Y-109396000D01*
X106692001Y-109405439D01*
X106732229Y-109432319D01*
X107143181Y-109843272D01*
X107170061Y-109883500D01*
X107179500Y-109930953D01*
X107179500Y-131975863D01*
X107166712Y-132030707D01*
X107130987Y-132074239D01*
X107079691Y-132097480D01*
X107023407Y-132095638D01*
X106906691Y-132064364D01*
X106680000Y-132044531D01*
X106453310Y-132064364D01*
X106233502Y-132123261D01*
X106027264Y-132219432D01*
X105840859Y-132349953D01*
X105679953Y-132510859D01*
X105549432Y-132697264D01*
X105453261Y-132903502D01*
X105394364Y-133123310D01*
X105374531Y-133350000D01*
X105394364Y-133576689D01*
X105453261Y-133796497D01*
X105549432Y-134002735D01*
X105679953Y-134189140D01*
X105840859Y-134350046D01*
X106027264Y-134480567D01*
X106027265Y-134480567D01*
X106027266Y-134480568D01*
X106233504Y-134576739D01*
X106453308Y-134635635D01*
X106680000Y-134655468D01*
X106906692Y-134635635D01*
X106949626Y-134624131D01*
X107023407Y-134604362D01*
X107079691Y-134602520D01*
X107130987Y-134625761D01*
X107166712Y-134669293D01*
X107179500Y-134724137D01*
X107179500Y-139534546D01*
X107170061Y-139581999D01*
X107143180Y-139622228D01*
X107094820Y-139670587D01*
X107039233Y-139702680D01*
X106975047Y-139702680D01*
X106906690Y-139684364D01*
X106679999Y-139664531D01*
X106453310Y-139684364D01*
X106233502Y-139743261D01*
X106027264Y-139839432D01*
X105840859Y-139969953D01*
X105679953Y-140130859D01*
X105549432Y-140317264D01*
X105453261Y-140523502D01*
X105394364Y-140743310D01*
X105374531Y-140970000D01*
X105394364Y-141196689D01*
X105453261Y-141416497D01*
X105549432Y-141622735D01*
X105679953Y-141809140D01*
X105840859Y-141970046D01*
X106001623Y-142082613D01*
X106040489Y-142126931D01*
X106054500Y-142184188D01*
X106054500Y-146044774D01*
X106040489Y-146102031D01*
X106001623Y-146146349D01*
X105808598Y-146281505D01*
X105641505Y-146448598D01*
X105505965Y-146642170D01*
X105406097Y-146856336D01*
X105344936Y-147084592D01*
X105324340Y-147320000D01*
X105344936Y-147555407D01*
X105389709Y-147722501D01*
X105406097Y-147783663D01*
X105505965Y-147997830D01*
X105641505Y-148191401D01*
X105808599Y-148358495D01*
X106002170Y-148494035D01*
X106216337Y-148593903D01*
X106444591Y-148655062D01*
X106444592Y-148655063D01*
X106679999Y-148675659D01*
X106679999Y-148675658D01*
X106680000Y-148675659D01*
X106915408Y-148655063D01*
X107143663Y-148593903D01*
X107357830Y-148494035D01*
X107551401Y-148358495D01*
X107718495Y-148191401D01*
X107854035Y-147997830D01*
X107953903Y-147783663D01*
X108015063Y-147555408D01*
X108035659Y-147320000D01*
X108015063Y-147084592D01*
X107953903Y-146856337D01*
X107854035Y-146642171D01*
X107718495Y-146448599D01*
X107551401Y-146281505D01*
X107358374Y-146146346D01*
X107319511Y-146102030D01*
X107305500Y-146044773D01*
X107305500Y-142184188D01*
X107319511Y-142126931D01*
X107358377Y-142082613D01*
X107519140Y-141970046D01*
X107680046Y-141809140D01*
X107810567Y-141622735D01*
X107810568Y-141622734D01*
X107906739Y-141416496D01*
X107965635Y-141196692D01*
X107980246Y-141029684D01*
X109334666Y-141029684D01*
X109354499Y-141256373D01*
X109413396Y-141476181D01*
X109509567Y-141682419D01*
X109640088Y-141868824D01*
X109800994Y-142029730D01*
X109961758Y-142142297D01*
X110000624Y-142186615D01*
X110014635Y-142243872D01*
X110014635Y-146117391D01*
X110012370Y-146137897D01*
X110014574Y-146208008D01*
X110014635Y-146211903D01*
X110014635Y-146239484D01*
X110015138Y-146243469D01*
X110016053Y-146255102D01*
X110017425Y-146298761D01*
X110023014Y-146317995D01*
X110026960Y-146337051D01*
X110029470Y-146356927D01*
X110045549Y-146397539D01*
X110049332Y-146408586D01*
X110061517Y-146450526D01*
X110071715Y-146467770D01*
X110080271Y-146485235D01*
X110087649Y-146503867D01*
X110087650Y-146503868D01*
X110113315Y-146539194D01*
X110119728Y-146548957D01*
X110141961Y-146586551D01*
X110141964Y-146586554D01*
X110141965Y-146586555D01*
X110156130Y-146600720D01*
X110168762Y-146615510D01*
X110180541Y-146631722D01*
X110214193Y-146659561D01*
X110222834Y-146667424D01*
X110419762Y-146864352D01*
X110451856Y-146919939D01*
X110451856Y-146984126D01*
X110424936Y-147084593D01*
X110404340Y-147320000D01*
X110424936Y-147555407D01*
X110469709Y-147722501D01*
X110486097Y-147783663D01*
X110585965Y-147997830D01*
X110721505Y-148191401D01*
X110888599Y-148358495D01*
X111082170Y-148494035D01*
X111296337Y-148593903D01*
X111524591Y-148655062D01*
X111524592Y-148655063D01*
X111759999Y-148675659D01*
X111759999Y-148675658D01*
X111760000Y-148675659D01*
X111995408Y-148655063D01*
X112223663Y-148593903D01*
X112437830Y-148494035D01*
X112631401Y-148358495D01*
X112798495Y-148191401D01*
X112934035Y-147997830D01*
X113033903Y-147783663D01*
X113091153Y-147570000D01*
X115490000Y-147570000D01*
X115490000Y-148217824D01*
X115496402Y-148277375D01*
X115546647Y-148412089D01*
X115632811Y-148527188D01*
X115747910Y-148613352D01*
X115882624Y-148663597D01*
X115942176Y-148670000D01*
X116590000Y-148670000D01*
X116590000Y-147570000D01*
X117090000Y-147570000D01*
X117090000Y-148670000D01*
X117737824Y-148670000D01*
X117797375Y-148663597D01*
X117932089Y-148613352D01*
X118047188Y-148527188D01*
X118133352Y-148412089D01*
X118183597Y-148277375D01*
X118190000Y-148217824D01*
X118190000Y-147570000D01*
X117090000Y-147570000D01*
X116590000Y-147570000D01*
X115490000Y-147570000D01*
X113091153Y-147570000D01*
X113095063Y-147555408D01*
X113115659Y-147320000D01*
X113095063Y-147084592D01*
X113091153Y-147070000D01*
X115490000Y-147070000D01*
X116590000Y-147070000D01*
X116590000Y-145970000D01*
X117090000Y-145970000D01*
X117090000Y-147070000D01*
X118190000Y-147070000D01*
X118190000Y-146422176D01*
X118183597Y-146362624D01*
X118133352Y-146227910D01*
X118047188Y-146112811D01*
X117932089Y-146026647D01*
X117797375Y-145976402D01*
X117737824Y-145970000D01*
X117090000Y-145970000D01*
X116590000Y-145970000D01*
X115942176Y-145970000D01*
X115882624Y-145976402D01*
X115747910Y-146026647D01*
X115632811Y-146112811D01*
X115546647Y-146227910D01*
X115496402Y-146362624D01*
X115490000Y-146422176D01*
X115490000Y-147070000D01*
X113091153Y-147070000D01*
X113033903Y-146856337D01*
X112934035Y-146642171D01*
X112798495Y-146448599D01*
X112631401Y-146281505D01*
X112437830Y-146145965D01*
X112223663Y-146046097D01*
X112151074Y-146026647D01*
X111995407Y-145984936D01*
X111760000Y-145964340D01*
X111524591Y-145984936D01*
X111424125Y-146011855D01*
X111359939Y-146011855D01*
X111304352Y-145979761D01*
X111301954Y-145977363D01*
X111275074Y-145937135D01*
X111265635Y-145889682D01*
X111265635Y-142243872D01*
X111279646Y-142186615D01*
X111318512Y-142142297D01*
X111479275Y-142029730D01*
X111640181Y-141868824D01*
X111770702Y-141682419D01*
X111770703Y-141682418D01*
X111866874Y-141476180D01*
X111925770Y-141256376D01*
X111945603Y-141029684D01*
X111925770Y-140802992D01*
X111866874Y-140583188D01*
X111770703Y-140376950D01*
X111748895Y-140345805D01*
X111640181Y-140190543D01*
X111479275Y-140029637D01*
X111318512Y-139917071D01*
X111279646Y-139872753D01*
X111265635Y-139815496D01*
X111265635Y-138590317D01*
X111275074Y-138542864D01*
X111301954Y-138502636D01*
X111565565Y-138239026D01*
X113574526Y-138239026D01*
X113647515Y-138290133D01*
X113853673Y-138386266D01*
X114073397Y-138445141D01*
X114299999Y-138464966D01*
X114526602Y-138445141D01*
X114746326Y-138386266D01*
X114952480Y-138290134D01*
X115025472Y-138239025D01*
X114300001Y-137513553D01*
X114300000Y-137513553D01*
X113574526Y-138239025D01*
X113574526Y-138239026D01*
X111565565Y-138239026D01*
X111707772Y-138096819D01*
X111748000Y-138069939D01*
X111795453Y-138060500D01*
X111854648Y-138060500D01*
X111978083Y-138034262D01*
X112039803Y-138021144D01*
X112212730Y-137944151D01*
X112293495Y-137885472D01*
X112365870Y-137832889D01*
X112429460Y-137762266D01*
X112492533Y-137692216D01*
X112587179Y-137528284D01*
X112645674Y-137348256D01*
X112665460Y-137160000D01*
X112995033Y-137160000D01*
X113014858Y-137386602D01*
X113073733Y-137606326D01*
X113169866Y-137812484D01*
X113220972Y-137885471D01*
X113220974Y-137885472D01*
X113946446Y-137160001D01*
X114653553Y-137160001D01*
X115379025Y-137885472D01*
X115430131Y-137812484D01*
X115437340Y-137797026D01*
X115483097Y-137744849D01*
X115549722Y-137725428D01*
X115616348Y-137744847D01*
X115662106Y-137797023D01*
X115669432Y-137812735D01*
X115799953Y-137999140D01*
X115960859Y-138160046D01*
X116147264Y-138290567D01*
X116147265Y-138290567D01*
X116147266Y-138290568D01*
X116353504Y-138386739D01*
X116573308Y-138445635D01*
X116800000Y-138465468D01*
X117026692Y-138445635D01*
X117199330Y-138399376D01*
X117262644Y-138399147D01*
X117317820Y-138430207D01*
X117335076Y-138458880D01*
X117338410Y-138456909D01*
X117356580Y-138487635D01*
X117365136Y-138505100D01*
X117372514Y-138523732D01*
X117372515Y-138523733D01*
X117398180Y-138559059D01*
X117404593Y-138568822D01*
X117426826Y-138606416D01*
X117426829Y-138606419D01*
X117426830Y-138606420D01*
X117440995Y-138620585D01*
X117453627Y-138635375D01*
X117465406Y-138651587D01*
X117499058Y-138679426D01*
X117507699Y-138687289D01*
X119360586Y-140540177D01*
X119392680Y-140595764D01*
X119392680Y-140659950D01*
X119374364Y-140728307D01*
X119354531Y-140955000D01*
X119374364Y-141181689D01*
X119433261Y-141401497D01*
X119529432Y-141607735D01*
X119659953Y-141794140D01*
X119820859Y-141955046D01*
X120007264Y-142085567D01*
X120007265Y-142085567D01*
X120007266Y-142085568D01*
X120213504Y-142181739D01*
X120433308Y-142240635D01*
X120584435Y-142253856D01*
X120659999Y-142260468D01*
X120659999Y-142260467D01*
X120660000Y-142260468D01*
X120886692Y-142240635D01*
X121106496Y-142181739D01*
X121312734Y-142085568D01*
X121499139Y-141955047D01*
X121660047Y-141794139D01*
X121790568Y-141607734D01*
X121886739Y-141401496D01*
X121945635Y-141181692D01*
X121965468Y-140955000D01*
X121945635Y-140728308D01*
X121886739Y-140508504D01*
X121790568Y-140302266D01*
X121775232Y-140280364D01*
X121660046Y-140115859D01*
X121499140Y-139954953D01*
X121312736Y-139824433D01*
X121293571Y-139815496D01*
X121254722Y-139797380D01*
X121202548Y-139751623D01*
X121183129Y-139684997D01*
X121202549Y-139618372D01*
X121254721Y-139572619D01*
X121312734Y-139545568D01*
X121499139Y-139415047D01*
X121660047Y-139254139D01*
X121790568Y-139067734D01*
X121886739Y-138861496D01*
X121945635Y-138641692D01*
X121965468Y-138415000D01*
X121962995Y-138386739D01*
X121956737Y-138315209D01*
X121945635Y-138188308D01*
X121886739Y-137968504D01*
X121790568Y-137762266D01*
X121778371Y-137744847D01*
X121660046Y-137575859D01*
X121499140Y-137414953D01*
X121312733Y-137284431D01*
X121254725Y-137257382D01*
X121202549Y-137211625D01*
X121183129Y-137145000D01*
X121202549Y-137078375D01*
X121254725Y-137032618D01*
X121281497Y-137020134D01*
X121312734Y-137005568D01*
X121499139Y-136875047D01*
X121660047Y-136714139D01*
X121790568Y-136527734D01*
X121886739Y-136321496D01*
X121945635Y-136101692D01*
X121965468Y-135875000D01*
X121945635Y-135648308D01*
X121886739Y-135428504D01*
X121790568Y-135222266D01*
X121673733Y-135055407D01*
X121660046Y-135035859D01*
X121499140Y-134874953D01*
X121312733Y-134744431D01*
X121271727Y-134725310D01*
X121254724Y-134717381D01*
X121202549Y-134671625D01*
X121183129Y-134605000D01*
X121202549Y-134538375D01*
X121254725Y-134492618D01*
X121312734Y-134465568D01*
X121499139Y-134335047D01*
X121660047Y-134174139D01*
X121790568Y-133987734D01*
X121886739Y-133781496D01*
X121945635Y-133561692D01*
X121965468Y-133335000D01*
X121945635Y-133108308D01*
X121886739Y-132888504D01*
X121790568Y-132682266D01*
X121781984Y-132670007D01*
X121660046Y-132495859D01*
X121499140Y-132334953D01*
X121312733Y-132204431D01*
X121254725Y-132177382D01*
X121202549Y-132131625D01*
X121187501Y-132080000D01*
X126094540Y-132080000D01*
X126114326Y-132268257D01*
X126172820Y-132448284D01*
X126267464Y-132612213D01*
X126267467Y-132612216D01*
X126342652Y-132695717D01*
X126366264Y-132734249D01*
X126374500Y-132778687D01*
X126374500Y-139592256D01*
X126372235Y-139612762D01*
X126374439Y-139682873D01*
X126374500Y-139686768D01*
X126374500Y-139714349D01*
X126375003Y-139718334D01*
X126375918Y-139729967D01*
X126377290Y-139773626D01*
X126382879Y-139792860D01*
X126386825Y-139811916D01*
X126389335Y-139831792D01*
X126405414Y-139872404D01*
X126409197Y-139883451D01*
X126421382Y-139925391D01*
X126431580Y-139942635D01*
X126440136Y-139960100D01*
X126447514Y-139978732D01*
X126447515Y-139978733D01*
X126473180Y-140014059D01*
X126479593Y-140023822D01*
X126501826Y-140061416D01*
X126501829Y-140061419D01*
X126501830Y-140061420D01*
X126515995Y-140075585D01*
X126528627Y-140090375D01*
X126540406Y-140106587D01*
X126574058Y-140134426D01*
X126582699Y-140142289D01*
X126980586Y-140540177D01*
X127012680Y-140595764D01*
X127012680Y-140659950D01*
X126994364Y-140728307D01*
X126974531Y-140955000D01*
X126994364Y-141181689D01*
X127053261Y-141401497D01*
X127149432Y-141607735D01*
X127279953Y-141794140D01*
X127440859Y-141955046D01*
X127627264Y-142085567D01*
X127627265Y-142085567D01*
X127627266Y-142085568D01*
X127833504Y-142181739D01*
X128053308Y-142240635D01*
X128204435Y-142253856D01*
X128279999Y-142260468D01*
X128279999Y-142260467D01*
X128280000Y-142260468D01*
X128506692Y-142240635D01*
X128726496Y-142181739D01*
X128932734Y-142085568D01*
X129119139Y-141955047D01*
X129280047Y-141794139D01*
X129410568Y-141607734D01*
X129506739Y-141401496D01*
X129565635Y-141181692D01*
X129585468Y-140955000D01*
X129565635Y-140728308D01*
X129506739Y-140508504D01*
X129410568Y-140302266D01*
X129395232Y-140280364D01*
X129303951Y-140150000D01*
X145989364Y-140150000D01*
X146046569Y-140363492D01*
X146146399Y-140577576D01*
X146281893Y-140771081D01*
X146448918Y-140938106D01*
X146642423Y-141073600D01*
X146856507Y-141173430D01*
X147069999Y-141230635D01*
X147070000Y-141230636D01*
X147070000Y-140150000D01*
X147570000Y-140150000D01*
X147570000Y-141230635D01*
X147783492Y-141173430D01*
X147997576Y-141073600D01*
X148191081Y-140938106D01*
X148358106Y-140771081D01*
X148493600Y-140577576D01*
X148593430Y-140363492D01*
X148650636Y-140150000D01*
X147570000Y-140150000D01*
X147070000Y-140150000D01*
X145989364Y-140150000D01*
X129303951Y-140150000D01*
X129280046Y-140115859D01*
X129119140Y-139954953D01*
X128932736Y-139824433D01*
X128913571Y-139815496D01*
X128874722Y-139797380D01*
X128822548Y-139751623D01*
X128803129Y-139684997D01*
X128822549Y-139618372D01*
X128874721Y-139572619D01*
X128932734Y-139545568D01*
X129119139Y-139415047D01*
X129280047Y-139254139D01*
X129410568Y-139067734D01*
X129506739Y-138861496D01*
X129565635Y-138641692D01*
X129585468Y-138415000D01*
X129582995Y-138386739D01*
X129576737Y-138315209D01*
X129565635Y-138188308D01*
X129547319Y-138119951D01*
X129547319Y-138055763D01*
X129579411Y-138000178D01*
X131439590Y-136140000D01*
X135881128Y-136140000D01*
X135933733Y-136336326D01*
X136029865Y-136542480D01*
X136160341Y-136728819D01*
X136321180Y-136889658D01*
X136507519Y-137020134D01*
X136713673Y-137116266D01*
X136909999Y-137168871D01*
X136910000Y-137168872D01*
X136910000Y-136140000D01*
X137410000Y-136140000D01*
X137410000Y-137168871D01*
X137606326Y-137116266D01*
X137812480Y-137020134D01*
X137998819Y-136889658D01*
X138159658Y-136728819D01*
X138290134Y-136542480D01*
X138386266Y-136336326D01*
X138438872Y-136140000D01*
X137410000Y-136140000D01*
X136910000Y-136140000D01*
X135881128Y-136140000D01*
X131439590Y-136140000D01*
X131939590Y-135640000D01*
X135881128Y-135640000D01*
X136910000Y-135640000D01*
X136910000Y-134611128D01*
X137410000Y-134611128D01*
X137410000Y-135640000D01*
X138438872Y-135640000D01*
X138438871Y-135639999D01*
X138386266Y-135443673D01*
X138290134Y-135237519D01*
X138159658Y-135051180D01*
X137998819Y-134890341D01*
X137812480Y-134759865D01*
X137606326Y-134663733D01*
X137410000Y-134611128D01*
X136910000Y-134611128D01*
X136909999Y-134611128D01*
X136713673Y-134663733D01*
X136507519Y-134759865D01*
X136321180Y-134890341D01*
X136160341Y-135051180D01*
X136029865Y-135237519D01*
X135933733Y-135443673D01*
X135881128Y-135639999D01*
X135881128Y-135640000D01*
X131939590Y-135640000D01*
X132022771Y-135556819D01*
X132063000Y-135529939D01*
X132110453Y-135520500D01*
X132174648Y-135520500D01*
X132298083Y-135494262D01*
X132359803Y-135481144D01*
X132532730Y-135404151D01*
X132685871Y-135292888D01*
X132812533Y-135152216D01*
X132907179Y-134988284D01*
X132965674Y-134808256D01*
X132985460Y-134620000D01*
X132965674Y-134431744D01*
X132907179Y-134251716D01*
X132907179Y-134251715D01*
X132812533Y-134087783D01*
X132685870Y-133947110D01*
X132532730Y-133835848D01*
X132359802Y-133758855D01*
X132174648Y-133719500D01*
X132174646Y-133719500D01*
X131985354Y-133719500D01*
X131985352Y-133719500D01*
X131800197Y-133758855D01*
X131627269Y-133835848D01*
X131474129Y-133947110D01*
X131347466Y-134087783D01*
X131252820Y-134251715D01*
X131194326Y-134431742D01*
X131177266Y-134594062D01*
X131165866Y-134634484D01*
X131141626Y-134668781D01*
X129792819Y-136017588D01*
X129741392Y-136048489D01*
X129681477Y-136051629D01*
X129627102Y-136026273D01*
X129590995Y-135978357D01*
X129581610Y-135919099D01*
X129585468Y-135874999D01*
X129565635Y-135648310D01*
X129565635Y-135648308D01*
X129547319Y-135579951D01*
X129547319Y-135515763D01*
X129579411Y-135460178D01*
X130090554Y-134949035D01*
X130106650Y-134936141D01*
X130108638Y-134934022D01*
X130108642Y-134934021D01*
X130154713Y-134884958D01*
X130157331Y-134882258D01*
X130176885Y-134862706D01*
X130179346Y-134859533D01*
X130186921Y-134850662D01*
X130216827Y-134818817D01*
X130226482Y-134801253D01*
X130237159Y-134784999D01*
X130249438Y-134769171D01*
X130266783Y-134729087D01*
X130271925Y-134718591D01*
X130273816Y-134715152D01*
X130292962Y-134680327D01*
X130297944Y-134660919D01*
X130304246Y-134642515D01*
X130312202Y-134624131D01*
X130319034Y-134580987D01*
X130321398Y-134569573D01*
X130332265Y-134527254D01*
X130332265Y-134507219D01*
X130333792Y-134487820D01*
X130334377Y-134484126D01*
X130336925Y-134468039D01*
X130332815Y-134424560D01*
X130332265Y-134412891D01*
X130332265Y-133631521D01*
X130340501Y-133587083D01*
X130364112Y-133548551D01*
X130439298Y-133465050D01*
X130448897Y-133448425D01*
X130533944Y-133301118D01*
X130544654Y-133268157D01*
X130592439Y-133121090D01*
X130612225Y-132932834D01*
X130592439Y-132744578D01*
X130535892Y-132570545D01*
X130533944Y-132564549D01*
X130439298Y-132400617D01*
X130312638Y-132259948D01*
X130312637Y-132259947D01*
X130312636Y-132259946D01*
X130221706Y-132193882D01*
X130186884Y-132155003D01*
X130171145Y-132105234D01*
X130170159Y-132094806D01*
X130170160Y-132094804D01*
X130166050Y-132051323D01*
X130165500Y-132039656D01*
X130165500Y-130579026D01*
X131354526Y-130579026D01*
X131427515Y-130630133D01*
X131633673Y-130726266D01*
X131853397Y-130785141D01*
X132080000Y-130804966D01*
X132306602Y-130785141D01*
X132526326Y-130726266D01*
X132732480Y-130630134D01*
X132805472Y-130579025D01*
X132080001Y-129853553D01*
X132080000Y-129853553D01*
X131354526Y-130579025D01*
X131354526Y-130579026D01*
X130165500Y-130579026D01*
X130165500Y-129500000D01*
X130775033Y-129500000D01*
X130794858Y-129726602D01*
X130853733Y-129946326D01*
X130949866Y-130152484D01*
X131000972Y-130225471D01*
X131000974Y-130225472D01*
X131726446Y-129500001D01*
X132433553Y-129500001D01*
X133159025Y-130225472D01*
X133210134Y-130152480D01*
X133306266Y-129946326D01*
X133365141Y-129726602D01*
X133384966Y-129500000D01*
X133365141Y-129273397D01*
X133306266Y-129053673D01*
X133210133Y-128847515D01*
X133159025Y-128774526D01*
X132433553Y-129500000D01*
X132433553Y-129500001D01*
X131726446Y-129500001D01*
X131726446Y-129500000D01*
X131000973Y-128774526D01*
X131000973Y-128774527D01*
X130949865Y-128847516D01*
X130853733Y-129053672D01*
X130794858Y-129273397D01*
X130775033Y-129500000D01*
X130165500Y-129500000D01*
X130165500Y-127698687D01*
X130173736Y-127654249D01*
X130197347Y-127615717D01*
X130272533Y-127532216D01*
X130339711Y-127415861D01*
X130367179Y-127368284D01*
X130399129Y-127269953D01*
X130425674Y-127188256D01*
X130445460Y-127000000D01*
X130445460Y-126999999D01*
X130774531Y-126999999D01*
X130794364Y-127226689D01*
X130853261Y-127446497D01*
X130949432Y-127652735D01*
X131079953Y-127839140D01*
X131240859Y-128000046D01*
X131427264Y-128130567D01*
X131427265Y-128130567D01*
X131427266Y-128130568D01*
X131442975Y-128137893D01*
X131495150Y-128183649D01*
X131514570Y-128250274D01*
X131495151Y-128316899D01*
X131442977Y-128362656D01*
X131427517Y-128369865D01*
X131354527Y-128420973D01*
X131354526Y-128420973D01*
X132080000Y-129146446D01*
X132080001Y-129146446D01*
X132805472Y-128420974D01*
X132805471Y-128420972D01*
X132732483Y-128369866D01*
X132717023Y-128362657D01*
X132664847Y-128316899D01*
X132645428Y-128250273D01*
X132664849Y-128183647D01*
X132717023Y-128137893D01*
X132732734Y-128130568D01*
X132919139Y-128000047D01*
X133080047Y-127839139D01*
X133210568Y-127652734D01*
X133306739Y-127446496D01*
X133365635Y-127226692D01*
X133385468Y-127000000D01*
X133365635Y-126773308D01*
X133306739Y-126553504D01*
X133210568Y-126347266D01*
X133197497Y-126328599D01*
X133080046Y-126160859D01*
X132919140Y-125999953D01*
X132732735Y-125869432D01*
X132526497Y-125773261D01*
X132306689Y-125714364D01*
X132080000Y-125694531D01*
X131853310Y-125714364D01*
X131633502Y-125773261D01*
X131427264Y-125869432D01*
X131240859Y-125999953D01*
X131079953Y-126160859D01*
X130949432Y-126347264D01*
X130853261Y-126553502D01*
X130794364Y-126773310D01*
X130774531Y-126999999D01*
X130445460Y-126999999D01*
X130425674Y-126811744D01*
X130367179Y-126631716D01*
X130367179Y-126631715D01*
X130272533Y-126467783D01*
X130145870Y-126327110D01*
X129992730Y-126215848D01*
X129819802Y-126138855D01*
X129657161Y-126104285D01*
X129598374Y-126073682D01*
X129563745Y-126017173D01*
X129563168Y-125950899D01*
X129563841Y-125948387D01*
X129565635Y-125941692D01*
X129585468Y-125715000D01*
X129585412Y-125714365D01*
X129565635Y-125488310D01*
X129565635Y-125488308D01*
X129506739Y-125268504D01*
X129410568Y-125062266D01*
X129293733Y-124895407D01*
X129280046Y-124875859D01*
X129119140Y-124714953D01*
X128932736Y-124584433D01*
X128874723Y-124557381D01*
X128822548Y-124511623D01*
X128803129Y-124444997D01*
X128822549Y-124378372D01*
X128874721Y-124332619D01*
X128932734Y-124305568D01*
X129119139Y-124175047D01*
X129280047Y-124014139D01*
X129410568Y-123827734D01*
X129506739Y-123621496D01*
X129565635Y-123401692D01*
X129585468Y-123175000D01*
X129565635Y-122948308D01*
X129506739Y-122728504D01*
X129410568Y-122522266D01*
X129360495Y-122450754D01*
X129280046Y-122335859D01*
X129119140Y-122174953D01*
X128932736Y-122044433D01*
X128932734Y-122044432D01*
X128874722Y-122017380D01*
X128822548Y-121971623D01*
X128803129Y-121904997D01*
X128822549Y-121838372D01*
X128874721Y-121792619D01*
X128932734Y-121765568D01*
X129119139Y-121635047D01*
X129280047Y-121474139D01*
X129410568Y-121287734D01*
X129506739Y-121081496D01*
X129565635Y-120861692D01*
X129585468Y-120635000D01*
X129565635Y-120408308D01*
X129506739Y-120188504D01*
X129410568Y-119982266D01*
X129341827Y-119884093D01*
X129280046Y-119795859D01*
X129119140Y-119634953D01*
X128932733Y-119504431D01*
X128874725Y-119477382D01*
X128822549Y-119431625D01*
X128803129Y-119365000D01*
X128822549Y-119298375D01*
X128874725Y-119252618D01*
X128932734Y-119225568D01*
X129119139Y-119095047D01*
X129280047Y-118934139D01*
X129410568Y-118747734D01*
X129506739Y-118541496D01*
X129565635Y-118321692D01*
X129585468Y-118095000D01*
X129565635Y-117868308D01*
X129506739Y-117648504D01*
X129410568Y-117442266D01*
X129293733Y-117275407D01*
X129280046Y-117255859D01*
X129119140Y-117094953D01*
X128932733Y-116964431D01*
X128874725Y-116937382D01*
X128822549Y-116891625D01*
X128803129Y-116825000D01*
X128822549Y-116758375D01*
X128874725Y-116712618D01*
X128932734Y-116685568D01*
X129119139Y-116555047D01*
X129280047Y-116394139D01*
X129410568Y-116207734D01*
X129506739Y-116001496D01*
X129565635Y-115781692D01*
X129585468Y-115555000D01*
X129565635Y-115328308D01*
X129506739Y-115108504D01*
X129410568Y-114902266D01*
X129340012Y-114801501D01*
X129280046Y-114715859D01*
X129119140Y-114554953D01*
X128932732Y-114424430D01*
X128874724Y-114397380D01*
X128822549Y-114351623D01*
X128803130Y-114284997D01*
X128822550Y-114218373D01*
X128874721Y-114172619D01*
X128932734Y-114145568D01*
X129119139Y-114015047D01*
X129280047Y-113854139D01*
X129410568Y-113667734D01*
X129506739Y-113461496D01*
X129565635Y-113241692D01*
X129585468Y-113015000D01*
X129565635Y-112788308D01*
X129506739Y-112568504D01*
X129410568Y-112362266D01*
X129280047Y-112175861D01*
X129280046Y-112175859D01*
X129119140Y-112014953D01*
X128932736Y-111884433D01*
X128932730Y-111884430D01*
X128874132Y-111857105D01*
X128821958Y-111811348D01*
X128802539Y-111744723D01*
X128821959Y-111678098D01*
X128874135Y-111632342D01*
X128932479Y-111605135D01*
X129118819Y-111474658D01*
X129279658Y-111313819D01*
X129410134Y-111127480D01*
X129506266Y-110921326D01*
X129558872Y-110725000D01*
X127001128Y-110725000D01*
X127053733Y-110921326D01*
X127149865Y-111127480D01*
X127280341Y-111313819D01*
X127441180Y-111474658D01*
X127627519Y-111605134D01*
X127685865Y-111632342D01*
X127738040Y-111678099D01*
X127757460Y-111744723D01*
X127738041Y-111811348D01*
X127685866Y-111857105D01*
X127627267Y-111884430D01*
X127440859Y-112014953D01*
X127279953Y-112175859D01*
X127149432Y-112362264D01*
X127053261Y-112568502D01*
X126994364Y-112788310D01*
X126974531Y-113015000D01*
X126994364Y-113241689D01*
X127053261Y-113461497D01*
X127149432Y-113667735D01*
X127279953Y-113854140D01*
X127440859Y-114015046D01*
X127496426Y-114053954D01*
X127627266Y-114145568D01*
X127685273Y-114172617D01*
X127737449Y-114218373D01*
X127756869Y-114284997D01*
X127737451Y-114351622D01*
X127685276Y-114397380D01*
X127627266Y-114424431D01*
X127440859Y-114554953D01*
X127279953Y-114715859D01*
X127149432Y-114902264D01*
X127053261Y-115108502D01*
X126994364Y-115328310D01*
X126974531Y-115555000D01*
X126994364Y-115781689D01*
X127053261Y-116001497D01*
X127149432Y-116207735D01*
X127279953Y-116394140D01*
X127440859Y-116555046D01*
X127627263Y-116685566D01*
X127627266Y-116685568D01*
X127685275Y-116712618D01*
X127737450Y-116758375D01*
X127756869Y-116825000D01*
X127737450Y-116891625D01*
X127685275Y-116937382D01*
X127627263Y-116964433D01*
X127440859Y-117094953D01*
X127279953Y-117255859D01*
X127149432Y-117442264D01*
X127053261Y-117648502D01*
X126994364Y-117868310D01*
X126974531Y-118095000D01*
X126994364Y-118321689D01*
X127053261Y-118541497D01*
X127149432Y-118747735D01*
X127279953Y-118934140D01*
X127440859Y-119095046D01*
X127496426Y-119133954D01*
X127627266Y-119225568D01*
X127685275Y-119252618D01*
X127737450Y-119298375D01*
X127756869Y-119365000D01*
X127737450Y-119431625D01*
X127685275Y-119477382D01*
X127627263Y-119504433D01*
X127440859Y-119634953D01*
X127279953Y-119795859D01*
X127149432Y-119982264D01*
X127053261Y-120188502D01*
X126994364Y-120408310D01*
X126974531Y-120635000D01*
X126994364Y-120861689D01*
X127053261Y-121081497D01*
X127149432Y-121287735D01*
X127279953Y-121474140D01*
X127440859Y-121635046D01*
X127578957Y-121731742D01*
X127627266Y-121765568D01*
X127685275Y-121792618D01*
X127737450Y-121838375D01*
X127756869Y-121905000D01*
X127737450Y-121971625D01*
X127685275Y-122017382D01*
X127627263Y-122044433D01*
X127440859Y-122174953D01*
X127279953Y-122335859D01*
X127149432Y-122522264D01*
X127053261Y-122728502D01*
X126994364Y-122948310D01*
X126974531Y-123175000D01*
X126994364Y-123401689D01*
X127053261Y-123621497D01*
X127149432Y-123827735D01*
X127279953Y-124014140D01*
X127440859Y-124175046D01*
X127516355Y-124227908D01*
X127627266Y-124305568D01*
X127685273Y-124332617D01*
X127737449Y-124378373D01*
X127756869Y-124444997D01*
X127737451Y-124511622D01*
X127685276Y-124557380D01*
X127627266Y-124584431D01*
X127440859Y-124714953D01*
X127279953Y-124875859D01*
X127149432Y-125062264D01*
X127053261Y-125268502D01*
X126994364Y-125488310D01*
X126974531Y-125715000D01*
X126994364Y-125941689D01*
X127053261Y-126161497D01*
X127149432Y-126367735D01*
X127279953Y-126554140D01*
X127440859Y-126715046D01*
X127607483Y-126831716D01*
X127627266Y-126845568D01*
X127685275Y-126872618D01*
X127737450Y-126918375D01*
X127756869Y-126985000D01*
X127737450Y-127051625D01*
X127685275Y-127097382D01*
X127627263Y-127124433D01*
X127440859Y-127254953D01*
X127279953Y-127415859D01*
X127149432Y-127602264D01*
X127053261Y-127808502D01*
X126994364Y-128028310D01*
X126974531Y-128254999D01*
X126994364Y-128481689D01*
X127053261Y-128701497D01*
X127149432Y-128907735D01*
X127279953Y-129094140D01*
X127440859Y-129255046D01*
X127627264Y-129385567D01*
X127627265Y-129385567D01*
X127627266Y-129385568D01*
X127685865Y-129412893D01*
X127738040Y-129458650D01*
X127757460Y-129525274D01*
X127738041Y-129591899D01*
X127685866Y-129637656D01*
X127627522Y-129664863D01*
X127441180Y-129795341D01*
X127280341Y-129956180D01*
X127149865Y-130142519D01*
X127053733Y-130348673D01*
X127001128Y-130544999D01*
X127001128Y-130545000D01*
X128406000Y-130545000D01*
X128468000Y-130561613D01*
X128513387Y-130607000D01*
X128530000Y-130669000D01*
X128530000Y-130921000D01*
X128513387Y-130983000D01*
X128468000Y-131028387D01*
X128406000Y-131045000D01*
X127001128Y-131045000D01*
X126996026Y-131051648D01*
X126995665Y-131093049D01*
X126961036Y-131149557D01*
X126902250Y-131180159D01*
X126720197Y-131218855D01*
X126547269Y-131295848D01*
X126394129Y-131407110D01*
X126267466Y-131547783D01*
X126172820Y-131711715D01*
X126114326Y-131891742D01*
X126094540Y-132080000D01*
X121187501Y-132080000D01*
X121183129Y-132065000D01*
X121202549Y-131998375D01*
X121254725Y-131952618D01*
X121312734Y-131925568D01*
X121499139Y-131795047D01*
X121660047Y-131634139D01*
X121790568Y-131447734D01*
X121886739Y-131241496D01*
X121945635Y-131021692D01*
X121965468Y-130795000D01*
X121964605Y-130785141D01*
X121951044Y-130630133D01*
X121945635Y-130568308D01*
X121927319Y-130499951D01*
X121927319Y-130435763D01*
X121959411Y-130380178D01*
X122303789Y-130035800D01*
X122319885Y-130022906D01*
X122321873Y-130020787D01*
X122321877Y-130020786D01*
X122367948Y-129971723D01*
X122370566Y-129969023D01*
X122390120Y-129949471D01*
X122392581Y-129946298D01*
X122400156Y-129937427D01*
X122430062Y-129905582D01*
X122439717Y-129888018D01*
X122450394Y-129871764D01*
X122462673Y-129855936D01*
X122480018Y-129815852D01*
X122485160Y-129805356D01*
X122490666Y-129795341D01*
X122506197Y-129767092D01*
X122511179Y-129747684D01*
X122517481Y-129729280D01*
X122525437Y-129710896D01*
X122532269Y-129667752D01*
X122534633Y-129656338D01*
X122545500Y-129614019D01*
X122545500Y-129593984D01*
X122547027Y-129574585D01*
X122547068Y-129574321D01*
X122550160Y-129554804D01*
X122546050Y-129511325D01*
X122545500Y-129499656D01*
X122545500Y-125158687D01*
X122553736Y-125114249D01*
X122577347Y-125075717D01*
X122652533Y-124992216D01*
X122719711Y-124875861D01*
X122747179Y-124828284D01*
X122782658Y-124719090D01*
X122805674Y-124648256D01*
X122825460Y-124460000D01*
X122805674Y-124271744D01*
X122770522Y-124163558D01*
X122747179Y-124091715D01*
X122652533Y-123927783D01*
X122525870Y-123787110D01*
X122372730Y-123675848D01*
X122199802Y-123598855D01*
X122037161Y-123564285D01*
X121978374Y-123533682D01*
X121943745Y-123477173D01*
X121943168Y-123410899D01*
X121945635Y-123401692D01*
X121965468Y-123175000D01*
X121945635Y-122948308D01*
X121886739Y-122728504D01*
X121790568Y-122522266D01*
X121740495Y-122450754D01*
X121660046Y-122335859D01*
X121499140Y-122174953D01*
X121312736Y-122044433D01*
X121312734Y-122044432D01*
X121254722Y-122017380D01*
X121202548Y-121971623D01*
X121183129Y-121904997D01*
X121202549Y-121838372D01*
X121254721Y-121792619D01*
X121312734Y-121765568D01*
X121499139Y-121635047D01*
X121660047Y-121474139D01*
X121790568Y-121287734D01*
X121886739Y-121081496D01*
X121945635Y-120861692D01*
X121965468Y-120635000D01*
X121945635Y-120408308D01*
X121886739Y-120188504D01*
X121790568Y-119982266D01*
X121721827Y-119884093D01*
X121660046Y-119795859D01*
X121499140Y-119634953D01*
X121312733Y-119504431D01*
X121254725Y-119477382D01*
X121202549Y-119431625D01*
X121183129Y-119365000D01*
X121202549Y-119298375D01*
X121254725Y-119252618D01*
X121312734Y-119225568D01*
X121499139Y-119095047D01*
X121660047Y-118934139D01*
X121790568Y-118747734D01*
X121886739Y-118541496D01*
X121945635Y-118321692D01*
X121965468Y-118095000D01*
X121945635Y-117868308D01*
X121886739Y-117648504D01*
X121790568Y-117442266D01*
X121673733Y-117275407D01*
X121660046Y-117255859D01*
X121499140Y-117094953D01*
X121312733Y-116964431D01*
X121254725Y-116937382D01*
X121202549Y-116891625D01*
X121183129Y-116825000D01*
X121202549Y-116758375D01*
X121254725Y-116712618D01*
X121312734Y-116685568D01*
X121499139Y-116555047D01*
X121660047Y-116394139D01*
X121790568Y-116207734D01*
X121886739Y-116001496D01*
X121945635Y-115781692D01*
X121965468Y-115555000D01*
X121945635Y-115328308D01*
X121886739Y-115108504D01*
X121790568Y-114902266D01*
X121720012Y-114801501D01*
X121660046Y-114715859D01*
X121499140Y-114554953D01*
X121312732Y-114424430D01*
X121254724Y-114397380D01*
X121202549Y-114351623D01*
X121183130Y-114284997D01*
X121202550Y-114218373D01*
X121254721Y-114172619D01*
X121312734Y-114145568D01*
X121499139Y-114015047D01*
X121660047Y-113854139D01*
X121790568Y-113667734D01*
X121886739Y-113461496D01*
X121945635Y-113241692D01*
X121965468Y-113015000D01*
X121945635Y-112788308D01*
X121886739Y-112568504D01*
X121790568Y-112362266D01*
X121660047Y-112175861D01*
X121660046Y-112175859D01*
X121499140Y-112014953D01*
X121312733Y-111884431D01*
X121254725Y-111857382D01*
X121202549Y-111811625D01*
X121183129Y-111745000D01*
X121202549Y-111678375D01*
X121254725Y-111632618D01*
X121255317Y-111632342D01*
X121312734Y-111605568D01*
X121499139Y-111475047D01*
X121660047Y-111314139D01*
X121790568Y-111127734D01*
X121886739Y-110921496D01*
X121945635Y-110701692D01*
X121965468Y-110475000D01*
X121945635Y-110248308D01*
X121886739Y-110028504D01*
X121790568Y-109822266D01*
X121769986Y-109792872D01*
X121660046Y-109635859D01*
X121499140Y-109474953D01*
X121474537Y-109457726D01*
X121435399Y-109412884D01*
X121421666Y-109354970D01*
X121436500Y-109297328D01*
X121476485Y-109253239D01*
X121532406Y-109232861D01*
X121567483Y-109229091D01*
X121702331Y-109178796D01*
X121817546Y-109092546D01*
X121903796Y-108977331D01*
X121954091Y-108842483D01*
X121960500Y-108782873D01*
X121960499Y-107692421D01*
X121973049Y-107638064D01*
X122008157Y-107594708D01*
X122058719Y-107571132D01*
X122199803Y-107541144D01*
X122372730Y-107464151D01*
X122401523Y-107443232D01*
X122525870Y-107352889D01*
X122589460Y-107282266D01*
X122652533Y-107212216D01*
X122747179Y-107048284D01*
X122805674Y-106868256D01*
X122825460Y-106680000D01*
X122805674Y-106491744D01*
X122747179Y-106311716D01*
X122747179Y-106311715D01*
X122652533Y-106147783D01*
X122525870Y-106007110D01*
X122372730Y-105895848D01*
X122199802Y-105818855D01*
X122014648Y-105779500D01*
X122014646Y-105779500D01*
X121955453Y-105779500D01*
X121908000Y-105770061D01*
X121867772Y-105743181D01*
X121854671Y-105730080D01*
X121827791Y-105689852D01*
X121818352Y-105642399D01*
X121818352Y-103489049D01*
X121832363Y-103431792D01*
X121871226Y-103387475D01*
X122064253Y-103252317D01*
X122231347Y-103085223D01*
X122341278Y-102928224D01*
X122385595Y-102889360D01*
X122442852Y-102875349D01*
X122500109Y-102889360D01*
X122544425Y-102928224D01*
X122654357Y-103085223D01*
X122821451Y-103252317D01*
X123015022Y-103387857D01*
X123229189Y-103487725D01*
X123457444Y-103548885D01*
X123552952Y-103557241D01*
X123611035Y-103577666D01*
X123652134Y-103623511D01*
X123666116Y-103683472D01*
X123649533Y-103742767D01*
X123632821Y-103771713D01*
X123574326Y-103951742D01*
X123554540Y-104140000D01*
X123574326Y-104328257D01*
X123632820Y-104508284D01*
X123727464Y-104672213D01*
X123727467Y-104672216D01*
X123802652Y-104755717D01*
X123826264Y-104794249D01*
X123834500Y-104838687D01*
X123834500Y-108521313D01*
X123826264Y-108565751D01*
X123802652Y-108604282D01*
X123769545Y-108641051D01*
X123727464Y-108687786D01*
X123632820Y-108851715D01*
X123574326Y-109031742D01*
X123554549Y-109219915D01*
X123554540Y-109220000D01*
X123559971Y-109271672D01*
X123574326Y-109408257D01*
X123632820Y-109588284D01*
X123727464Y-109752213D01*
X123727467Y-109752216D01*
X123802652Y-109835717D01*
X123826264Y-109874249D01*
X123834500Y-109918687D01*
X123834500Y-111061313D01*
X123826264Y-111105751D01*
X123802652Y-111144282D01*
X123769545Y-111181051D01*
X123727464Y-111227786D01*
X123632820Y-111391715D01*
X123574326Y-111571742D01*
X123554540Y-111759999D01*
X123574326Y-111948257D01*
X123632820Y-112128284D01*
X123727466Y-112292216D01*
X123854129Y-112432889D01*
X124007269Y-112544151D01*
X124180197Y-112621144D01*
X124365352Y-112660500D01*
X124365354Y-112660500D01*
X124554646Y-112660500D01*
X124554648Y-112660500D01*
X124678083Y-112634262D01*
X124739803Y-112621144D01*
X124912730Y-112544151D01*
X125065871Y-112432888D01*
X125192533Y-112292216D01*
X125287179Y-112128284D01*
X125345674Y-111948256D01*
X125365460Y-111760000D01*
X125345674Y-111571744D01*
X125314129Y-111474658D01*
X125287179Y-111391715D01*
X125192535Y-111227786D01*
X125179427Y-111213229D01*
X125117347Y-111144282D01*
X125093736Y-111105751D01*
X125085500Y-111061313D01*
X125085500Y-109918687D01*
X125093736Y-109874249D01*
X125117347Y-109835717D01*
X125192533Y-109752216D01*
X125259711Y-109635861D01*
X125287179Y-109588284D01*
X125292676Y-109571366D01*
X125345674Y-109408256D01*
X125365460Y-109220000D01*
X125345674Y-109031744D01*
X125314255Y-108935046D01*
X125287179Y-108851715D01*
X125192535Y-108687786D01*
X125155925Y-108647127D01*
X125117347Y-108604282D01*
X125093736Y-108565751D01*
X125085500Y-108521313D01*
X125085500Y-107935000D01*
X126974531Y-107935000D01*
X126994364Y-108161689D01*
X127053261Y-108381497D01*
X127149432Y-108587735D01*
X127279953Y-108774140D01*
X127440859Y-108935046D01*
X127627264Y-109065567D01*
X127627265Y-109065567D01*
X127627266Y-109065568D01*
X127685865Y-109092893D01*
X127738040Y-109138650D01*
X127757460Y-109205274D01*
X127738041Y-109271899D01*
X127685866Y-109317656D01*
X127627522Y-109344863D01*
X127441180Y-109475341D01*
X127280341Y-109636180D01*
X127149865Y-109822519D01*
X127053733Y-110028673D01*
X127001128Y-110224999D01*
X127001128Y-110225000D01*
X129558872Y-110225000D01*
X129558871Y-110224999D01*
X129506266Y-110028673D01*
X129410134Y-109822519D01*
X129279658Y-109636180D01*
X129118819Y-109475341D01*
X128932482Y-109344866D01*
X128874133Y-109317657D01*
X128821958Y-109271899D01*
X128802539Y-109205274D01*
X128821959Y-109138649D01*
X128874134Y-109092893D01*
X128932734Y-109065568D01*
X129119139Y-108935047D01*
X129280047Y-108774139D01*
X129410568Y-108587734D01*
X129506739Y-108381496D01*
X129565635Y-108161692D01*
X129585468Y-107935000D01*
X129585054Y-107930273D01*
X129574582Y-107810568D01*
X129565635Y-107708308D01*
X129506739Y-107488504D01*
X129410568Y-107282266D01*
X129340012Y-107181501D01*
X129280046Y-107095859D01*
X129119140Y-106934953D01*
X128932735Y-106804432D01*
X128726497Y-106708261D01*
X128506689Y-106649364D01*
X128280000Y-106629531D01*
X128053310Y-106649364D01*
X127833502Y-106708261D01*
X127627264Y-106804432D01*
X127440859Y-106934953D01*
X127279953Y-107095859D01*
X127149432Y-107282264D01*
X127053261Y-107488502D01*
X126994364Y-107708310D01*
X126974531Y-107935000D01*
X125085500Y-107935000D01*
X125085500Y-104838687D01*
X125093736Y-104794249D01*
X125117347Y-104755717D01*
X125192533Y-104672216D01*
X125195578Y-104666943D01*
X125287179Y-104508284D01*
X125325612Y-104390000D01*
X125345674Y-104328256D01*
X125365460Y-104140000D01*
X125345674Y-103951744D01*
X125287179Y-103771716D01*
X125287179Y-103771715D01*
X125192533Y-103607783D01*
X125065870Y-103467110D01*
X124912732Y-103355849D01*
X124824313Y-103316483D01*
X124764791Y-103289981D01*
X124717848Y-103253470D01*
X124693304Y-103199298D01*
X124696807Y-103139928D01*
X124727549Y-103089020D01*
X124731347Y-103085223D01*
X124866887Y-102891652D01*
X124966755Y-102677485D01*
X125014882Y-102497869D01*
X128189500Y-102497869D01*
X128195909Y-102557483D01*
X128246204Y-102692331D01*
X128332454Y-102807546D01*
X128447669Y-102893796D01*
X128582517Y-102944091D01*
X128642127Y-102950500D01*
X130245500Y-102950499D01*
X130307500Y-102967112D01*
X130352887Y-103012499D01*
X130369500Y-103074499D01*
X130369500Y-120752256D01*
X130367235Y-120772762D01*
X130369439Y-120842873D01*
X130369500Y-120846768D01*
X130369500Y-120874349D01*
X130370003Y-120878334D01*
X130370918Y-120889967D01*
X130372290Y-120933626D01*
X130376798Y-120949140D01*
X130377505Y-120951575D01*
X130377879Y-120952860D01*
X130381825Y-120971916D01*
X130384335Y-120991792D01*
X130400414Y-121032404D01*
X130404197Y-121043451D01*
X130416382Y-121085391D01*
X130426580Y-121102635D01*
X130435136Y-121120100D01*
X130442514Y-121138732D01*
X130442515Y-121138733D01*
X130468180Y-121174059D01*
X130474593Y-121183822D01*
X130496826Y-121221416D01*
X130496829Y-121221419D01*
X130496830Y-121221420D01*
X130510995Y-121235585D01*
X130523627Y-121250375D01*
X130535406Y-121266587D01*
X130569058Y-121294426D01*
X130577699Y-121302289D01*
X131141038Y-121865628D01*
X131165277Y-121899925D01*
X131176678Y-121940347D01*
X131194326Y-122108257D01*
X131252820Y-122288284D01*
X131347466Y-122452216D01*
X131474129Y-122592889D01*
X131627269Y-122704151D01*
X131800197Y-122781144D01*
X131985352Y-122820500D01*
X131985354Y-122820500D01*
X132174646Y-122820500D01*
X132174648Y-122820500D01*
X132298083Y-122794262D01*
X132359803Y-122781144D01*
X132532730Y-122704151D01*
X132653453Y-122616441D01*
X132685870Y-122592889D01*
X132749460Y-122522266D01*
X132812533Y-122452216D01*
X132907179Y-122288284D01*
X132965674Y-122108256D01*
X132985460Y-121920000D01*
X132965674Y-121731744D01*
X132907179Y-121551716D01*
X132907179Y-121551715D01*
X132812533Y-121387783D01*
X132685870Y-121247110D01*
X132532730Y-121135848D01*
X132359802Y-121058855D01*
X132174648Y-121019500D01*
X132174646Y-121019500D01*
X132115452Y-121019500D01*
X132067999Y-121010061D01*
X132027771Y-120983181D01*
X131656819Y-120612228D01*
X131629939Y-120572000D01*
X131620500Y-120524547D01*
X131620500Y-110593619D01*
X131633288Y-110538775D01*
X131669014Y-110495243D01*
X131720309Y-110472002D01*
X131776594Y-110473844D01*
X131893397Y-110505141D01*
X132120000Y-110524966D01*
X132346602Y-110505141D01*
X132566326Y-110446266D01*
X132772480Y-110350134D01*
X132845472Y-110299025D01*
X131854128Y-109307681D01*
X131822034Y-109252094D01*
X131822034Y-109220001D01*
X132473553Y-109220001D01*
X133199025Y-109945472D01*
X133250134Y-109872480D01*
X133346266Y-109666326D01*
X133405141Y-109446602D01*
X133424966Y-109219999D01*
X133405141Y-108993397D01*
X133346266Y-108773673D01*
X133250133Y-108567515D01*
X133199025Y-108494526D01*
X132473553Y-109220000D01*
X132473553Y-109220001D01*
X131822034Y-109220001D01*
X131822034Y-109187906D01*
X131854128Y-109132319D01*
X132120000Y-108866447D01*
X132845472Y-108140974D01*
X132845471Y-108140972D01*
X132772483Y-108089866D01*
X132757023Y-108082657D01*
X132704847Y-108036899D01*
X132685428Y-107970273D01*
X132704849Y-107903647D01*
X132757023Y-107857893D01*
X132772734Y-107850568D01*
X132959139Y-107720047D01*
X133120047Y-107559139D01*
X133250568Y-107372734D01*
X133346739Y-107166496D01*
X133405635Y-106946692D01*
X133425468Y-106720000D01*
X133405635Y-106493308D01*
X133346739Y-106273504D01*
X133250568Y-106067266D01*
X133239513Y-106051478D01*
X133120046Y-105880859D01*
X132959140Y-105719953D01*
X132772735Y-105589432D01*
X132566497Y-105493261D01*
X132346689Y-105434364D01*
X132120000Y-105414531D01*
X131893308Y-105434364D01*
X131776593Y-105465638D01*
X131720309Y-105467480D01*
X131669013Y-105444239D01*
X131633288Y-105400707D01*
X131620500Y-105345863D01*
X131620500Y-103036618D01*
X131633288Y-102981774D01*
X131669014Y-102938242D01*
X131720309Y-102915001D01*
X131776594Y-102916843D01*
X131844592Y-102935063D01*
X132080000Y-102955659D01*
X132315408Y-102935063D01*
X132543663Y-102873903D01*
X132757830Y-102774035D01*
X132951401Y-102638495D01*
X133118495Y-102471401D01*
X133248426Y-102285839D01*
X133292743Y-102246975D01*
X133350000Y-102232964D01*
X133407257Y-102246975D01*
X133451573Y-102285839D01*
X133581505Y-102471401D01*
X133748599Y-102638495D01*
X133941625Y-102773653D01*
X133980489Y-102817970D01*
X133994500Y-102875227D01*
X133994500Y-128841313D01*
X133986264Y-128885751D01*
X133962652Y-128924282D01*
X133955096Y-128932675D01*
X133887464Y-129007786D01*
X133792820Y-129171715D01*
X133734326Y-129351742D01*
X133714540Y-129540000D01*
X133734326Y-129728257D01*
X133792820Y-129908284D01*
X133887466Y-130072216D01*
X134014129Y-130212889D01*
X134167269Y-130324151D01*
X134340197Y-130401144D01*
X134525352Y-130440500D01*
X134525354Y-130440500D01*
X134714646Y-130440500D01*
X134714648Y-130440500D01*
X134838083Y-130414262D01*
X134899803Y-130401144D01*
X135072730Y-130324151D01*
X135190509Y-130238580D01*
X135225870Y-130212889D01*
X135275555Y-130157709D01*
X135352533Y-130072216D01*
X135447179Y-129908284D01*
X135505674Y-129728256D01*
X135525460Y-129540000D01*
X135505674Y-129351744D01*
X135453495Y-129191153D01*
X135447179Y-129171715D01*
X135352535Y-129007786D01*
X135322748Y-128974705D01*
X135277347Y-128924282D01*
X135253736Y-128885751D01*
X135245500Y-128841313D01*
X135245500Y-128269999D01*
X135854531Y-128269999D01*
X135874364Y-128496689D01*
X135933261Y-128716497D01*
X136029432Y-128922735D01*
X136159953Y-129109140D01*
X136320859Y-129270046D01*
X136507264Y-129400567D01*
X136507265Y-129400567D01*
X136507266Y-129400568D01*
X136713504Y-129496739D01*
X136933308Y-129555635D01*
X137160000Y-129575468D01*
X137386692Y-129555635D01*
X137606496Y-129496739D01*
X137812734Y-129400568D01*
X137999139Y-129270047D01*
X138160047Y-129109139D01*
X138290568Y-128922734D01*
X138386739Y-128716496D01*
X138445635Y-128496692D01*
X138465468Y-128270000D01*
X138445635Y-128043308D01*
X138386739Y-127823504D01*
X138290568Y-127617266D01*
X138289481Y-127615714D01*
X138160046Y-127430859D01*
X137999140Y-127269953D01*
X137838377Y-127157387D01*
X137799511Y-127113069D01*
X137785500Y-127055812D01*
X137785500Y-124770452D01*
X137794939Y-124722999D01*
X137821819Y-124682771D01*
X138329572Y-124175018D01*
X138839472Y-123665117D01*
X138855568Y-123652223D01*
X138857557Y-123650104D01*
X138857560Y-123650103D01*
X138860107Y-123647389D01*
X138909228Y-123615343D01*
X138967584Y-123609456D01*
X139022118Y-123631046D01*
X139060629Y-123675285D01*
X139074500Y-123732273D01*
X139074500Y-136591313D01*
X139066264Y-136635751D01*
X139042652Y-136674282D01*
X139009545Y-136711051D01*
X138967464Y-136757786D01*
X138872820Y-136921715D01*
X138814326Y-137101742D01*
X138794540Y-137290000D01*
X138814326Y-137478257D01*
X138872820Y-137658284D01*
X138967466Y-137822216D01*
X139094129Y-137962889D01*
X139247269Y-138074151D01*
X139420197Y-138151144D01*
X139605352Y-138190500D01*
X139605354Y-138190500D01*
X139794646Y-138190500D01*
X139794648Y-138190500D01*
X139945012Y-138158539D01*
X139979803Y-138151144D01*
X140152730Y-138074151D01*
X140225688Y-138021144D01*
X140305870Y-137962889D01*
X140311173Y-137957000D01*
X140432533Y-137822216D01*
X140527179Y-137658284D01*
X140585674Y-137478256D01*
X140605460Y-137290000D01*
X140585674Y-137101744D01*
X140543434Y-136971742D01*
X140527179Y-136921715D01*
X140432535Y-136757786D01*
X140406453Y-136728819D01*
X140357347Y-136674282D01*
X140333736Y-136635751D01*
X140325500Y-136591313D01*
X140325500Y-122450754D01*
X140339249Y-122394003D01*
X140377447Y-122349837D01*
X140431623Y-122328049D01*
X140489763Y-122333473D01*
X140650698Y-122388722D01*
X140650700Y-122388722D01*
X140650702Y-122388723D01*
X140879634Y-122426925D01*
X141111731Y-122426925D01*
X141111732Y-122426925D01*
X141340664Y-122388723D01*
X141560186Y-122313361D01*
X141764309Y-122202895D01*
X141947467Y-122060338D01*
X142104662Y-121889578D01*
X142231607Y-121695274D01*
X142324840Y-121482725D01*
X142381817Y-121257730D01*
X142400983Y-121026425D01*
X142381817Y-120795120D01*
X142324840Y-120570125D01*
X142231607Y-120357576D01*
X142104662Y-120163272D01*
X141947467Y-119992512D01*
X141764309Y-119849955D01*
X141560186Y-119739489D01*
X141560182Y-119739487D01*
X141560181Y-119739487D01*
X141340667Y-119664127D01*
X141150139Y-119632334D01*
X141111732Y-119625925D01*
X140879634Y-119625925D01*
X140841227Y-119632334D01*
X140650700Y-119664127D01*
X140625104Y-119672914D01*
X140556893Y-119676441D01*
X140497162Y-119643313D01*
X140361819Y-119507970D01*
X140334939Y-119467742D01*
X140325500Y-119420289D01*
X140325500Y-115672649D01*
X141471015Y-115672649D01*
X141544004Y-115723756D01*
X141750162Y-115819889D01*
X141969886Y-115878764D01*
X142196489Y-115898589D01*
X142423091Y-115878764D01*
X142642815Y-115819889D01*
X142848969Y-115723757D01*
X142921961Y-115672648D01*
X142196490Y-114947176D01*
X142196489Y-114947176D01*
X141471015Y-115672648D01*
X141471015Y-115672649D01*
X140325500Y-115672649D01*
X140325500Y-114593623D01*
X140891522Y-114593623D01*
X140911347Y-114820225D01*
X140970222Y-115039949D01*
X141066355Y-115246107D01*
X141117461Y-115319094D01*
X141117463Y-115319095D01*
X141842935Y-114593624D01*
X142550042Y-114593624D01*
X143275514Y-115319095D01*
X143326623Y-115246103D01*
X143422755Y-115039949D01*
X143481630Y-114820225D01*
X143501455Y-114593623D01*
X143481630Y-114367020D01*
X143422755Y-114147296D01*
X143326622Y-113941138D01*
X143275514Y-113868149D01*
X142550042Y-114593623D01*
X142550042Y-114593624D01*
X141842935Y-114593624D01*
X141842935Y-114593623D01*
X141117462Y-113868149D01*
X141117462Y-113868150D01*
X141066354Y-113941139D01*
X140970222Y-114147295D01*
X140911347Y-114367020D01*
X140891522Y-114593623D01*
X140325500Y-114593623D01*
X140325500Y-113397398D01*
X140327763Y-113376894D01*
X140327484Y-113368023D01*
X140325561Y-113306802D01*
X140325500Y-113302908D01*
X140325500Y-113275315D01*
X140325500Y-113275308D01*
X140324995Y-113271311D01*
X140324080Y-113259681D01*
X140322709Y-113216030D01*
X140317119Y-113196792D01*
X140313174Y-113177740D01*
X140310664Y-113157866D01*
X140304117Y-113141330D01*
X140294578Y-113117239D01*
X140290805Y-113106218D01*
X140278617Y-113064268D01*
X140274886Y-113057960D01*
X140268421Y-113047027D01*
X140259863Y-113029560D01*
X140252486Y-113010926D01*
X140226798Y-112975570D01*
X140220409Y-112965842D01*
X140198170Y-112928237D01*
X140184006Y-112914073D01*
X140171369Y-112899278D01*
X140159595Y-112883072D01*
X140159594Y-112883071D01*
X140125935Y-112855226D01*
X140117305Y-112847372D01*
X139826039Y-112556106D01*
X139793945Y-112500518D01*
X139793945Y-112436331D01*
X139812261Y-112367976D01*
X139832094Y-112141284D01*
X139827924Y-112093623D01*
X140891020Y-112093623D01*
X140910853Y-112320312D01*
X140969750Y-112540120D01*
X141065921Y-112746358D01*
X141196442Y-112932763D01*
X141357348Y-113093669D01*
X141543753Y-113224190D01*
X141543754Y-113224190D01*
X141543755Y-113224191D01*
X141559464Y-113231516D01*
X141611639Y-113277272D01*
X141631059Y-113343897D01*
X141611640Y-113410522D01*
X141559466Y-113456279D01*
X141544006Y-113463488D01*
X141471016Y-113514596D01*
X141471015Y-113514596D01*
X142196489Y-114240069D01*
X142196490Y-114240069D01*
X142921961Y-113514597D01*
X142921960Y-113514595D01*
X142848972Y-113463489D01*
X142833512Y-113456280D01*
X142781336Y-113410522D01*
X142761917Y-113343896D01*
X142781338Y-113277270D01*
X142833512Y-113231516D01*
X142849223Y-113224191D01*
X143035628Y-113093670D01*
X143196536Y-112932762D01*
X143327057Y-112746357D01*
X143423228Y-112540119D01*
X143482124Y-112320315D01*
X143501957Y-112093623D01*
X143482124Y-111866931D01*
X143423228Y-111647127D01*
X143327057Y-111440889D01*
X143292625Y-111391715D01*
X143196535Y-111254482D01*
X143035629Y-111093576D01*
X142918377Y-111011476D01*
X142879511Y-110967158D01*
X142865500Y-110909901D01*
X142865500Y-110369499D01*
X142882113Y-110307499D01*
X142927500Y-110262112D01*
X142989500Y-110245499D01*
X143037870Y-110245499D01*
X143037872Y-110245499D01*
X143097483Y-110239091D01*
X143232331Y-110188796D01*
X143347546Y-110102546D01*
X143433796Y-109987331D01*
X143484091Y-109852483D01*
X143490500Y-109792873D01*
X143490499Y-108647128D01*
X143484091Y-108587517D01*
X143433796Y-108452669D01*
X143433795Y-108452667D01*
X143428729Y-108439085D01*
X143412855Y-108402396D01*
X143416322Y-108344927D01*
X143460286Y-108200000D01*
X143095672Y-108200000D01*
X143082416Y-108199289D01*
X143037876Y-108194500D01*
X141442129Y-108194500D01*
X141397578Y-108199290D01*
X141384325Y-108200000D01*
X141019714Y-108200000D01*
X141063677Y-108344927D01*
X141067144Y-108402390D01*
X141051267Y-108439091D01*
X140995909Y-108587514D01*
X140989500Y-108647130D01*
X140989500Y-109792869D01*
X140995909Y-109852484D01*
X141015672Y-109905471D01*
X141046204Y-109987331D01*
X141132454Y-110102546D01*
X141247669Y-110188796D01*
X141382517Y-110239091D01*
X141442127Y-110245500D01*
X141490500Y-110245500D01*
X141552500Y-110262113D01*
X141597887Y-110307500D01*
X141614500Y-110369500D01*
X141614500Y-110851070D01*
X141595079Y-110917697D01*
X141551807Y-110955643D01*
X141552641Y-110956833D01*
X141357348Y-111093576D01*
X141196442Y-111254482D01*
X141065921Y-111440887D01*
X140969750Y-111647125D01*
X140910853Y-111866933D01*
X140891020Y-112093623D01*
X139827924Y-112093623D01*
X139812261Y-111914592D01*
X139753365Y-111694788D01*
X139657194Y-111488550D01*
X139647739Y-111475047D01*
X139526672Y-111302143D01*
X139365766Y-111141237D01*
X139179361Y-111010716D01*
X138973123Y-110914545D01*
X138753315Y-110855648D01*
X138526626Y-110835815D01*
X138299936Y-110855648D01*
X138080128Y-110914545D01*
X137873890Y-111010716D01*
X137687485Y-111141237D01*
X137526579Y-111302143D01*
X137396058Y-111488548D01*
X137299887Y-111694786D01*
X137240990Y-111914594D01*
X137221157Y-112141284D01*
X137240990Y-112367973D01*
X137299887Y-112587781D01*
X137396058Y-112794019D01*
X137526579Y-112980424D01*
X137687485Y-113141330D01*
X137873890Y-113271851D01*
X137873891Y-113271851D01*
X137873892Y-113271852D01*
X137889601Y-113279177D01*
X137941776Y-113324933D01*
X137961196Y-113391558D01*
X137941777Y-113458183D01*
X137889603Y-113503940D01*
X137874143Y-113511149D01*
X137801152Y-113562257D01*
X138792497Y-114553602D01*
X138824591Y-114609189D01*
X138824591Y-114673377D01*
X138792497Y-114728964D01*
X137801152Y-115720309D01*
X137801152Y-115720310D01*
X137874141Y-115771417D01*
X138080299Y-115867550D01*
X138300023Y-115926425D01*
X138526626Y-115946250D01*
X138753228Y-115926425D01*
X138918406Y-115882166D01*
X138974691Y-115880324D01*
X139025986Y-115903565D01*
X139061712Y-115947097D01*
X139074500Y-116001941D01*
X139074500Y-119501925D01*
X139057887Y-119563925D01*
X139012500Y-119609312D01*
X138950500Y-119625925D01*
X137507813Y-119625925D01*
X137448198Y-119632334D01*
X137313352Y-119682629D01*
X137198137Y-119768879D01*
X137111887Y-119884093D01*
X137061592Y-120018941D01*
X137055183Y-120078555D01*
X137055183Y-121974294D01*
X137061592Y-122033909D01*
X137071449Y-122060337D01*
X137111887Y-122168756D01*
X137198137Y-122283971D01*
X137313352Y-122370221D01*
X137448200Y-122420516D01*
X137507810Y-122426925D01*
X137706183Y-122426925D01*
X137768183Y-122443538D01*
X137813570Y-122488925D01*
X137830183Y-122550925D01*
X137830183Y-122853864D01*
X137820744Y-122901317D01*
X137793864Y-122941545D01*
X136776208Y-123959199D01*
X136760110Y-123972096D01*
X136712096Y-124023225D01*
X136709391Y-124026017D01*
X136689874Y-124045534D01*
X136687415Y-124048705D01*
X136679842Y-124057572D01*
X136649935Y-124089420D01*
X136640285Y-124106974D01*
X136629609Y-124123228D01*
X136617326Y-124139063D01*
X136599975Y-124179158D01*
X136594838Y-124189644D01*
X136573802Y-124227907D01*
X136568821Y-124247309D01*
X136562520Y-124265711D01*
X136554561Y-124284102D01*
X136547728Y-124327242D01*
X136545360Y-124338674D01*
X136534500Y-124380978D01*
X136534500Y-124401016D01*
X136532973Y-124420415D01*
X136529840Y-124440194D01*
X136533950Y-124483675D01*
X136534500Y-124495344D01*
X136534500Y-127055812D01*
X136520489Y-127113069D01*
X136481623Y-127157387D01*
X136320859Y-127269953D01*
X136159953Y-127430859D01*
X136029432Y-127617264D01*
X135933261Y-127823502D01*
X135874364Y-128043310D01*
X135854531Y-128269999D01*
X135245500Y-128269999D01*
X135245500Y-114641283D01*
X137221659Y-114641283D01*
X137241484Y-114867886D01*
X137300359Y-115087610D01*
X137396492Y-115293768D01*
X137447598Y-115366755D01*
X137447600Y-115366756D01*
X138173072Y-114641285D01*
X138173072Y-114641284D01*
X137447599Y-113915810D01*
X137447599Y-113915811D01*
X137396491Y-113988800D01*
X137300359Y-114194956D01*
X137241484Y-114414681D01*
X137221659Y-114641283D01*
X135245500Y-114641283D01*
X135245500Y-110259026D01*
X136434526Y-110259026D01*
X136507515Y-110310133D01*
X136713673Y-110406266D01*
X136933397Y-110465141D01*
X137160000Y-110484966D01*
X137386602Y-110465141D01*
X137606326Y-110406266D01*
X137812480Y-110310134D01*
X137885472Y-110259025D01*
X137160001Y-109533553D01*
X137160000Y-109533553D01*
X136434526Y-110259025D01*
X136434526Y-110259026D01*
X135245500Y-110259026D01*
X135245500Y-109180000D01*
X135855033Y-109180000D01*
X135874858Y-109406602D01*
X135933733Y-109626326D01*
X136029866Y-109832484D01*
X136080972Y-109905471D01*
X136080974Y-109905472D01*
X136806446Y-109180001D01*
X137513553Y-109180001D01*
X138239025Y-109905472D01*
X138290134Y-109832480D01*
X138386266Y-109626326D01*
X138445141Y-109406602D01*
X138464966Y-109179999D01*
X138445141Y-108953397D01*
X138386266Y-108733673D01*
X138290133Y-108527515D01*
X138239025Y-108454526D01*
X137513553Y-109180000D01*
X137513553Y-109180001D01*
X136806446Y-109180001D01*
X136806446Y-109180000D01*
X136080973Y-108454526D01*
X136080973Y-108454527D01*
X136029865Y-108527516D01*
X135933733Y-108733672D01*
X135874858Y-108953397D01*
X135855033Y-109180000D01*
X135245500Y-109180000D01*
X135245500Y-106680000D01*
X135854531Y-106680000D01*
X135874364Y-106906689D01*
X135933261Y-107126497D01*
X136029432Y-107332735D01*
X136159953Y-107519140D01*
X136320859Y-107680046D01*
X136507264Y-107810567D01*
X136507265Y-107810567D01*
X136507266Y-107810568D01*
X136522975Y-107817893D01*
X136575150Y-107863649D01*
X136594570Y-107930274D01*
X136575151Y-107996899D01*
X136522977Y-108042656D01*
X136507517Y-108049865D01*
X136434527Y-108100973D01*
X136434526Y-108100973D01*
X137160000Y-108826446D01*
X137160001Y-108826446D01*
X137885472Y-108100974D01*
X137885471Y-108100972D01*
X137812483Y-108049866D01*
X137797023Y-108042657D01*
X137744847Y-107996899D01*
X137725428Y-107930273D01*
X137744849Y-107863647D01*
X137797023Y-107817893D01*
X137812734Y-107810568D01*
X137999139Y-107680047D01*
X138160047Y-107519139D01*
X138290568Y-107332734D01*
X138386739Y-107126496D01*
X138445635Y-106906692D01*
X138465468Y-106680000D01*
X140984538Y-106680000D01*
X141004337Y-106881031D01*
X141062978Y-107074343D01*
X141160651Y-107257077D01*
X141175293Y-107315530D01*
X141160651Y-107373983D01*
X141063442Y-107555847D01*
X141019715Y-107700000D01*
X141902685Y-107700000D01*
X141914838Y-107700596D01*
X141964620Y-107705500D01*
X142515380Y-107705500D01*
X142565161Y-107700597D01*
X142577315Y-107700000D01*
X143460285Y-107700000D01*
X143416558Y-107555850D01*
X143319348Y-107373984D01*
X143304706Y-107315530D01*
X143319348Y-107257077D01*
X143343327Y-107212216D01*
X143417023Y-107074341D01*
X143475662Y-106881033D01*
X143495462Y-106680000D01*
X143475662Y-106478967D01*
X143417023Y-106285659D01*
X143321798Y-106107506D01*
X143255945Y-106027264D01*
X143193647Y-105951352D01*
X143077719Y-105856214D01*
X143037494Y-105823202D01*
X142938074Y-105770061D01*
X142859343Y-105727978D01*
X142859342Y-105727977D01*
X142859341Y-105727977D01*
X142762687Y-105698657D01*
X142666031Y-105669337D01*
X142531837Y-105656120D01*
X142515380Y-105654500D01*
X141964620Y-105654500D01*
X141949782Y-105655961D01*
X141813968Y-105669337D01*
X141620656Y-105727978D01*
X141442507Y-105823201D01*
X141286352Y-105951352D01*
X141158201Y-106107507D01*
X141062978Y-106285656D01*
X141062977Y-106285658D01*
X141062977Y-106285659D01*
X141059644Y-106296648D01*
X141004337Y-106478968D01*
X140984538Y-106680000D01*
X138465468Y-106680000D01*
X138445635Y-106453308D01*
X138386739Y-106233504D01*
X138290568Y-106027266D01*
X138276951Y-106007819D01*
X138160046Y-105840859D01*
X137999140Y-105679953D01*
X137812735Y-105549432D01*
X137606497Y-105453261D01*
X137386689Y-105394364D01*
X137160000Y-105374531D01*
X136933310Y-105394364D01*
X136713502Y-105453261D01*
X136507264Y-105549432D01*
X136320859Y-105679953D01*
X136159953Y-105840859D01*
X136029432Y-106027264D01*
X135933261Y-106233502D01*
X135874364Y-106453310D01*
X135854531Y-106680000D01*
X135245500Y-106680000D01*
X135245500Y-104390000D01*
X145989364Y-104390000D01*
X146046569Y-104603492D01*
X146146399Y-104817576D01*
X146281893Y-105011081D01*
X146448918Y-105178106D01*
X146642423Y-105313600D01*
X146856507Y-105413430D01*
X147069999Y-105470635D01*
X147070000Y-105470636D01*
X147070000Y-104390000D01*
X147570000Y-104390000D01*
X147570000Y-105470635D01*
X147783492Y-105413430D01*
X147997576Y-105313600D01*
X148191081Y-105178106D01*
X148358106Y-105011081D01*
X148493600Y-104817576D01*
X148593430Y-104603492D01*
X148650636Y-104390000D01*
X147570000Y-104390000D01*
X147070000Y-104390000D01*
X145989364Y-104390000D01*
X135245500Y-104390000D01*
X135245500Y-102875227D01*
X135259511Y-102817970D01*
X135298374Y-102773653D01*
X135491401Y-102638495D01*
X135658495Y-102471401D01*
X135788426Y-102285839D01*
X135832743Y-102246975D01*
X135890000Y-102232964D01*
X135947257Y-102246975D01*
X135991573Y-102285839D01*
X136121505Y-102471401D01*
X136288599Y-102638495D01*
X136482170Y-102774035D01*
X136696337Y-102873903D01*
X136924592Y-102935063D01*
X137160000Y-102955659D01*
X137395408Y-102935063D01*
X137623663Y-102873903D01*
X137837830Y-102774035D01*
X138031401Y-102638495D01*
X138198495Y-102471401D01*
X138328426Y-102285839D01*
X138372743Y-102246975D01*
X138430000Y-102232964D01*
X138487257Y-102246975D01*
X138531573Y-102285839D01*
X138661505Y-102471401D01*
X138828599Y-102638495D01*
X139022170Y-102774035D01*
X139236337Y-102873903D01*
X139464592Y-102935063D01*
X139700000Y-102955659D01*
X139935408Y-102935063D01*
X140163663Y-102873903D01*
X140377830Y-102774035D01*
X140571401Y-102638495D01*
X140738495Y-102471401D01*
X140868732Y-102285402D01*
X140913048Y-102246539D01*
X140970305Y-102232528D01*
X141027562Y-102246539D01*
X141071880Y-102285404D01*
X141201893Y-102471081D01*
X141368918Y-102638106D01*
X141562423Y-102773600D01*
X141776507Y-102873430D01*
X141989999Y-102930635D01*
X141990000Y-102930636D01*
X141990000Y-101850000D01*
X142490000Y-101850000D01*
X142490000Y-102930635D01*
X142703492Y-102873430D01*
X142917576Y-102773600D01*
X143111081Y-102638106D01*
X143251318Y-102497869D01*
X145969500Y-102497869D01*
X145975909Y-102557483D01*
X146026204Y-102692331D01*
X146112454Y-102807546D01*
X146227669Y-102893796D01*
X146359598Y-102943002D01*
X146409978Y-102977981D01*
X146437431Y-103032825D01*
X146435242Y-103094118D01*
X146403947Y-103146865D01*
X146281888Y-103268924D01*
X146146400Y-103462421D01*
X146046569Y-103676507D01*
X145989364Y-103889999D01*
X145989364Y-103890000D01*
X148650636Y-103890000D01*
X148650635Y-103889999D01*
X148593430Y-103676507D01*
X148493599Y-103462421D01*
X148358109Y-103268921D01*
X148236053Y-103146865D01*
X148204757Y-103094119D01*
X148202568Y-103032826D01*
X148230021Y-102977981D01*
X148280398Y-102943003D01*
X148412331Y-102893796D01*
X148527546Y-102807546D01*
X148613796Y-102692331D01*
X148664091Y-102557483D01*
X148670500Y-102497873D01*
X148670499Y-100702128D01*
X148664091Y-100642517D01*
X148613796Y-100507669D01*
X148527546Y-100392454D01*
X148412331Y-100306204D01*
X148277483Y-100255909D01*
X148217873Y-100249500D01*
X148217869Y-100249500D01*
X146422130Y-100249500D01*
X146362515Y-100255909D01*
X146227669Y-100306204D01*
X146112454Y-100392454D01*
X146026204Y-100507668D01*
X145975909Y-100642516D01*
X145969500Y-100702130D01*
X145969500Y-102497869D01*
X143251318Y-102497869D01*
X143278106Y-102471081D01*
X143413600Y-102277576D01*
X143513430Y-102063492D01*
X143570636Y-101850000D01*
X142490000Y-101850000D01*
X141990000Y-101850000D01*
X141990000Y-100269364D01*
X142490000Y-100269364D01*
X142490000Y-101350000D01*
X143570636Y-101350000D01*
X143570635Y-101349999D01*
X143513430Y-101136507D01*
X143413599Y-100922421D01*
X143278109Y-100728921D01*
X143111081Y-100561893D01*
X142917576Y-100426399D01*
X142703492Y-100326569D01*
X142490000Y-100269364D01*
X141990000Y-100269364D01*
X141989999Y-100269364D01*
X141776507Y-100326569D01*
X141562421Y-100426400D01*
X141368921Y-100561890D01*
X141201893Y-100728918D01*
X141071880Y-100914596D01*
X141027562Y-100953461D01*
X140970305Y-100967472D01*
X140913048Y-100953461D01*
X140868730Y-100914595D01*
X140868425Y-100914159D01*
X140738495Y-100728599D01*
X140571401Y-100561505D01*
X140377830Y-100425965D01*
X140163663Y-100326097D01*
X140102501Y-100309709D01*
X139935407Y-100264936D01*
X139742147Y-100248028D01*
X139700000Y-100233033D01*
X139657853Y-100248028D01*
X139464592Y-100264936D01*
X139236336Y-100326097D01*
X139022170Y-100425965D01*
X138828598Y-100561505D01*
X138661505Y-100728598D01*
X138531575Y-100914159D01*
X138487257Y-100953025D01*
X138430000Y-100967036D01*
X138372743Y-100953025D01*
X138328425Y-100914159D01*
X138198494Y-100728598D01*
X138031404Y-100561508D01*
X138031404Y-100561507D01*
X138031401Y-100561505D01*
X137837830Y-100425965D01*
X137623663Y-100326097D01*
X137562501Y-100309709D01*
X137395407Y-100264936D01*
X137202147Y-100248028D01*
X137160000Y-100233033D01*
X137117853Y-100248028D01*
X136924592Y-100264936D01*
X136696336Y-100326097D01*
X136482170Y-100425965D01*
X136288598Y-100561505D01*
X136121505Y-100728598D01*
X135991575Y-100914159D01*
X135947257Y-100953025D01*
X135890000Y-100967036D01*
X135832743Y-100953025D01*
X135788425Y-100914159D01*
X135658494Y-100728598D01*
X135491404Y-100561508D01*
X135491404Y-100561507D01*
X135491401Y-100561505D01*
X135297830Y-100425965D01*
X135083663Y-100326097D01*
X135022501Y-100309709D01*
X134855407Y-100264936D01*
X134662147Y-100248028D01*
X134620000Y-100233033D01*
X134577853Y-100248028D01*
X134384592Y-100264936D01*
X134156336Y-100326097D01*
X133942170Y-100425965D01*
X133748598Y-100561505D01*
X133581505Y-100728598D01*
X133451575Y-100914159D01*
X133407257Y-100953025D01*
X133350000Y-100967036D01*
X133292743Y-100953025D01*
X133248425Y-100914159D01*
X133118494Y-100728598D01*
X132951404Y-100561508D01*
X132951403Y-100561507D01*
X132951401Y-100561505D01*
X132757830Y-100425965D01*
X132543663Y-100326097D01*
X132482501Y-100309709D01*
X132315407Y-100264936D01*
X132122147Y-100248028D01*
X132080000Y-100233033D01*
X132037853Y-100248028D01*
X131844592Y-100264936D01*
X131616336Y-100326097D01*
X131402170Y-100425965D01*
X131208601Y-100561503D01*
X131086673Y-100683431D01*
X131033926Y-100714726D01*
X130972634Y-100716915D01*
X130917789Y-100689462D01*
X130882810Y-100639082D01*
X130854019Y-100561890D01*
X130833796Y-100507669D01*
X130747546Y-100392454D01*
X130632331Y-100306204D01*
X130497483Y-100255909D01*
X130437873Y-100249500D01*
X130437869Y-100249500D01*
X128642130Y-100249500D01*
X128582515Y-100255909D01*
X128447669Y-100306204D01*
X128332454Y-100392454D01*
X128246204Y-100507668D01*
X128195909Y-100642516D01*
X128189500Y-100702130D01*
X128189500Y-102497869D01*
X125014882Y-102497869D01*
X125027915Y-102449230D01*
X125048511Y-102213822D01*
X125027915Y-101978414D01*
X124966755Y-101750159D01*
X124866887Y-101535993D01*
X124731347Y-101342421D01*
X124564253Y-101175327D01*
X124370682Y-101039787D01*
X124156515Y-100939919D01*
X124090278Y-100922171D01*
X123928259Y-100878758D01*
X123692852Y-100858162D01*
X123457444Y-100878758D01*
X123229188Y-100939919D01*
X123015022Y-101039787D01*
X122821450Y-101175327D01*
X122654360Y-101342417D01*
X122544426Y-101499419D01*
X122500107Y-101538285D01*
X122442850Y-101552295D01*
X122385594Y-101538284D01*
X122341278Y-101499420D01*
X122231347Y-101342421D01*
X122064253Y-101175327D01*
X121870682Y-101039787D01*
X121656515Y-100939919D01*
X121590278Y-100922171D01*
X121428259Y-100878758D01*
X121192852Y-100858162D01*
X120957444Y-100878758D01*
X120729188Y-100939919D01*
X120515022Y-101039787D01*
X120321450Y-101175327D01*
X120154360Y-101342417D01*
X120044426Y-101499419D01*
X120000107Y-101538285D01*
X119942850Y-101552295D01*
X119885594Y-101538284D01*
X119841278Y-101499420D01*
X119731347Y-101342421D01*
X119564253Y-101175327D01*
X119370682Y-101039787D01*
X119156515Y-100939919D01*
X119090278Y-100922171D01*
X118928259Y-100878758D01*
X118692852Y-100858162D01*
X118457444Y-100878758D01*
X118229188Y-100939919D01*
X118015022Y-101039787D01*
X117821450Y-101175327D01*
X117654357Y-101342420D01*
X117518817Y-101535992D01*
X117418949Y-101750158D01*
X117357788Y-101978414D01*
X117337192Y-102213822D01*
X117357788Y-102449229D01*
X117386795Y-102557483D01*
X117418949Y-102677485D01*
X117518817Y-102891652D01*
X117654357Y-103085223D01*
X117821451Y-103252317D01*
X118015022Y-103387857D01*
X118229189Y-103487725D01*
X118457444Y-103548885D01*
X118692852Y-103569481D01*
X118928260Y-103548885D01*
X119156515Y-103487725D01*
X119370682Y-103387857D01*
X119564253Y-103252317D01*
X119731347Y-103085223D01*
X119841278Y-102928224D01*
X119885595Y-102889360D01*
X119942852Y-102875349D01*
X120000109Y-102889360D01*
X120044425Y-102928224D01*
X120154357Y-103085223D01*
X120321451Y-103252317D01*
X120514477Y-103387475D01*
X120553341Y-103431792D01*
X120567352Y-103489049D01*
X120567352Y-105870108D01*
X120565087Y-105890614D01*
X120567291Y-105960725D01*
X120567352Y-105964620D01*
X120567352Y-105992201D01*
X120567855Y-105996186D01*
X120568770Y-106007819D01*
X120570142Y-106051478D01*
X120575731Y-106070712D01*
X120579677Y-106089768D01*
X120582187Y-106109644D01*
X120598266Y-106150256D01*
X120602049Y-106161303D01*
X120614234Y-106203243D01*
X120624432Y-106220487D01*
X120632988Y-106237952D01*
X120640366Y-106256584D01*
X120640367Y-106256585D01*
X120666032Y-106291911D01*
X120672445Y-106301674D01*
X120694678Y-106339268D01*
X120694681Y-106339271D01*
X120694682Y-106339272D01*
X120708847Y-106353437D01*
X120721479Y-106368227D01*
X120733258Y-106384439D01*
X120766910Y-106412278D01*
X120775551Y-106420141D01*
X120778229Y-106422819D01*
X120808479Y-106472182D01*
X120813021Y-106529898D01*
X120790866Y-106583385D01*
X120746843Y-106620985D01*
X120690548Y-106634500D01*
X119812130Y-106634500D01*
X119752515Y-106640909D01*
X119617669Y-106691204D01*
X119502454Y-106777454D01*
X119416204Y-106892668D01*
X119396054Y-106946692D01*
X119365909Y-107027517D01*
X119360875Y-107074343D01*
X119359500Y-107087130D01*
X119359500Y-108782869D01*
X119365909Y-108842484D01*
X119372360Y-108859779D01*
X119416204Y-108977331D01*
X119502454Y-109092546D01*
X119617669Y-109178796D01*
X119752517Y-109229091D01*
X119787594Y-109232862D01*
X119843513Y-109253239D01*
X119883497Y-109297327D01*
X119898332Y-109354968D01*
X119884600Y-109412881D01*
X119845464Y-109457724D01*
X119820860Y-109474952D01*
X119659953Y-109635859D01*
X119529432Y-109822264D01*
X119433261Y-110028502D01*
X119374364Y-110248310D01*
X119354531Y-110475000D01*
X119374364Y-110701689D01*
X119433261Y-110921497D01*
X119529432Y-111127735D01*
X119659953Y-111314140D01*
X119820859Y-111475046D01*
X120007263Y-111605566D01*
X120007266Y-111605568D01*
X120064683Y-111632342D01*
X120065275Y-111632618D01*
X120117450Y-111678375D01*
X120136869Y-111745000D01*
X120117450Y-111811625D01*
X120065275Y-111857382D01*
X120007263Y-111884433D01*
X119820859Y-112014953D01*
X119659953Y-112175859D01*
X119529432Y-112362264D01*
X119433261Y-112568502D01*
X119374364Y-112788310D01*
X119354531Y-113015000D01*
X119374364Y-113241689D01*
X119433261Y-113461497D01*
X119529432Y-113667735D01*
X119659953Y-113854140D01*
X119820859Y-114015046D01*
X119876426Y-114053954D01*
X120007266Y-114145568D01*
X120065273Y-114172617D01*
X120117449Y-114218373D01*
X120136869Y-114284997D01*
X120117451Y-114351622D01*
X120065276Y-114397380D01*
X120007266Y-114424431D01*
X119820859Y-114554953D01*
X119659953Y-114715859D01*
X119529432Y-114902264D01*
X119433261Y-115108502D01*
X119374364Y-115328310D01*
X119354531Y-115555000D01*
X119374364Y-115781689D01*
X119433261Y-116001497D01*
X119529432Y-116207735D01*
X119659953Y-116394140D01*
X119820859Y-116555046D01*
X120007263Y-116685566D01*
X120007266Y-116685568D01*
X120065275Y-116712618D01*
X120117450Y-116758375D01*
X120136869Y-116825000D01*
X120117450Y-116891625D01*
X120065275Y-116937382D01*
X120007263Y-116964433D01*
X119820859Y-117094953D01*
X119659953Y-117255859D01*
X119529432Y-117442264D01*
X119433261Y-117648502D01*
X119374364Y-117868310D01*
X119354531Y-118095000D01*
X119374364Y-118321689D01*
X119433261Y-118541497D01*
X119529432Y-118747735D01*
X119659953Y-118934140D01*
X119820859Y-119095046D01*
X119876426Y-119133954D01*
X120007266Y-119225568D01*
X120065275Y-119252618D01*
X120117450Y-119298375D01*
X120136869Y-119365000D01*
X120117450Y-119431625D01*
X120065275Y-119477382D01*
X120007263Y-119504433D01*
X119820859Y-119634953D01*
X119659953Y-119795859D01*
X119529432Y-119982264D01*
X119433261Y-120188502D01*
X119374364Y-120408310D01*
X119354531Y-120635000D01*
X119374364Y-120861689D01*
X119433261Y-121081497D01*
X119529432Y-121287735D01*
X119659953Y-121474140D01*
X119820859Y-121635046D01*
X119958957Y-121731742D01*
X120007266Y-121765568D01*
X120065275Y-121792618D01*
X120117450Y-121838375D01*
X120136869Y-121905000D01*
X120117450Y-121971625D01*
X120065275Y-122017382D01*
X120007263Y-122044433D01*
X119820859Y-122174953D01*
X119659953Y-122335859D01*
X119529432Y-122522264D01*
X119433261Y-122728502D01*
X119374364Y-122948310D01*
X119354531Y-123175000D01*
X119374364Y-123401689D01*
X119433261Y-123621497D01*
X119529432Y-123827735D01*
X119659953Y-124014140D01*
X119820859Y-124175046D01*
X120007264Y-124305567D01*
X120007265Y-124305567D01*
X120007266Y-124305568D01*
X120065865Y-124332893D01*
X120118040Y-124378650D01*
X120137460Y-124445274D01*
X120118041Y-124511899D01*
X120065866Y-124557656D01*
X120007522Y-124584863D01*
X119821180Y-124715341D01*
X119660341Y-124876180D01*
X119529865Y-125062519D01*
X119433733Y-125268673D01*
X119381128Y-125464999D01*
X119381128Y-125465000D01*
X120786000Y-125465000D01*
X120848000Y-125481613D01*
X120893387Y-125527000D01*
X120910000Y-125589000D01*
X120910000Y-125841000D01*
X120893387Y-125903000D01*
X120848000Y-125948387D01*
X120786000Y-125965000D01*
X119381128Y-125965000D01*
X119376026Y-125971648D01*
X119375665Y-126013049D01*
X119341036Y-126069557D01*
X119282250Y-126100159D01*
X119100197Y-126138855D01*
X118927269Y-126215848D01*
X118774129Y-126327110D01*
X118647466Y-126467783D01*
X118552820Y-126631715D01*
X118494326Y-126811742D01*
X118474540Y-126999999D01*
X118494326Y-127188257D01*
X118552820Y-127368284D01*
X118647464Y-127532213D01*
X118647467Y-127532216D01*
X118722652Y-127615717D01*
X118746264Y-127654249D01*
X118754500Y-127698687D01*
X118754500Y-130366883D01*
X118740689Y-130423756D01*
X118702331Y-130467959D01*
X118647972Y-130489646D01*
X118589721Y-130483986D01*
X118540554Y-130452239D01*
X118511424Y-130401478D01*
X118503619Y-130374614D01*
X118503618Y-130374610D01*
X118493414Y-130357355D01*
X118484861Y-130339895D01*
X118477486Y-130321269D01*
X118477486Y-130321268D01*
X118451808Y-130285925D01*
X118445401Y-130276171D01*
X118423169Y-130238579D01*
X118409006Y-130224416D01*
X118396367Y-130209617D01*
X118384595Y-130193413D01*
X118350941Y-130165573D01*
X118342299Y-130157709D01*
X117778960Y-129594369D01*
X117754720Y-129560071D01*
X117743321Y-129519655D01*
X117725674Y-129351744D01*
X117673495Y-129191153D01*
X117667179Y-129171715D01*
X117572533Y-129007783D01*
X117445870Y-128867110D01*
X117292730Y-128755848D01*
X117119802Y-128678855D01*
X116934648Y-128639500D01*
X116934646Y-128639500D01*
X116745354Y-128639500D01*
X116745352Y-128639500D01*
X116560197Y-128678855D01*
X116387269Y-128755848D01*
X116234129Y-128867110D01*
X116107466Y-129007783D01*
X116012820Y-129171715D01*
X115954326Y-129351742D01*
X115934540Y-129540000D01*
X115954326Y-129728257D01*
X116012820Y-129908284D01*
X116107466Y-130072216D01*
X116234129Y-130212889D01*
X116387269Y-130324151D01*
X116560197Y-130401144D01*
X116745352Y-130440500D01*
X116745354Y-130440500D01*
X116804548Y-130440500D01*
X116852001Y-130449939D01*
X116892229Y-130476819D01*
X117263181Y-130847771D01*
X117290061Y-130887999D01*
X117299500Y-130935452D01*
X117299500Y-133647919D01*
X117284473Y-133707087D01*
X117243034Y-133751915D01*
X117185228Y-133771537D01*
X117125063Y-133761198D01*
X117119800Y-133758854D01*
X116934648Y-133719500D01*
X116934646Y-133719500D01*
X116745354Y-133719500D01*
X116745352Y-133719500D01*
X116560197Y-133758855D01*
X116387269Y-133835848D01*
X116234129Y-133947110D01*
X116107466Y-134087783D01*
X116012820Y-134251715D01*
X115954326Y-134431742D01*
X115934540Y-134620000D01*
X115954326Y-134808257D01*
X116012820Y-134988284D01*
X116107464Y-135152213D01*
X116142650Y-135191290D01*
X116166264Y-135229825D01*
X116174500Y-135274263D01*
X116174500Y-135945812D01*
X116160489Y-136003069D01*
X116121623Y-136047387D01*
X115960859Y-136159953D01*
X115799953Y-136320859D01*
X115669429Y-136507268D01*
X115662104Y-136522978D01*
X115616347Y-136575152D01*
X115549722Y-136594570D01*
X115483098Y-136575150D01*
X115437342Y-136522975D01*
X115430133Y-136507515D01*
X115379025Y-136434526D01*
X114653553Y-137160000D01*
X114653553Y-137160001D01*
X113946446Y-137160001D01*
X113946446Y-137160000D01*
X113220973Y-136434526D01*
X113220973Y-136434527D01*
X113169865Y-136507516D01*
X113073733Y-136713672D01*
X113014858Y-136933397D01*
X112995033Y-137160000D01*
X112665460Y-137160000D01*
X112645674Y-136971744D01*
X112587179Y-136791716D01*
X112587179Y-136791715D01*
X112492533Y-136627783D01*
X112365870Y-136487110D01*
X112212730Y-136375848D01*
X112039802Y-136298855D01*
X111854648Y-136259500D01*
X111854646Y-136259500D01*
X111665354Y-136259500D01*
X111665352Y-136259500D01*
X111480197Y-136298855D01*
X111307269Y-136375848D01*
X111154129Y-136487110D01*
X111027466Y-136627783D01*
X110932820Y-136791715D01*
X110874326Y-136971742D01*
X110856679Y-137139649D01*
X110845279Y-137180070D01*
X110821039Y-137214368D01*
X110256343Y-137779064D01*
X110240245Y-137791961D01*
X110192231Y-137843090D01*
X110189526Y-137845882D01*
X110170009Y-137865399D01*
X110167550Y-137868570D01*
X110159977Y-137877437D01*
X110130070Y-137909285D01*
X110120420Y-137926839D01*
X110109744Y-137943093D01*
X110097461Y-137958928D01*
X110080110Y-137999023D01*
X110074973Y-138009509D01*
X110053937Y-138047772D01*
X110048956Y-138067174D01*
X110042655Y-138085576D01*
X110034696Y-138103967D01*
X110027863Y-138147107D01*
X110025495Y-138158539D01*
X110014635Y-138200843D01*
X110014635Y-138220881D01*
X110013108Y-138240280D01*
X110009975Y-138260059D01*
X110014085Y-138303540D01*
X110014635Y-138315209D01*
X110014635Y-139815496D01*
X110000624Y-139872753D01*
X109961758Y-139917071D01*
X109800994Y-140029637D01*
X109640088Y-140190543D01*
X109509567Y-140376948D01*
X109413396Y-140583186D01*
X109354499Y-140802994D01*
X109334666Y-141029684D01*
X107980246Y-141029684D01*
X107985468Y-140970000D01*
X107965635Y-140743308D01*
X107947319Y-140674951D01*
X107947319Y-140610763D01*
X107979411Y-140555178D01*
X108188789Y-140345800D01*
X108204885Y-140332906D01*
X108206873Y-140330787D01*
X108206877Y-140330786D01*
X108252948Y-140281723D01*
X108255566Y-140279023D01*
X108275120Y-140259471D01*
X108277581Y-140256298D01*
X108285156Y-140247427D01*
X108315062Y-140215582D01*
X108324717Y-140198018D01*
X108335394Y-140181764D01*
X108347673Y-140165936D01*
X108365018Y-140125852D01*
X108370160Y-140115356D01*
X108383894Y-140090375D01*
X108391197Y-140077092D01*
X108396179Y-140057684D01*
X108402481Y-140039280D01*
X108410437Y-140020896D01*
X108417269Y-139977752D01*
X108419633Y-139966338D01*
X108430500Y-139924019D01*
X108430500Y-139903984D01*
X108432027Y-139884585D01*
X108432207Y-139883451D01*
X108435160Y-139864804D01*
X108431050Y-139821325D01*
X108430500Y-139809656D01*
X108430500Y-136080973D01*
X113574526Y-136080973D01*
X114300000Y-136806446D01*
X114300001Y-136806446D01*
X115025472Y-136080974D01*
X115025471Y-136080972D01*
X114952484Y-136029866D01*
X114746326Y-135933733D01*
X114526602Y-135874858D01*
X114300000Y-135855033D01*
X114073397Y-135874858D01*
X113853672Y-135933733D01*
X113647516Y-136029865D01*
X113574527Y-136080973D01*
X113574526Y-136080973D01*
X108430500Y-136080973D01*
X108430500Y-133409683D01*
X109334666Y-133409683D01*
X109354499Y-133636373D01*
X109413396Y-133856181D01*
X109509567Y-134062419D01*
X109640088Y-134248824D01*
X109800994Y-134409730D01*
X109987399Y-134540251D01*
X109987400Y-134540251D01*
X109987401Y-134540252D01*
X110193639Y-134636423D01*
X110413443Y-134695319D01*
X110640135Y-134715152D01*
X110866827Y-134695319D01*
X111086631Y-134636423D01*
X111292869Y-134540252D01*
X111479274Y-134409731D01*
X111640182Y-134248823D01*
X111770703Y-134062418D01*
X111866874Y-133856180D01*
X111925770Y-133636376D01*
X111945603Y-133409684D01*
X111925770Y-133182992D01*
X111866874Y-132963188D01*
X111770703Y-132756950D01*
X111764945Y-132748727D01*
X111640181Y-132570543D01*
X111479275Y-132409637D01*
X111292870Y-132279116D01*
X111086632Y-132182945D01*
X110866824Y-132124048D01*
X110640135Y-132104215D01*
X110413445Y-132124048D01*
X110193637Y-132182945D01*
X109987399Y-132279116D01*
X109800994Y-132409637D01*
X109640088Y-132570543D01*
X109509567Y-132756948D01*
X109413396Y-132963186D01*
X109354499Y-133182994D01*
X109334666Y-133409683D01*
X108430500Y-133409683D01*
X108430500Y-130616013D01*
X108448773Y-130551223D01*
X108498205Y-130505528D01*
X108564229Y-130492395D01*
X108627385Y-130515695D01*
X108767269Y-130617326D01*
X108940197Y-130694319D01*
X109125352Y-130733675D01*
X109125354Y-130733675D01*
X109314646Y-130733675D01*
X109314648Y-130733675D01*
X109438083Y-130707437D01*
X109499803Y-130694319D01*
X109672730Y-130617326D01*
X109686943Y-130607000D01*
X109825870Y-130506064D01*
X109952533Y-130365391D01*
X110047179Y-130201459D01*
X110066330Y-130142519D01*
X110105674Y-130021431D01*
X110123322Y-129853516D01*
X110134720Y-129813102D01*
X110158957Y-129778807D01*
X110638156Y-129299608D01*
X110654252Y-129286714D01*
X110656240Y-129284595D01*
X110656244Y-129284594D01*
X110702315Y-129235531D01*
X110704933Y-129232831D01*
X110724487Y-129213279D01*
X110726948Y-129210106D01*
X110734523Y-129201235D01*
X110764429Y-129169390D01*
X110774079Y-129151835D01*
X110784767Y-129135565D01*
X110797038Y-129119746D01*
X110797040Y-129119744D01*
X110814393Y-129079640D01*
X110819524Y-129069170D01*
X110823372Y-129062171D01*
X110840564Y-129030900D01*
X110845542Y-129011507D01*
X110851848Y-128993090D01*
X110853385Y-128989536D01*
X110859805Y-128974704D01*
X110866639Y-128931553D01*
X110869002Y-128920139D01*
X110879867Y-128877827D01*
X110879867Y-128857792D01*
X110881394Y-128838393D01*
X110884527Y-128818612D01*
X110880417Y-128775133D01*
X110879867Y-128763464D01*
X110879867Y-116854828D01*
X110893878Y-116797571D01*
X110932744Y-116753253D01*
X111029409Y-116685568D01*
X111093506Y-116640687D01*
X111254414Y-116479779D01*
X111384935Y-116293374D01*
X111481106Y-116087136D01*
X111540002Y-115867332D01*
X111559835Y-115640640D01*
X111540002Y-115413948D01*
X111481106Y-115194144D01*
X111384935Y-114987906D01*
X111367959Y-114963662D01*
X111254413Y-114801499D01*
X111093507Y-114640593D01*
X110907102Y-114510072D01*
X110700864Y-114413901D01*
X110481056Y-114355004D01*
X110254367Y-114335171D01*
X110027677Y-114355004D01*
X109807869Y-114413901D01*
X109601631Y-114510072D01*
X109415226Y-114640593D01*
X109254320Y-114801499D01*
X109123799Y-114987904D01*
X109027628Y-115194142D01*
X108968731Y-115413950D01*
X108948898Y-115640640D01*
X108968731Y-115867329D01*
X109027628Y-116087137D01*
X109123799Y-116293375D01*
X109254320Y-116479780D01*
X109415226Y-116640686D01*
X109575990Y-116753253D01*
X109614856Y-116797571D01*
X109628867Y-116854828D01*
X109628867Y-128488356D01*
X109619428Y-128535809D01*
X109592548Y-128576037D01*
X109272228Y-128896356D01*
X109232000Y-128923236D01*
X109184547Y-128932675D01*
X109125352Y-128932675D01*
X108940197Y-128972030D01*
X108767269Y-129049023D01*
X108627385Y-129150655D01*
X108564229Y-129173955D01*
X108498205Y-129160822D01*
X108448773Y-129115127D01*
X108430500Y-129050337D01*
X108430500Y-109703240D01*
X108432763Y-109682736D01*
X108432247Y-109666326D01*
X108430561Y-109612644D01*
X108430500Y-109608750D01*
X108430500Y-109581157D01*
X108430500Y-109581150D01*
X108429995Y-109577153D01*
X108429080Y-109565523D01*
X108427709Y-109521873D01*
X108422120Y-109502640D01*
X108418174Y-109483582D01*
X108415664Y-109463708D01*
X108415663Y-109463707D01*
X108399585Y-109423097D01*
X108395804Y-109412052D01*
X108383619Y-109370113D01*
X108383618Y-109370112D01*
X108383618Y-109370110D01*
X108373417Y-109352861D01*
X108364860Y-109335395D01*
X108357486Y-109316768D01*
X108331813Y-109281432D01*
X108325402Y-109271672D01*
X108304010Y-109235500D01*
X108303170Y-109234079D01*
X108289006Y-109219915D01*
X108276369Y-109205120D01*
X108264595Y-109188914D01*
X108253820Y-109180000D01*
X108230935Y-109161068D01*
X108222305Y-109153214D01*
X107618960Y-108549869D01*
X107594720Y-108515571D01*
X107583321Y-108475155D01*
X107565674Y-108307244D01*
X107535332Y-108213863D01*
X107507179Y-108127215D01*
X107412533Y-107963283D01*
X107285870Y-107822610D01*
X107132730Y-107711348D01*
X106959802Y-107634355D01*
X106774648Y-107595000D01*
X106774646Y-107595000D01*
X106585354Y-107595000D01*
X106585351Y-107595000D01*
X106523046Y-107608243D01*
X106467968Y-107607442D01*
X106418671Y-107582863D01*
X106384886Y-107539360D01*
X106304935Y-107367906D01*
X106294419Y-107352888D01*
X106174413Y-107181499D01*
X106013507Y-107020593D01*
X105852744Y-106908027D01*
X105813878Y-106863709D01*
X105799867Y-106806452D01*
X105799867Y-105735139D01*
X105816480Y-105673139D01*
X105861867Y-105627752D01*
X105923867Y-105611139D01*
X106122237Y-105611139D01*
X106122239Y-105611139D01*
X106181850Y-105604731D01*
X106316698Y-105554436D01*
X106431913Y-105468186D01*
X106518163Y-105352971D01*
X106546822Y-105276130D01*
X106582772Y-105224919D01*
X106639154Y-105197780D01*
X106701609Y-105201628D01*
X106754231Y-105235481D01*
X106762583Y-105244553D01*
X106945741Y-105387110D01*
X107149864Y-105497576D01*
X107259625Y-105535257D01*
X107369382Y-105572937D01*
X107369384Y-105572937D01*
X107369386Y-105572938D01*
X107598318Y-105611140D01*
X107830415Y-105611140D01*
X107830416Y-105611140D01*
X108059348Y-105572938D01*
X108278870Y-105497576D01*
X108482993Y-105387110D01*
X108666151Y-105244553D01*
X108674499Y-105235483D01*
X108727121Y-105201629D01*
X108789576Y-105197780D01*
X108845959Y-105224917D01*
X108881911Y-105276131D01*
X108910571Y-105352971D01*
X108996821Y-105468186D01*
X109112036Y-105554436D01*
X109246884Y-105604731D01*
X109306494Y-105611140D01*
X109504867Y-105611140D01*
X109566867Y-105627753D01*
X109612254Y-105673140D01*
X109628867Y-105735140D01*
X109628867Y-106806452D01*
X109614856Y-106863709D01*
X109575990Y-106908027D01*
X109415226Y-107020593D01*
X109254320Y-107181499D01*
X109123799Y-107367904D01*
X109027628Y-107574142D01*
X108968731Y-107793950D01*
X108948898Y-108020640D01*
X108968731Y-108247329D01*
X109027628Y-108467137D01*
X109123799Y-108673375D01*
X109254320Y-108859780D01*
X109415226Y-109020686D01*
X109601631Y-109151207D01*
X109601632Y-109151207D01*
X109601633Y-109151208D01*
X109807871Y-109247379D01*
X110027675Y-109306275D01*
X110254367Y-109326108D01*
X110481059Y-109306275D01*
X110700863Y-109247379D01*
X110907101Y-109151208D01*
X111093506Y-109020687D01*
X111254414Y-108859779D01*
X111384935Y-108673374D01*
X111481106Y-108467136D01*
X111540002Y-108247332D01*
X111559835Y-108020640D01*
X111540002Y-107793948D01*
X111481106Y-107574144D01*
X111384935Y-107367906D01*
X111374419Y-107352888D01*
X111254413Y-107181499D01*
X111093507Y-107020593D01*
X110932744Y-106908027D01*
X110893878Y-106863709D01*
X110879867Y-106806452D01*
X110879867Y-105735139D01*
X110896480Y-105673139D01*
X110941867Y-105627752D01*
X111003867Y-105611139D01*
X111202237Y-105611139D01*
X111202239Y-105611139D01*
X111261850Y-105604731D01*
X111396698Y-105554436D01*
X111511913Y-105468186D01*
X111598163Y-105352971D01*
X111626822Y-105276130D01*
X111662772Y-105224919D01*
X111719154Y-105197780D01*
X111781609Y-105201628D01*
X111834231Y-105235481D01*
X111842583Y-105244553D01*
X112025741Y-105387110D01*
X112229864Y-105497576D01*
X112339625Y-105535257D01*
X112449382Y-105572937D01*
X112449384Y-105572937D01*
X112449386Y-105572938D01*
X112678318Y-105611140D01*
X112910415Y-105611140D01*
X112910416Y-105611140D01*
X113139348Y-105572938D01*
X113358870Y-105497576D01*
X113562993Y-105387110D01*
X113746151Y-105244553D01*
X113903346Y-105073793D01*
X114030291Y-104879489D01*
X114123524Y-104666940D01*
X114180501Y-104441945D01*
X114199667Y-104210640D01*
X114180501Y-103979335D01*
X114123524Y-103754340D01*
X114030291Y-103541791D01*
X113903346Y-103347487D01*
X113746151Y-103176727D01*
X113562993Y-103034170D01*
X113358870Y-102923704D01*
X113358866Y-102923702D01*
X113358865Y-102923702D01*
X113139351Y-102848342D01*
X112967649Y-102819690D01*
X112910416Y-102810140D01*
X112678318Y-102810140D01*
X112639911Y-102816549D01*
X112449382Y-102848342D01*
X112229868Y-102923702D01*
X112229864Y-102923703D01*
X112229864Y-102923704D01*
X112149653Y-102967112D01*
X112025739Y-103034171D01*
X111842580Y-103176729D01*
X111834230Y-103185800D01*
X111781606Y-103219652D01*
X111719152Y-103223499D01*
X111662772Y-103196360D01*
X111626822Y-103145148D01*
X111598163Y-103068309D01*
X111511913Y-102953094D01*
X111396698Y-102866844D01*
X111261850Y-102816549D01*
X111202240Y-102810140D01*
X111202236Y-102810140D01*
X109306497Y-102810140D01*
X109246882Y-102816549D01*
X109161642Y-102848342D01*
X109112036Y-102866844D01*
X108996821Y-102953094D01*
X108910571Y-103068309D01*
X108904263Y-103085223D01*
X108881912Y-103145148D01*
X108845960Y-103196361D01*
X108789578Y-103223499D01*
X108727124Y-103219651D01*
X108674500Y-103185797D01*
X108666151Y-103176727D01*
X108560016Y-103094119D01*
X108482993Y-103034170D01*
X108278870Y-102923704D01*
X108278866Y-102923702D01*
X108278865Y-102923702D01*
X108059351Y-102848342D01*
X107887649Y-102819690D01*
X107830416Y-102810140D01*
X107598318Y-102810140D01*
X107559911Y-102816549D01*
X107369382Y-102848342D01*
X107149868Y-102923702D01*
X107149864Y-102923703D01*
X107149864Y-102923704D01*
X107069653Y-102967112D01*
X106945739Y-103034171D01*
X106762580Y-103176729D01*
X106754230Y-103185800D01*
X106701606Y-103219652D01*
X106639152Y-103223499D01*
X106582772Y-103196360D01*
X106546822Y-103145148D01*
X106518163Y-103068309D01*
X106431913Y-102953094D01*
X106316698Y-102866844D01*
X106181850Y-102816549D01*
X106122240Y-102810140D01*
X106122236Y-102810140D01*
X104226497Y-102810140D01*
X104166882Y-102816549D01*
X104032036Y-102866844D01*
X103916821Y-102953094D01*
X103830571Y-103068308D01*
X103780276Y-103203156D01*
X103773867Y-103262770D01*
X103773867Y-105158509D01*
X100000500Y-105158509D01*
X100000500Y-100124500D01*
X100017113Y-100062500D01*
X100062500Y-100017113D01*
X100124500Y-100000500D01*
X132027046Y-100000500D01*
X132080000Y-100014276D01*
G37*
%TD.AperFunction*%
%TD*%
D22*
X100000000Y-100000000D02*
X150000000Y-100000000D01*
X150000000Y-150000000D01*
X100000000Y-150000000D01*
X100000000Y-100000000D01*
M02*
