M48
; DRILL file {KiCad 7.0.1-0} date 2023 April 19, Wednesday 13:52:02
; FORMAT={-:-/ absolute / inch / decimal}
; #@! TF.CreationDate,2023-04-19T13:52:02-05:00
; #@! TF.GenerationSoftware,Kicad,Pcbnew,7.0.1-0
; #@! TF.FileFunction,Plated,1,2,PTH
FMAT,2
INCH
; #@! TA.AperFunction,Plated,PTH,ViaDrill
T1C0.0157
; #@! TA.AperFunction,Plated,PTH,ComponentDrill
T2C0.0295
; #@! TA.AperFunction,Plated,PTH,ComponentDrill
T3C0.0315
; #@! TA.AperFunction,Plated,PTH,ComponentDrill
T4C0.0354
; #@! TA.AperFunction,Plated,PTH,ComponentDrill
T5C0.0394
%
G90
G05
T1
X3.959Y-4.2
X4.1Y-5.3
X4.1Y-5.4
X4.1472Y-5.0079
X4.2Y-4.2715
X4.3Y-5.1115
X4.4Y-5.4
X4.6Y-5.1
X4.6Y-5.3
X4.7Y-5.0
X4.8Y-4.2
X4.8Y-4.9
X4.9Y-4.1
X4.9Y-4.3
X4.9Y-4.4
X5.0Y-5.2
X5.1Y-5.0
X5.1066Y-5.2336
X5.2Y-4.8
X5.2Y-5.3
X5.3Y-5.1
X5.5Y-5.4051
X5.8835Y-4.2
T2
X5.6Y-4.2
X5.6Y-4.25
X5.6Y-4.3
T3
X4.1407Y-4.2528
X4.1407Y-4.5528
X4.2Y-5.25
X4.2Y-5.55
X4.3407Y-4.2528
X4.3407Y-4.5528
X4.3559Y-5.2523
X4.3559Y-5.5523
X4.5Y-5.4
X4.5984Y-5.4
X4.7504Y-4.2494
X4.7504Y-4.3494
X4.7504Y-4.4494
X4.7504Y-4.5494
X4.7504Y-4.6494
X4.7504Y-4.7494
X4.7504Y-4.8494
X4.7504Y-4.9494
X4.7504Y-5.0494
X4.7504Y-5.1494
X4.7504Y-5.2494
X4.7504Y-5.3494
X4.7504Y-5.4494
X4.7504Y-5.5494
X5.0504Y-4.2494
X5.0504Y-4.3494
X5.0504Y-4.4494
X5.0504Y-4.5494
X5.0504Y-4.6494
X5.0504Y-4.7494
X5.0504Y-4.8494
X5.0504Y-4.9494
X5.0504Y-5.0494
X5.0504Y-5.1494
X5.0504Y-5.2494
X5.0504Y-5.3494
X5.0504Y-5.4494
X5.0504Y-5.5494
X5.2Y-5.0
X5.2Y-5.0984
X5.2016Y-4.2016
X5.2016Y-4.3
X5.4Y-4.2
X5.4Y-4.2984
X5.4Y-5.05
X5.4Y-5.35
X5.4538Y-4.415
X5.4538Y-4.5134
X5.5983Y-4.4131
X5.5983Y-4.5116
T4
X4.1407Y-4.1028
X4.2407Y-4.1028
X4.3407Y-4.1028
X4.4407Y-4.1028
X5.451Y-4.7648
X5.551Y-4.7648
T5
X4.0Y-4.4079
X4.0Y-4.5079
X4.0Y-4.6079
X4.0Y-4.7079
X4.0Y-4.8079
X4.0Y-4.9079
X4.0Y-5.0079
X4.0Y-5.1079
X4.0Y-5.2079
X4.0Y-5.3079
X4.0Y-5.4079
X4.0Y-5.5079
X4.0Y-5.8
X4.2Y-5.8
X4.4Y-5.8
X4.6Y-5.8
X4.6729Y-4.0242
X4.7714Y-4.0242
X4.8698Y-4.0242
X5.1Y-4.0
X5.2Y-4.0
X5.3Y-4.0
X5.4Y-4.0
X5.5Y-4.0
X5.6Y-4.0
X5.8Y-4.0
X5.8Y-4.1
X5.8Y-4.4079
X5.8Y-4.5079
X5.8Y-4.6079
X5.8Y-4.7079
X5.8Y-4.8079
X5.8Y-4.9079
X5.8Y-5.0079
X5.8Y-5.1079
X5.8Y-5.2079
X5.8Y-5.3079
X5.8Y-5.4079
X5.8Y-5.5079
T0
M30
