%TF.GenerationSoftware,KiCad,Pcbnew,7.0.1-0*%
%TF.CreationDate,2023-04-19T13:51:38-05:00*%
%TF.ProjectId,ME 433 HW3,4d452034-3333-4204-9857-332e6b696361,rev?*%
%TF.SameCoordinates,Original*%
%TF.FileFunction,Soldermask,Top*%
%TF.FilePolarity,Negative*%
%FSLAX46Y46*%
G04 Gerber Fmt 4.6, Leading zero omitted, Abs format (unit mm)*
G04 Created by KiCad (PCBNEW 7.0.1-0) date 2023-04-19 13:51:38*
%MOMM*%
%LPD*%
G01*
G04 APERTURE LIST*
%ADD10C,1.600000*%
%ADD11O,1.600000X1.600000*%
%ADD12R,1.700000X1.700000*%
%ADD13O,1.700000X1.700000*%
%ADD14R,1.500000X1.050000*%
%ADD15O,1.500000X1.050000*%
%ADD16R,1.800000X1.800000*%
%ADD17C,1.800000*%
%ADD18R,1.600000X1.600000*%
%ADD19C,1.700000*%
%TA.AperFunction,Profile*%
%ADD20C,0.100000*%
%TD*%
G04 APERTURE END LIST*
D10*
%TO.C,R4*%
X105174367Y-108020640D03*
D11*
X105174367Y-115640640D03*
%TD*%
D10*
%TO.C,C4*%
X137160000Y-106680000D03*
X137160000Y-109180000D03*
%TD*%
D12*
%TO.C,J1*%
X147320000Y-101600000D03*
D13*
X147320000Y-104140000D03*
%TD*%
D14*
%TO.C,U2*%
X142240000Y-109220000D03*
D15*
X142240000Y-107950000D03*
X142240000Y-106680000D03*
%TD*%
D16*
%TO.C,D1*%
X138455683Y-121026425D03*
D17*
X140995683Y-121026425D03*
%TD*%
D10*
%TO.C,C5*%
X142196489Y-112093623D03*
X142196489Y-114593623D03*
%TD*%
%TO.C,C1*%
X116800000Y-137160000D03*
X114300000Y-137160000D03*
%TD*%
D16*
%TO.C,D3*%
X110254367Y-104210640D03*
D17*
X112794367Y-104210640D03*
%TD*%
D12*
%TO.C,J3*%
X147320000Y-111960000D03*
D13*
X147320000Y-114500000D03*
X147320000Y-117040000D03*
X147320000Y-119580000D03*
X147320000Y-122120000D03*
X147320000Y-124660000D03*
X147320000Y-127200000D03*
X147320000Y-129740000D03*
X147320000Y-132280000D03*
X147320000Y-134820000D03*
X147320000Y-137360000D03*
X147320000Y-139900000D03*
%TD*%
D10*
%TO.C,C3*%
X132080000Y-127000000D03*
X132080000Y-129500000D03*
%TD*%
%TO.C,R5*%
X110254367Y-108020640D03*
D11*
X110254367Y-115640640D03*
%TD*%
D10*
%TO.C,R2*%
X106680000Y-133350000D03*
D11*
X106680000Y-140970000D03*
%TD*%
D12*
%TO.C,SW2*%
X101600000Y-147320000D03*
D13*
X106680000Y-147320000D03*
%TD*%
D16*
%TO.C,D2*%
X105174367Y-104210640D03*
D17*
X107714367Y-104210640D03*
%TD*%
D10*
%TO.C,C2*%
X132120000Y-106720000D03*
X132120000Y-109220000D03*
%TD*%
D12*
%TO.C,SW3*%
X116840000Y-147320000D03*
D13*
X111760000Y-147320000D03*
%TD*%
D12*
%TO.C,J4*%
X129540000Y-101600000D03*
D13*
X132080000Y-101600000D03*
X134620000Y-101600000D03*
X137160000Y-101600000D03*
X139700000Y-101600000D03*
X142240000Y-101600000D03*
%TD*%
D10*
%TO.C,R3*%
X110640135Y-133409684D03*
D11*
X110640135Y-141029684D03*
%TD*%
D18*
%TO.C,U1*%
X120660000Y-107935000D03*
D11*
X120660000Y-110475000D03*
X120660000Y-113015000D03*
X120660000Y-115555000D03*
X120660000Y-118095000D03*
X120660000Y-120635000D03*
X120660000Y-123175000D03*
X120660000Y-125715000D03*
X120660000Y-128255000D03*
X120660000Y-130795000D03*
X120660000Y-133335000D03*
X120660000Y-135875000D03*
X120660000Y-138415000D03*
X120660000Y-140955000D03*
X128280000Y-140955000D03*
X128280000Y-138415000D03*
X128280000Y-135875000D03*
X128280000Y-133335000D03*
X128280000Y-130795000D03*
X128280000Y-128255000D03*
X128280000Y-125715000D03*
X128280000Y-123175000D03*
X128280000Y-120635000D03*
X128280000Y-118095000D03*
X128280000Y-115555000D03*
X128280000Y-113015000D03*
X128280000Y-110475000D03*
X128280000Y-107935000D03*
%TD*%
D10*
%TO.C,C6*%
X138526626Y-112141284D03*
X138526626Y-114641284D03*
%TD*%
D19*
%TO.C,SW1*%
X118692852Y-102213822D03*
X121192852Y-102213822D03*
X123692852Y-102213822D03*
%TD*%
D10*
%TO.C,R1*%
X137160000Y-128270000D03*
D11*
X137160000Y-135890000D03*
%TD*%
D12*
%TO.C,J2*%
X101600000Y-111960000D03*
D13*
X101600000Y-114500000D03*
X101600000Y-117040000D03*
X101600000Y-119580000D03*
X101600000Y-122120000D03*
X101600000Y-124660000D03*
X101600000Y-127200000D03*
X101600000Y-129740000D03*
X101600000Y-132280000D03*
X101600000Y-134820000D03*
X101600000Y-137360000D03*
X101600000Y-139900000D03*
%TD*%
D20*
X100000000Y-100000000D02*
X150000000Y-100000000D01*
X150000000Y-150000000D01*
X100000000Y-150000000D01*
X100000000Y-100000000D01*
M02*
